<?xml version="1.0" standalone="no"?>
<!DOCTYPE svg PUBLIC "-//W3C//DTD SVG 1.1//EN" "http://www.w3.org/Graphics/SVG/1.1/DTD/svg11.dtd" >
<svg>
<metadata>
Created by FontForge 20120702 at Sat Mar 21 00:01:25 2015


</metadata>
<defs>
<font id="ManjaresDeCasaLight-Condensed" horiz-adv-x="434" >
  <font-face 
    font-family="ManjaresDeCasa Light Condensed"
    font-weight="400"
    font-stretch="normal"
    units-per-em="1000"
    panose-1="2 0 5 6 4 0 0 2 0 4"
    ascent="800"
    descent="-200"
    x-height="441"
    cap-height="629"
    bbox="-61 -235 1021 917"
    underline-thickness="47"
    underline-position="-66"
    stemh="57"
    stemv="68"
    unicode-range="U+0020-FB0B"
  />
<missing-glyph horiz-adv-x="174" 
 />
    <glyph glyph-name="fi" unicode="fi" horiz-adv-x="419" 
d="M371 596c0 -24 -21 -45 -45 -45c-25 0 -43 20 -43 45c0 23 20 44 43 44c25 0 45 -19 45 -44zM361 10c0 -7 -3 -10 -10 -10h-48c-7 0 -10 3 -10 10v422c0 7 3 10 10 10h48c7 0 10 -3 10 -10v-422zM212 347c0 -7 -2 -10 -8 -10h-59c-6 0 -8 -3 -8 -10v-317
c0 -7 -3 -10 -10 -10h-47c-7 0 -10 3 -10 10v317c0 7 -2 10 -8 10h-22c-6 0 -8 3 -8 10v38c0 7 2 10 8 10h22c6 0 8 3 8 10v61c0 69 36 127 93 156c18 10 36 16 42 16c5 0 7 -3 7 -10v-38c0 -5 -2 -9 -6 -10c-42 -12 -69 -54 -69 -104v-71c0 -7 2 -10 8 -10h59
c6 0 8 -3 8 -10v-38z" />
    <glyph glyph-name="fl" unicode="fl" horiz-adv-x="418" 
d="M362 10c0 -7 -3 -10 -10 -10h-48c-7 0 -10 3 -10 10v552c0 7 -2 10 -8 10h-64c-47 0 -85 -47 -85 -106v-61c0 -7 2 -10 8 -10h59c6 0 8 -3 8 -10v-38c0 -7 -2 -10 -8 -10h-59c-6 0 -8 -3 -8 -10v-317c0 -7 -3 -10 -10 -10h-47c-7 0 -10 3 -10 10v317c0 7 -2 10 -8 10h-22
c-6 0 -8 3 -8 10v38c0 7 2 10 8 10h22c6 0 8 3 8 10v51c0 96 68 173 153 173h130c6 0 9 -3 9 -10v-609z" />
    <glyph glyph-name="ffi" unicode="ffi" horiz-adv-x="638" 
d="M597 596c0 -24 -21 -45 -45 -45c-25 0 -44 20 -44 45s19 44 44 44s45 -19 45 -44zM586 10c0 -7 -3 -10 -10 -10h-47c-7 0 -10 3 -10 10v422c0 7 3 10 10 10h47c7 0 10 -3 10 -10v-422zM437 347c0 -7 -2 -10 -8 -10h-59c-6 0 -8 -3 -8 -10v-317c0 -7 -3 -10 -10 -10h-48
c-7 0 -10 3 -10 10v317c0 7 -2 10 -8 10h-141c-6 0 -8 -3 -8 -10v-317c0 -7 -3 -10 -10 -10h-47c-7 0 -10 3 -10 10v317c0 7 -2 10 -8 10h-22c-6 0 -8 3 -8 10v38c0 7 2 10 8 10h22c6 0 8 3 8 10v61c0 97 68 174 153 174c47 0 74 -14 98 -38c7 -7 14 -17 18 -17
c5 0 12 11 19 17c23 21 61 36 72 36c5 0 7 -3 7 -10v-39c0 -5 -3 -9 -7 -10c-43 -11 -68 -53 -68 -103v-71c0 -7 2 -10 8 -10h59c6 0 8 -3 8 -10v-38zM302 516c0 6 -6 16 -13 26c-19 27 -41 40 -66 40c-48 0 -86 -46 -86 -106v-71c0 -7 2 -10 8 -10h141c6 0 8 3 8 10v61
c0 33 8 44 8 50z" />
    <glyph glyph-name="ffl" unicode="ffl" horiz-adv-x="642" 
d="M586 10c0 -7 -3 -10 -10 -10h-47c-7 0 -10 3 -10 10v552c0 7 -2 10 -8 10h-64c-47 0 -85 -47 -85 -106v-61c0 -7 2 -10 8 -10h58c6 0 8 -3 8 -10v-38c0 -7 -2 -10 -8 -10h-58c-6 0 -8 -3 -8 -10v-317c0 -7 -3 -10 -10 -10h-48c-7 0 -10 3 -10 10v317c0 7 -2 10 -8 10
h-141c-6 0 -8 -3 -8 -10v-317c0 -7 -3 -10 -10 -10h-47c-7 0 -10 3 -10 10v317c0 7 -2 10 -8 10h-22c-6 0 -8 3 -8 10v38c0 7 2 10 8 10h22c6 0 8 3 8 10v61c0 97 67 174 150 174c60 0 86 -23 114 -57c2 -2 3 -4 5 -4s3 2 6 4c32 33 68 46 105 46h127c6 0 9 -3 9 -10v-609z
M302 516c0 6 -6 16 -13 26c-19 27 -41 40 -66 40c-48 0 -86 -46 -86 -106v-71c0 -7 2 -10 8 -10h141c6 0 8 3 8 10v61c0 33 8 44 8 50z" />
    <glyph glyph-name="ff" unicode="ff" horiz-adv-x="459" 
d="M479 628l-10 -40c-1 -4 -5 -7 -8 -7s-8 1 -14 1c-47 0 -85 -46 -85 -106v-71c0 -7 2 -10 8 -10h59c6 0 8 -3 8 -10v-38c0 -7 -2 -10 -8 -10h-59c-6 0 -8 -3 -8 -10v-317c0 -7 -3 -10 -10 -10h-48c-7 0 -10 3 -10 10v317c0 7 -2 10 -8 10h-141c-6 0 -8 -3 -8 -10v-317
c0 -7 -3 -10 -10 -10h-47c-7 0 -10 3 -10 10v317c0 7 -2 10 -8 10h-22c-6 0 -8 3 -8 10v38c0 7 2 10 8 10h22c6 0 8 3 8 10v61c0 97 66 174 148 174c54 0 81 -20 108 -52c2 -2 4 -3 6 -3s3 2 6 4c32 35 68 51 107 51c9 0 18 -1 26 -2c6 -1 8 -5 8 -10zM302 516
c0 6 -6 16 -13 26c-19 27 -41 40 -66 40c-48 0 -86 -46 -86 -106v-71c0 -7 2 -10 8 -10h141c6 0 8 3 8 10v61c0 33 8 44 8 50z" />
    <glyph glyph-name="fi.sc" unicode="&#xf766;&#xf769;" horiz-adv-x="562" 
d="M489 7c0 -5 -3 -7 -8 -7h-50c-5 0 -8 2 -8 7v456c0 5 3 7 8 7h50c5 0 8 -2 8 -7v-456zM315 424c0 -5 -2 -7 -6 -7h-163c-5 0 -6 -3 -6 -9v-135c0 -5 1 -7 6 -7h136c4 0 5 -2 5 -7v-39c0 -6 -1 -8 -5 -8h-136c-5 0 -6 -3 -6 -8v-197c0 -5 -3 -7 -8 -7h-50c-5 0 -8 2 -8 7
v456c0 5 3 7 8 7h227c4 0 6 -2 6 -7v-39z" />
    <glyph glyph-name="fl.sc" unicode="&#xf766;&#xf76c;" horiz-adv-x="682" 
d="M665 7c0 -5 -3 -7 -7 -7h-227c-5 0 -8 2 -8 7v456c0 5 3 7 8 7h50c5 0 8 -2 8 -7v-401c0 -6 1 -8 6 -8h163c4 0 7 -3 7 -8v-39zM315 424c0 -5 -2 -7 -6 -7h-163c-5 0 -6 -3 -6 -9v-135c0 -5 1 -7 6 -7h136c4 0 5 -2 5 -7v-39c0 -6 -1 -8 -5 -8h-136c-5 0 -6 -3 -6 -8
v-197c0 -5 -3 -7 -8 -7h-50c-5 0 -8 2 -8 7v456c0 5 3 7 8 7h227c4 0 6 -2 6 -7v-39z" />
    <glyph glyph-name="ffi.sc" unicode="&#xf766;&#xf766;&#xf769;" horiz-adv-x="918" 
d="M845 7c0 -5 -3 -7 -8 -7h-50c-5 0 -8 2 -8 7v456c0 5 3 7 8 7h50c5 0 8 -2 8 -7v-456zM671 424c0 -5 -2 -7 -6 -7h-163c-5 0 -6 -3 -6 -9v-135c0 -5 1 -7 6 -7h136c4 0 5 -2 5 -7v-39c0 -6 -1 -8 -5 -8h-136c-5 0 -6 -3 -6 -8v-197c0 -5 -3 -7 -8 -7h-50c-5 0 -8 2 -8 7
v456c0 5 3 7 8 7h227c4 0 6 -2 6 -7v-39zM315 424c0 -5 -2 -7 -6 -7h-163c-5 0 -6 -3 -6 -9v-135c0 -5 1 -7 6 -7h136c4 0 5 -2 5 -7v-39c0 -6 -1 -8 -5 -8h-136c-5 0 -6 -3 -6 -8v-197c0 -5 -3 -7 -8 -7h-50c-5 0 -8 2 -8 7v456c0 5 3 7 8 7h227c4 0 6 -2 6 -7v-39z" />
    <glyph glyph-name="ffl.sc" unicode="&#xf766;&#xf766;&#xf76c;" horiz-adv-x="1038" 
d="M1021 7c0 -5 -3 -7 -7 -7h-227c-5 0 -8 2 -8 7v456c0 5 3 7 8 7h50c5 0 8 -2 8 -7v-401c0 -6 1 -8 6 -8h163c4 0 7 -3 7 -8v-39zM671 424c0 -5 -2 -7 -6 -7h-163c-5 0 -6 -3 -6 -9v-135c0 -5 1 -7 6 -7h136c4 0 5 -2 5 -7v-39c0 -6 -1 -8 -5 -8h-136c-5 0 -6 -3 -6 -8
v-197c0 -5 -3 -7 -8 -7h-50c-5 0 -8 2 -8 7v456c0 5 3 7 8 7h227c4 0 6 -2 6 -7v-39zM315 424c0 -5 -2 -7 -6 -7h-163c-5 0 -6 -3 -6 -9v-135c0 -5 1 -7 6 -7h136c4 0 5 -2 5 -7v-39c0 -6 -1 -8 -5 -8h-136c-5 0 -6 -3 -6 -8v-197c0 -5 -3 -7 -8 -7h-50c-5 0 -8 2 -8 7v456
c0 5 3 7 8 7h227c4 0 6 -2 6 -7v-39z" />
    <glyph glyph-name="ff.sc" unicode="&#xf766;&#xf766;" horiz-adv-x="705" 
d="M672 424c0 -5 -3 -7 -7 -7h-163c-5 0 -6 -3 -6 -9v-135c0 -5 1 -7 6 -7h136c4 0 6 -2 6 -7v-39c0 -6 -2 -8 -6 -8h-136c-5 0 -6 -3 -6 -8v-197c0 -5 -3 -7 -8 -7h-50c-5 0 -8 2 -8 7v456c0 5 3 7 8 7h227c4 0 7 -2 7 -7v-39zM315 424c0 -5 -2 -7 -6 -7h-163
c-5 0 -6 -3 -6 -9v-135c0 -5 1 -7 6 -7h136c4 0 5 -2 5 -7v-39c0 -6 -1 -8 -5 -8h-136c-5 0 -6 -3 -6 -8v-197c0 -5 -3 -7 -8 -7h-50c-5 0 -8 2 -8 7v456c0 5 3 7 8 7h227c4 0 6 -2 6 -7v-39z" />
    <glyph glyph-name=".notdef" horiz-adv-x="174" 
 />
    <glyph glyph-name="space" unicode=" " horiz-adv-x="174" 
 />
    <glyph glyph-name="breve" unicode="&#x2d8;" horiz-adv-x="412" 
d="M299 572c0 -45 -30 -76 -75 -76h-39c-45 0 -73 30 -73 76v40c0 7 3 10 10 10h10c7 0 10 -3 10 -10v-21c0 -27 19 -50 44 -50h37c25 0 45 23 45 50v21c0 7 3 10 10 10h11c7 0 10 -3 10 -10v-40z" />
    <glyph glyph-name="dotaccent" unicode="&#x2d9;" horiz-adv-x="419" 
d="M260 543c0 -27 -21 -45 -50 -45c-30 0 -49 18 -49 45v31c0 27 18 44 49 44c29 0 50 -17 50 -44v-31z" />
    <glyph glyph-name="ring" unicode="&#x2da;" horiz-adv-x="375" 
d="M277 572c0 -45 -29 -76 -71 -76c-43 0 -70 31 -70 76v32c0 45 27 75 70 75c42 0 71 -30 71 -75v-32zM247 573v30c0 28 -17 45 -41 45s-40 -17 -40 -45v-30c0 -28 16 -46 40 -46s41 18 41 46z" />
    <glyph glyph-name="hungarumlaut" unicode="&#x2dd;" horiz-adv-x="399" 
d="M305 614c0 -3 -4 -10 -6 -15l-49 -98c-2 -3 -4 -5 -6 -5h-5c-6 0 -8 3 -8 8c0 3 2 9 3 13l27 98c1 4 5 7 8 7h28c6 0 8 -3 8 -8zM223 614c0 -3 -3 -10 -5 -15l-49 -98c-2 -3 -5 -5 -7 -5h-4c-6 0 -8 3 -8 8c0 3 2 9 3 13l27 98c1 4 4 7 7 7h28c6 0 8 -3 8 -8z" />
    <glyph glyph-name="ogonek" unicode="&#x2db;" horiz-adv-x="408" 
d="M283 -221c0 -7 -2 -10 -7 -10h-3c-55 15 -91 65 -91 125v127c0 7 3 10 10 10h25c7 0 10 -3 10 -10v-134c0 -39 18 -70 50 -81c4 -1 6 -5 6 -10v-17z" />
    <glyph glyph-name="caron" unicode="&#x2c7;" horiz-adv-x="442" 
d="M329 614c0 -2 -1 -5 -3 -8l-81 -106c-2 -2 -5 -4 -8 -4h-31c-3 0 -6 2 -8 4l-80 106c-2 3 -3 6 -3 8c0 5 4 8 11 8h35c3 0 6 -2 8 -4l46 -60c3 -3 5 -5 8 -5s6 2 8 5l43 60c2 2 5 4 8 4h36c7 0 11 -3 11 -8z" />
    <glyph glyph-name="dotlessi" unicode="&#x131;" horiz-adv-x="180" 
d="M125 10c0 -7 -3 -10 -10 -10h-48c-7 0 -10 3 -10 10v422c0 7 3 10 10 10h48c7 0 10 -3 10 -10v-422z" />
    <glyph glyph-name="fraction" unicode="&#x2044;" horiz-adv-x="182" 
d="M245 622c0 -5 -7 -20 -20 -51l-242 -565c-2 -4 -5 -6 -9 -6h-24c-7 0 -11 3 -11 8s10 24 19 45l244 571c2 4 5 6 9 6h24c7 0 10 -3 10 -8z" />
    <glyph glyph-name="Lslash" unicode="&#x141;" horiz-adv-x="376" 
d="M358 10c0 -7 -2 -10 -8 -10h-274c-7 0 -10 3 -10 10v218c0 7 -2 10 -4 10s-3 -1 -5 -3l-18 -23c-2 -2 -4 -3 -6 -3s-4 1 -6 3l-20 25c-2 2 -2 4 -2 7s0 5 2 7l49 60c8 9 10 18 10 34v274c0 7 3 10 10 10h47c7 0 10 -3 10 -10v-212c0 -6 2 -8 4 -8s4 1 6 4l22 27
c2 2 3 3 5 3s4 -1 6 -3l19 -24c2 -2 3 -5 3 -8s-1 -5 -3 -7l-53 -67c-6 -8 -9 -16 -9 -30v-227c0 -7 2 -10 8 -10h209c6 0 8 -3 8 -10v-37z" />
    <glyph glyph-name="lslash" unicode="&#x142;" horiz-adv-x="180" 
d="M187 398c0 -3 0 -5 -2 -7l-52 -65c-6 -8 -9 -16 -9 -30v-286c0 -7 -3 -10 -10 -10h-48c-7 0 -10 3 -10 10v220c0 7 -2 10 -4 10s-2 -1 -4 -3l-20 -25c-2 -2 -4 -3 -6 -3s-3 1 -5 3l-20 25c-2 2 -3 4 -3 7s1 5 3 7l50 62c8 9 9 18 9 34v272c0 7 3 10 10 10h48
c7 0 10 -3 10 -10v-210c0 -6 2 -8 4 -8s5 1 7 4l20 25c2 2 3 3 5 3s4 -1 6 -3l19 -24c2 -2 2 -5 2 -8z" />
    <glyph glyph-name="Zcaron" unicode="&#x17d;" horiz-adv-x="349" 
d="M245 784c0 -1 0 -2 -1 -4l-52 -90c-2 -4 -5 -5 -9 -5h-38c-4 0 -7 1 -9 5l-52 90c-1 2 -2 3 -2 4c0 3 3 5 6 5h34c4 0 6 -2 8 -6l29 -55c2 -3 3 -4 5 -4s3 2 5 4l28 55c2 4 5 6 9 6h34c3 0 5 -2 5 -5zM315 10c0 -7 -2 -10 -8 -10h-270c-6 0 -8 3 -8 8s5 19 10 33l177 497
c3 10 8 22 8 26c0 5 -2 8 -8 8h-172c-6 0 -8 3 -8 10v37c0 7 2 10 8 10h252c6 0 8 -3 8 -8c0 -4 -3 -12 -8 -26l-177 -493c-6 -17 -12 -33 -12 -37c0 -5 2 -8 8 -8h192c6 0 8 -3 8 -10v-37z" />
    <glyph glyph-name="zcaron" unicode="&#x17e;" horiz-adv-x="342" 
d="M244 614c0 -2 0 -5 -2 -8l-65 -105c-2 -2 -4 -4 -6 -4h-25c-2 0 -5 2 -7 4l-64 105c-2 3 -2 6 -2 8c0 5 3 8 9 8h28c2 0 4 -2 6 -4l37 -60c2 -3 4 -5 6 -5s5 2 7 5l34 60c2 2 5 4 7 4h28c6 0 9 -3 9 -8zM310 10c0 -7 -2 -10 -8 -10h-258c-6 0 -9 3 -9 8c0 4 4 13 7 19
l159 342c2 3 2 5 2 7c0 5 -3 8 -9 8h-154c-6 0 -8 3 -8 10v37c0 7 2 10 8 10h243c6 0 9 -3 9 -8c0 -3 -4 -10 -8 -19l-160 -342c-2 -3 -1 -5 -1 -7c0 -5 2 -8 8 -8h171c6 0 8 -3 8 -10v-37z" />
    <glyph glyph-name="exclam" unicode="!" horiz-adv-x="252" 
d="M161 366l-21 -170c-1 -6 -4 -9 -10 -9h-5c-6 0 -9 3 -10 9l-22 169v254c0 7 3 10 10 10h48c7 0 10 -3 10 -10v-253zM177 34c0 -28 -22 -49 -50 -49c-26 0 -49 23 -49 49s23 49 49 49c28 0 50 -21 50 -49z" />
    <glyph glyph-name="quotedbl" unicode="&#x22;" horiz-adv-x="255" 
d="M223 623l-19 -151c-1 -6 -4 -9 -10 -9h-14c-6 0 -9 3 -10 9l-21 151c0 7 3 11 10 11h54c7 0 10 -4 10 -11zM108 623l-19 -151c-1 -6 -4 -9 -10 -9h-15c-6 0 -9 3 -10 9l-21 151c0 7 3 11 10 11h55c7 0 10 -4 10 -11z" />
    <glyph glyph-name="numbersign" unicode="#" horiz-adv-x="470" 
d="M435 436l-9 -41c-2 -7 -4 -10 -10 -10h-47c-4 0 -7 -1 -8 -6l-30 -126c0 -5 3 -9 9 -9h50c4 0 6 -2 6 -6l-9 -42c-2 -7 -4 -10 -10 -10h-55c-4 0 -7 -1 -8 -6l-41 -173c-1 -5 -5 -7 -10 -7h-33c-7 0 -10 4 -10 9l39 169c0 5 -2 8 -8 8h-98c-4 0 -7 -1 -8 -6l-40 -173
c-1 -5 -5 -7 -10 -7h-33c-7 0 -11 4 -11 9l40 169c0 5 -3 8 -9 8h-40c-4 0 -7 2 -7 6l9 42c2 7 4 10 10 10h46c4 0 7 3 8 8l29 125c0 5 -3 8 -9 8h-47c-4 0 -7 2 -7 6l9 41c2 7 5 10 11 10h52c4 0 7 3 8 8l41 173c1 5 5 7 10 7h32c7 0 11 -4 11 -9l-39 -170c0 -5 2 -9 8 -9
h98c4 0 7 3 8 8l41 173c1 5 5 7 10 7h33c7 0 10 -4 10 -9l-40 -170c0 -5 3 -9 9 -9h43c4 0 6 -2 6 -6zM306 377c0 5 -3 8 -9 8h-97c-4 0 -7 -1 -8 -6l-30 -126c0 -5 3 -9 9 -9h98c4 0 7 3 8 8z" />
    <glyph glyph-name="dollar" unicode="$" horiz-adv-x="443" 
d="M393 154c0 -87 -51 -150 -137 -163c-5 -1 -7 -4 -7 -10v-33c0 -7 -3 -10 -10 -10h-27c-7 0 -10 3 -10 10v32c0 7 -3 10 -8 10c-59 0 -93 22 -117 54c-9 12 -18 28 -18 33c0 4 1 7 5 9l34 19c3 1 5 3 7 3c3 0 5 -2 7 -5c21 -36 52 -56 82 -56c6 0 8 3 8 10v228
c0 4 -1 7 -5 9c-69 36 -132 77 -132 182c0 85 46 147 130 163c4 1 7 5 7 10v33c0 7 3 10 10 10h27c7 0 10 -3 10 -10v-32c0 -6 2 -9 7 -10c48 -7 78 -28 99 -55c9 -11 18 -27 18 -31s-3 -7 -6 -9l-33 -19c-3 -2 -5 -3 -8 -3s-4 1 -6 4c-13 20 -27 34 -44 44
c-6 4 -16 8 -20 8s-7 -4 -7 -11v-210c0 -4 2 -7 6 -9c71 -36 138 -80 138 -195zM202 390v176c0 7 -2 11 -7 11s-15 -7 -20 -10c-29 -20 -43 -54 -43 -91c0 -33 13 -58 42 -83c6 -5 18 -14 22 -14s6 4 6 11zM325 154c0 41 -16 68 -46 93c-5 4 -18 16 -23 16
c-4 0 -7 -4 -7 -11v-190c0 -7 2 -11 6 -11s15 5 21 9c30 18 49 54 49 94z" />
    <glyph glyph-name="percent" unicode="%" horiz-adv-x="432" 
d="M198 444c0 -50 -32 -85 -82 -85s-82 35 -82 85v101c0 50 32 85 82 85s82 -35 82 -85v-101zM349 622c0 0 -151 -411 -227 -616c-2 -4 -5 -6 -8 -6h-21c-6 0 -10 3 -10 8l228 616c2 4 5 6 8 6h21c6 0 9 -3 9 -8zM398 85c0 -50 -32 -85 -82 -85s-82 35 -82 85v100
c0 50 32 85 82 85s82 -35 82 -85v-100zM148 445v100c0 21 -15 40 -32 40s-32 -19 -32 -40v-100c0 -21 15 -40 32 -40s32 19 32 40zM348 85v99c0 21 -15 40 -32 40s-32 -19 -32 -40v-99c0 -21 15 -40 32 -40s32 19 32 40z" />
    <glyph glyph-name="ampersand" unicode="&#x26;" horiz-adv-x="526" 
d="M508 1c0 -6 -2 -10 -7 -10h-2c-51 9 -88 37 -124 80c-2 2 -4 3 -6 3c-3 0 -4 -2 -6 -5c-28 -49 -65 -79 -132 -79h-27c-92 0 -151 66 -151 172v26c0 40 28 96 76 119c5 2 6 5 6 8s0 6 -4 9c-52 44 -79 82 -79 140c0 107 57 176 153 176c93 0 153 -68 153 -174v-21
c0 -38 -25 -97 -96 -125c-6 -2 -8 -5 -8 -9c0 -3 1 -6 5 -9c29 -23 45 -42 83 -87c3 -3 5 -5 8 -5c4 0 5 3 7 9c21 88 70 129 137 129h6c6 0 8 -3 8 -10v-48c0 -7 -2 -10 -8 -10h-12c-48 0 -72 -50 -85 -106l-4 -17c-2 -6 0 -10 3 -14c36 -45 67 -71 100 -83
c4 -1 6 -5 6 -10v-49zM291 456v20c0 60 -39 106 -85 106c-48 0 -85 -46 -85 -106c0 -54 32 -91 73 -126c3 -3 6 -4 9 -4c28 0 88 38 88 110zM324 129c0 5 -8 14 -12 20c-25 36 -47 65 -69 86c-15 14 -31 25 -48 38c-7 5 -13 11 -17 11c-3 0 -13 -8 -20 -14
c-23 -21 -37 -51 -37 -86v-30c0 -58 37 -107 87 -107h26c28 0 59 20 79 56c2 4 11 21 11 26z" />
    <glyph glyph-name="quotesingle" unicode="'" horiz-adv-x="140" 
d="M108 623l-19 -151c-1 -6 -4 -9 -10 -9h-15c-6 0 -9 3 -10 9l-21 151c0 7 3 11 10 11h55c7 0 10 -4 10 -11z" />
    <glyph glyph-name="parenleft" unicode="(" horiz-adv-x="322" 
d="M246 -177c0 -7 -3 -10 -7 -10c-9 0 -31 7 -49 18c-54 29 -86 85 -86 156v573c0 72 31 127 87 155c18 10 40 17 48 17c4 0 7 -3 7 -10v-40c0 -5 -2 -9 -6 -10c-42 -11 -68 -53 -68 -103v-592c0 -50 26 -92 68 -104c4 -1 6 -5 6 -10v-40z" />
    <glyph glyph-name="parenright" unicode=")" horiz-adv-x="322" 
d="M220 -13c0 -71 -32 -127 -86 -156c-18 -11 -40 -18 -49 -18c-4 0 -7 3 -7 10v40c0 5 2 9 6 10c42 12 68 54 68 104v592c0 50 -26 92 -68 103c-4 1 -6 5 -6 10v40c0 7 3 10 7 10c8 0 30 -7 48 -17c56 -28 87 -83 87 -155v-573z" />
    <glyph glyph-name="asterisk" unicode="*" horiz-adv-x="323" 
d="M299 466c0 -2 0 -4 -1 -6l-16 -32c-2 -4 -4 -6 -7 -6c-2 0 -4 1 -6 3l-78 65c-3 2 -5 3 -7 3c-4 0 -7 -4 -7 -10l14 -118c0 -6 -4 -9 -10 -9h-39c-6 0 -10 3 -10 9l14 118c0 6 -2 10 -6 10c-2 0 -5 -1 -7 -3l-76 -65c-2 -2 -4 -3 -6 -3s-4 2 -6 6l-16 33c-1 2 -2 4 -2 6
c0 3 2 6 6 8l82 44c4 2 6 6 6 9s-2 7 -6 9l-82 47c-4 2 -6 5 -6 8c0 2 1 4 2 6l16 32c2 4 4 6 6 6s4 -1 6 -3l74 -67c2 -2 5 -3 7 -3c4 0 6 4 6 10l-12 116c0 6 4 9 10 9h38c6 0 10 -3 10 -9l-13 -116c0 -6 3 -10 7 -10c2 0 4 1 7 3l78 67c2 2 4 3 6 3c3 0 5 -2 7 -6l16 -32
c1 -2 1 -4 1 -6c0 -3 -1 -6 -5 -8l-86 -47c-4 -2 -6 -6 -6 -9s2 -7 6 -9l86 -45c4 -2 5 -5 5 -8z" />
    <glyph glyph-name="plus" unicode="+" horiz-adv-x="417" 
d="M382 223c0 -7 -2 -10 -8 -10h-134c-6 0 -8 -3 -8 -10v-167c0 -7 -3 -10 -10 -10h-26c-7 0 -10 3 -10 10v167c0 7 -2 10 -8 10h-134c-6 0 -8 3 -8 10v27c0 7 2 10 8 10h134c6 0 8 3 8 10v167c0 7 3 10 10 10h26c7 0 10 -3 10 -10v-167c0 -7 2 -10 8 -10h134
c6 0 8 -3 8 -10v-27z" />
    <glyph glyph-name="comma" unicode="," horiz-adv-x="186" 
d="M143 25c0 -75 -26 -118 -62 -147c-10 -8 -20 -14 -24 -14c-3 0 -6 2 -8 5l-9 16c-1 2 -2 5 -2 7s0 4 2 6c23 20 39 47 39 103c0 6 -3 10 -10 10h-14c-7 0 -10 3 -10 10v60c0 7 3 10 10 10h78c7 0 10 -3 10 -10v-56z" />
    <glyph glyph-name="hyphen" unicode="-" horiz-adv-x="241" 
d="M202 196c0 -7 -3 -10 -10 -10h-142c-7 0 -10 3 -10 10v48c0 7 3 10 10 10h142c7 0 10 -3 10 -10v-48z" />
    <glyph glyph-name="period" unicode="." horiz-adv-x="186" 
d="M143 33c0 -28 -22 -49 -50 -49c-26 0 -48 23 -48 49s22 49 48 49c28 0 50 -21 50 -49z" />
    <glyph glyph-name="slash" unicode="/" horiz-adv-x="307" 
d="M311 622c0 -5 -7 -20 -20 -51l-242 -565c-2 -4 -5 -6 -9 -6h-34c-7 0 -11 3 -11 8s10 24 19 45l244 571c2 4 5 6 9 6h34c7 0 10 -3 10 -8z" />
    <glyph glyph-name="zero" unicode="0" horiz-adv-x="435" 
d="M383 154c0 -97 -60 -164 -152 -164h-27c-92 0 -152 67 -152 164v322c0 97 60 164 152 164h27c92 0 152 -67 152 -164v-322zM315 154v322c0 60 -40 106 -86 106h-24c-48 0 -85 -46 -85 -106v-322c0 -58 37 -107 85 -107h24c46 0 86 49 86 107z" />
    <glyph glyph-name="one" unicode="1" horiz-adv-x="421" 
d="M360 10c0 -7 -2 -10 -8 -10h-251c-6 0 -8 3 -8 10v37c0 7 2 10 8 10h84c6 0 8 3 8 10v423c0 7 -3 11 -7 11c-2 0 -5 -1 -7 -4l-53 -66c-2 -3 -3 -4 -5 -4s-4 1 -6 4l-20 28c-2 2 -2 5 -2 7s0 5 2 7l133 153c1 1 5 3 7 3h16c6 0 9 -3 9 -10v-552c0 -7 2 -10 8 -10h84
c6 0 8 -3 8 -10v-37z" />
    <glyph glyph-name="two" unicode="2" horiz-adv-x="435" 
d="M379 476c0 -116 -74 -162 -137 -207c-58 -41 -108 -82 -108 -161v-41c0 -7 2 -10 8 -10h218c7 0 10 -3 10 -10v-37c0 -7 -3 -10 -10 -10h-284c-7 0 -10 3 -10 10v98c0 117 64 171 126 216s119 82 119 152c0 60 -42 106 -91 106h-34c-29 0 -59 -20 -78 -54
c-2 -3 -4 -5 -7 -5s-6 2 -9 4l-30 18c-3 2 -5 5 -5 9s7 20 16 32c23 32 60 54 118 54h35c93 0 153 -67 153 -164z" />
    <glyph glyph-name="three" unicode="3" horiz-adv-x="421" 
d="M357 162c0 -106 -57 -172 -146 -172h-26c-55 0 -88 21 -111 53c-9 13 -18 29 -18 34c0 4 2 7 5 9l30 19c2 2 5 3 7 3s4 -2 6 -5c19 -36 47 -56 75 -56h25c46 0 85 49 85 107v35c0 58 -39 106 -85 106h-56c-6 0 -8 3 -8 10v38c0 7 2 10 8 10h56c48 0 85 48 85 108v15
c0 60 -39 106 -85 106h-25c-27 0 -56 -19 -75 -55c-2 -3 -4 -5 -6 -5s-6 1 -8 3l-30 20c-3 2 -5 5 -5 8c0 5 10 23 18 34c23 32 56 53 112 53h26c89 0 146 -68 146 -174v-16c0 -63 -48 -111 -89 -123v-5c33 -11 89 -60 89 -129v-31z" />
    <glyph glyph-name="four" unicode="4" horiz-adv-x="421" 
d="M395 160c0 -7 -2 -10 -8 -10h-59c-6 0 -8 -3 -8 -10v-130c0 -7 -3 -10 -10 -10h-47c-7 0 -10 3 -10 10v130c0 7 -2 10 -8 10h-209c-6 0 -8 3 -8 9l2 59l225 407c2 2 3 4 6 4h51c6 0 8 -3 8 -10v-401c0 -7 2 -10 8 -10h59c6 0 8 -3 8 -10v-38zM253 218v295
c0 7 -3 12 -7 12c-2 0 -5 -2 -7 -6l-157 -295c-2 -3 -3 -6 -3 -8c0 -5 3 -8 9 -8h157c6 0 8 3 8 10z" />
    <glyph glyph-name="five" unicode="5" 
d="M384 162c0 -106 -61 -172 -153 -172h-27c-54 0 -87 18 -111 46c-11 14 -24 35 -24 41c0 3 2 6 5 8l30 19c3 2 6 4 9 4s5 -2 7 -5c20 -36 50 -56 79 -56h27c49 0 90 49 90 107v35c0 58 -42 106 -91 106h-130c-6 0 -8 3 -8 10v314c0 7 3 10 10 10h266c7 0 10 -3 10 -10v-37
c0 -7 -3 -10 -10 -10h-201c-6 0 -8 -3 -8 -10v-199c0 -7 2 -10 8 -10h73c90 0 149 -65 149 -171v-20z" />
    <glyph glyph-name="six" unicode="6" 
d="M389 154c0 -97 -60 -164 -152 -164h-26c-92 0 -151 67 -151 164v322c0 97 57 164 149 164h26c56 0 91 -21 114 -51c11 -15 21 -30 21 -35c0 -4 -3 -7 -6 -9l-28 -17c-3 -2 -8 -5 -10 -5s-5 2 -7 5c-19 34 -46 54 -79 54h-25c-49 0 -88 -46 -88 -106v-168
c0 -7 4 -11 8 -11c3 0 4 1 7 5c29 45 62 57 84 57h25c77 0 138 -67 138 -163v-42zM321 154v41c0 58 -39 106 -85 106h-24c-47 0 -85 -47 -85 -106v-41c0 -58 39 -107 85 -107h24c46 0 85 49 85 107z" />
    <glyph glyph-name="seven" unicode="7" horiz-adv-x="435" 
d="M374 522c0 -127 -71 -180 -130 -226c-51 -40 -92 -78 -92 -142v-144c0 -7 -3 -10 -10 -10h-48c-7 0 -10 3 -10 10v144c0 107 54 155 108 197c57 45 114 86 114 171v40c0 7 -2 10 -8 10h-223c-6 0 -8 3 -8 10v37c0 7 2 10 8 10h289c7 0 10 -3 10 -10v-97z" />
    <glyph glyph-name="eight" unicode="8" 
d="M384 162c0 -106 -61 -172 -153 -172h-27c-92 0 -151 66 -151 172v26c0 64 43 109 92 127v6c-34 10 -92 53 -92 124v21c0 106 59 174 151 174h27c92 0 153 -68 153 -174v-21c0 -63 -50 -111 -90 -123v-5c33 -11 90 -60 90 -129v-26zM316 456v20c0 60 -40 106 -86 106h-24
c-48 0 -85 -46 -85 -106v-20c0 -60 37 -108 85 -108h24c48 0 86 48 86 108zM316 154v30c0 58 -40 106 -86 106h-24c-48 0 -85 -47 -85 -106v-30c0 -58 37 -107 85 -107h24c46 0 86 49 86 107z" />
    <glyph glyph-name="nine" unicode="9" 
d="M375 154c0 -97 -60 -164 -152 -164h-25c-59 0 -94 22 -117 55c-10 14 -16 28 -16 32s2 7 5 9l31 19c2 2 6 3 8 3s4 -2 6 -5c18 -36 45 -56 78 -56h25c48 0 89 49 89 107v132c0 7 -4 11 -8 11c-3 0 -5 -1 -8 -5c-29 -46 -62 -59 -83 -59h-25c-77 0 -137 68 -137 164v79
c0 97 58 164 150 164h26c92 0 153 -67 153 -164v-322zM307 398v78c0 60 -40 106 -86 106h-24c-47 0 -84 -46 -84 -106v-78c0 -58 38 -107 84 -107h24c46 0 86 49 86 107z" />
    <glyph glyph-name="colon" unicode=":" horiz-adv-x="186" 
d="M143 315c0 -27 -23 -51 -50 -51c-26 0 -48 25 -48 51s22 49 48 49c28 0 50 -21 50 -49zM143 34c0 -28 -22 -50 -50 -50c-26 0 -48 24 -48 50s22 49 48 49c28 0 50 -21 50 -49z" />
    <glyph glyph-name="semicolon" unicode=";" horiz-adv-x="186" 
d="M143 315c0 -27 -23 -51 -50 -51c-26 0 -48 25 -48 51s22 49 48 49c28 0 50 -21 50 -49zM143 25c0 -75 -26 -118 -62 -147c-10 -8 -20 -14 -24 -14c-3 0 -6 2 -8 5l-9 16c-1 2 -2 5 -2 7s0 4 2 6c23 20 39 47 39 103c0 6 -3 10 -10 10h-14c-7 0 -10 3 -10 10v60
c0 7 3 10 10 10h78c7 0 10 -3 10 -10v-56z" />
    <glyph glyph-name="less" unicode="&#x3c;" horiz-adv-x="417" 
d="M341 423c0 -3 -2 -6 -5 -8l-231 -166c-3 -3 -5 -6 -5 -9s2 -6 5 -9l231 -167c3 -2 4 -5 4 -8c0 -2 0 -5 -2 -7l-11 -21c-2 -3 -5 -5 -7 -5s-2 1 -4 2l-258 179c-2 2 -4 6 -4 9v51c0 3 2 7 4 9l259 181c2 1 3 2 5 2s4 -2 6 -6l11 -21c1 -2 2 -4 2 -6z" />
    <glyph glyph-name="equal" unicode="=" horiz-adv-x="408" 
d="M373 316c0 -7 -2 -10 -8 -10h-321c-6 0 -8 3 -8 10v27c0 7 2 10 8 10h321c6 0 8 -3 8 -10v-27zM373 129c0 -7 -2 -10 -8 -10h-321c-6 0 -8 3 -8 10v27c0 7 2 10 8 10h321c6 0 8 -3 8 -10v-27z" />
    <glyph glyph-name="greater" unicode="&#x3e;" horiz-adv-x="417" 
d="M364 214c0 -3 -2 -7 -4 -9l-258 -180c-2 -1 -3 -2 -5 -2s-4 2 -6 6l-11 21c-1 2 -2 4 -2 6c0 3 2 6 5 8l230 167c3 3 5 6 5 9s-2 6 -5 9l-230 166c-3 2 -5 5 -5 8c0 2 1 4 2 6l11 21c2 4 4 6 6 6s3 -1 5 -2l258 -182c2 -2 4 -6 4 -9v-49z" />
    <glyph glyph-name="question" unicode="?" horiz-adv-x="441" 
d="M387 476c0 -110 -60 -135 -107 -160c-41 -22 -73 -42 -73 -98c0 -7 1 -16 1 -22s-4 -9 -10 -9h-48c-6 0 -10 3 -10 9c-1 17 -1 28 -1 37c0 87 56 109 103 135c41 23 78 48 78 108s-43 106 -93 106h-35c-29 0 -60 -19 -81 -55c-2 -3 -4 -5 -7 -5s-4 1 -6 2l-35 21
c-3 2 -5 5 -5 8c0 4 9 22 19 35c24 31 60 52 119 52h35c95 0 156 -67 156 -164zM240 34c0 -28 -22 -49 -50 -49c-26 0 -49 23 -49 49s23 49 49 49c28 0 50 -21 50 -49z" />
    <glyph glyph-name="at" unicode="@" horiz-adv-x="604" 
d="M542 245c0 -51 -32 -88 -82 -88h-10c-27 0 -50 13 -64 31c-4 6 -10 6 -15 1c-18 -18 -49 -32 -67 -32c-67 0 -110 48 -110 119v83c0 70 42 117 107 117c16 0 36 -9 51 -20c7 -5 13 -3 13 7v4c0 6 3 9 10 9h31c7 0 10 -3 10 -10v-215c0 -24 14 -41 33 -41h8
c18 0 33 19 33 41v207c0 71 -42 120 -109 120h-151c-67 0 -110 -49 -110 -120v-286c0 -71 44 -120 112 -120h221c6 0 8 -3 8 -10v-32c0 -7 -2 -10 -8 -10h-221c-100 0 -164 71 -164 172v286c0 101 62 172 159 172h156c97 0 159 -71 159 -172v-213zM365 284v66
c0 41 -27 73 -60 73c-32 0 -59 -33 -59 -73v-66c0 -41 25 -74 59 -74c32 0 60 33 60 74z" />
    <glyph glyph-name="A" unicode="A" horiz-adv-x="381" 
d="M374 8c0 -5 -3 -8 -8 -8h-39c-4 0 -7 2 -8 7l-33 137c-1 5 -4 6 -8 6h-158c-4 0 -8 -1 -9 -6l-33 -137c-1 -5 -5 -7 -10 -7h-50c-7 0 -11 3 -11 8s4 16 6 25l143 589c1 5 6 7 12 7h45c6 0 11 -2 12 -7l142 -583c4 -15 7 -27 7 -31zM268 217l-63 261c-1 5 -8 31 -10 39h7
c-2 -8 -7 -33 -9 -39l-64 -261c0 -5 3 -9 9 -9h121c6 0 9 4 9 9z" />
    <glyph glyph-name="B" unicode="B" horiz-adv-x="443" 
d="M396 173c0 -106 -61 -173 -153 -173h-169c-6 0 -8 3 -8 10v609c0 7 2 10 8 10h169c92 0 153 -67 153 -173v-11c0 -38 -31 -95 -72 -116c-5 -3 -7 -6 -7 -10c0 -3 1 -6 5 -8c36 -18 74 -65 74 -123v-15zM329 456v10c0 58 -39 106 -87 106h-101c-6 0 -8 -3 -8 -10v-204
c0 -7 2 -10 8 -10h101c48 0 87 48 87 108zM329 164v20c0 58 -39 106 -87 106h-101c-6 0 -8 -3 -8 -10v-213c0 -7 2 -10 8 -10h101c48 0 87 47 87 107z" />
    <glyph glyph-name="C" unicode="C" horiz-adv-x="384" 
d="M355 77c0 -4 -9 -21 -19 -34c-23 -31 -57 -53 -112 -53h-26c-89 0 -145 67 -145 164v322c0 97 56 164 145 164h26c55 0 89 -22 112 -53c8 -11 19 -29 19 -33s-3 -7 -6 -9l-30 -19c-2 -2 -5 -3 -7 -3s-4 1 -6 4c-20 34 -50 55 -76 55h-25c-48 0 -84 -46 -84 -106v-322
c0 -58 36 -107 84 -107h25c27 0 57 22 76 57c2 3 4 4 6 4s5 -1 7 -3l30 -19c3 -2 6 -5 6 -9z" />
    <glyph glyph-name="D" unicode="D" horiz-adv-x="447" 
d="M396 175c0 -107 -61 -175 -153 -175h-169c-6 0 -8 3 -8 10v609c0 7 2 10 8 10h169c92 0 153 -67 153 -173v-281zM329 164v302c0 58 -39 106 -87 106h-101c-6 0 -8 -3 -8 -10v-495c0 -7 2 -10 8 -10h101c48 0 87 47 87 107z" />
    <glyph glyph-name="E" unicode="E" horiz-adv-x="396" 
d="M358 10c0 -7 -2 -10 -8 -10h-274c-7 0 -10 3 -10 10v609c0 7 3 10 10 10h274c6 0 8 -3 8 -10v-37c0 -7 -2 -10 -8 -10h-209c-6 0 -8 -3 -8 -10v-204c0 -7 2 -10 8 -10h171c6 0 8 -3 8 -10v-38c0 -7 -2 -10 -8 -10h-171c-6 0 -8 -3 -8 -10v-213c0 -7 2 -10 8 -10h209
c6 0 8 -3 8 -10v-37z" />
    <glyph glyph-name="F" unicode="F" horiz-adv-x="375" 
d="M358 582c0 -7 -2 -10 -8 -10h-209c-6 0 -8 -3 -8 -10v-204c0 -7 2 -10 8 -10h171c6 0 8 -3 8 -10v-38c0 -7 -2 -10 -8 -10h-171c-6 0 -8 -3 -8 -10v-270c0 -7 -3 -10 -10 -10h-47c-7 0 -10 3 -10 10v609c0 7 3 10 10 10h274c6 0 8 -3 8 -10v-37z" />
    <glyph glyph-name="G" unicode="G" horiz-adv-x="459" 
d="M409 154c0 -97 -65 -164 -164 -164h-29c-99 0 -163 67 -163 164v322c0 97 64 164 163 164h47c63 0 100 -22 125 -54c9 -12 20 -27 20 -32c0 -4 -3 -7 -7 -9l-33 -18c-4 -2 -7 -4 -10 -4s-4 1 -6 4c-22 36 -57 55 -87 55h-46c-55 0 -98 -46 -98 -106v-322
c0 -58 41 -107 95 -107h28c52 0 97 48 97 106v80c0 7 -3 10 -10 10h-105c-7 0 -10 3 -10 10v39c0 7 3 10 10 10h173c7 0 10 -3 10 -10v-138z" />
    <glyph glyph-name="H" unicode="H" horiz-adv-x="472" 
d="M409 10c0 -7 -3 -10 -10 -10h-48c-7 0 -10 3 -10 10v270c0 7 -2 10 -8 10h-192c-6 0 -8 -3 -8 -10v-270c0 -7 -3 -10 -10 -10h-47c-7 0 -10 3 -10 10v609c0 7 3 10 10 10h47c7 0 10 -3 10 -10v-261c0 -7 2 -10 8 -10h192c6 0 8 3 8 10v261c0 7 3 10 10 10h48
c7 0 10 -3 10 -10v-609z" />
    <glyph glyph-name="I" unicode="I" horiz-adv-x="197" 
d="M133 10c0 -7 -3 -10 -10 -10h-47c-7 0 -10 3 -10 10v609c0 7 3 10 10 10h47c7 0 10 -3 10 -10v-609z" />
    <glyph glyph-name="J" unicode="J" horiz-adv-x="346" 
d="M295 164c0 -95 -66 -174 -147 -174c-41 0 -84 26 -113 61c-10 11 -18 23 -18 28c0 3 2 6 5 8l29 18c3 2 6 4 8 4s5 -2 7 -5c18 -35 48 -57 75 -57c46 0 86 49 86 107v465c0 7 3 10 10 10h48c7 0 10 -3 10 -10v-455z" />
    <glyph glyph-name="K" unicode="K" horiz-adv-x="433" 
d="M419 8c0 -5 -3 -8 -9 -8h-48c-2 0 -5 2 -7 5l-147 299c-2 4 -5 7 -7 7s-4 -2 -6 -5l-62 -98v-198c0 -7 -3 -10 -10 -10h-47c-7 0 -10 3 -10 10v609c0 7 3 10 10 10h47c7 0 10 -3 10 -10v-300c0 -7 3 -12 7 -12c2 0 5 2 7 6l190 312c2 2 5 4 7 4h42c6 0 9 -3 9 -8
c0 -2 -1 -5 -3 -8l-148 -228c-2 -3 -4 -6 -4 -9c0 -4 2 -8 4 -11l168 -340c3 -7 7 -13 7 -17z" />
    <glyph glyph-name="L" unicode="L" horiz-adv-x="375" 
d="M358 10c0 -7 -2 -10 -8 -10h-274c-7 0 -10 3 -10 10v609c0 7 3 10 10 10h47c7 0 10 -3 10 -10v-552c0 -7 2 -10 8 -10h209c6 0 8 -3 8 -10v-37z" />
    <glyph glyph-name="M" unicode="M" horiz-adv-x="548" 
d="M484 10c0 -7 -3 -10 -10 -10h-47c-7 0 -10 3 -10 10v238c0 79 7 208 9 232l-4 1c-2 -8 -18 -63 -21 -71l-111 -310c-2 -4 -5 -6 -8 -6h-16c-3 0 -5 2 -7 6l-110 310c-3 9 -19 63 -21 71l-4 -1c2 -24 9 -153 9 -232v-238c0 -7 -3 -10 -10 -10h-47c-7 0 -10 3 -10 10v609
c0 7 3 10 10 10h46c4 0 7 -2 9 -6l131 -380c2 -7 9 -32 11 -40h3c2 8 10 32 12 39l130 381c2 4 5 6 9 6h47c7 0 10 -3 10 -10v-609z" />
    <glyph glyph-name="N" unicode="N" horiz-adv-x="472" 
d="M409 10c0 -7 -3 -10 -9 -10h-39c-3 0 -6 2 -8 5l-204 440c-3 7 -13 28 -16 36l-3 -1c2 -24 3 -153 3 -232v-238c0 -7 -3 -10 -10 -10h-47c-7 0 -10 3 -10 10v609c0 7 2 10 8 10h39c3 0 5 -2 7 -5l205 -445c3 -5 12 -28 15 -36l4 1c-2 24 -3 153 -3 232v243
c0 7 3 10 10 10h48c7 0 10 -3 10 -10v-609z" />
    <glyph glyph-name="O" unicode="O" 
d="M384 154c0 -97 -61 -164 -153 -164h-27c-92 0 -151 67 -151 164v322c0 97 59 164 151 164h27c92 0 153 -67 153 -164v-322zM316 154v322c0 60 -40 106 -86 106h-24c-48 0 -85 -46 -85 -106v-322c0 -58 37 -107 85 -107h24c46 0 86 49 86 107z" />
    <glyph glyph-name="P" unicode="P" horiz-adv-x="413" 
d="M396 455c0 -93 -59 -165 -148 -165h-107c-6 0 -8 -3 -8 -10v-270c0 -7 -3 -10 -10 -10h-47c-7 0 -10 3 -10 10v609c0 7 2 10 8 10h169c92 0 153 -69 153 -174zM329 456v10c0 58 -39 106 -87 106h-101c-6 0 -8 -3 -8 -10v-204c0 -7 2 -10 8 -10h101c48 0 87 48 87 108z
" />
    <glyph glyph-name="Q" unicode="Q" horiz-adv-x="445" 
d="M395 154c0 -85 -50 -149 -136 -163c-5 -1 -7 -4 -7 -10v-65c0 -7 -3 -10 -10 -10h-37c-7 0 -10 3 -10 10v65c0 6 -4 9 -9 10c-86 14 -133 78 -133 163v322c0 97 61 164 156 164h28c95 0 158 -67 158 -164v-322zM327 154v322c0 60 -42 106 -91 106h-26
c-51 0 -89 -46 -89 -106v-322c0 -36 13 -68 40 -89c10 -8 22 -15 27 -15c4 0 7 3 7 10v49c0 7 3 10 10 10h37c7 0 10 -3 10 -10v-48c0 -6 1 -9 5 -9c5 0 19 7 27 12c29 20 43 53 43 90z" />
    <glyph glyph-name="R" unicode="R" 
d="M397 8c0 -5 -3 -8 -10 -8h-54c-4 0 -8 3 -9 7l-77 277c-1 4 -3 6 -6 6h-100c-6 0 -8 -3 -8 -10v-270c0 -7 -3 -10 -10 -10h-47c-7 0 -10 3 -10 10v609c0 7 2 10 8 10h169c92 0 153 -67 153 -173v-11c0 -51 -44 -112 -89 -132c-4 -2 -6 -4 -6 -7s2 -7 4 -12l84 -261
c4 -10 8 -22 8 -25zM329 456v10c0 58 -39 106 -87 106h-101c-6 0 -8 -3 -8 -10v-204c0 -7 2 -10 8 -10h101c48 0 87 48 87 108z" />
    <glyph glyph-name="S" unicode="S" horiz-adv-x="396" 
d="M361 154c0 -97 -59 -164 -152 -164h-38c-58 0 -94 22 -118 54c-8 11 -17 28 -17 33c0 3 2 6 5 8l32 20c3 1 5 3 8 3s4 -2 6 -5c20 -36 51 -56 80 -56h36c51 0 91 47 91 107c0 71 -54 102 -114 134c-65 35 -138 73 -138 188c0 97 59 164 151 164h14c58 0 93 -22 116 -53
c10 -13 19 -29 19 -33s-3 -7 -6 -9l-28 -17c-3 -2 -8 -5 -11 -5s-4 1 -6 4c-20 36 -51 55 -79 55h-14c-49 0 -88 -46 -88 -106c0 -63 57 -93 120 -127s131 -78 131 -195z" />
    <glyph glyph-name="T" unicode="T" horiz-adv-x="330" 
d="M312 582c0 -7 -2 -10 -8 -10h-97c-6 0 -8 -3 -8 -10v-552c0 -7 -3 -10 -10 -10h-47c-7 0 -10 3 -10 10v552c0 7 -2 10 -8 10h-97c-6 0 -8 3 -8 10v37c0 7 2 10 8 10h277c6 0 8 -3 8 -10v-37z" />
    <glyph glyph-name="U" unicode="U" 
d="M384 154c0 -97 -61 -164 -153 -164h-27c-92 0 -151 67 -151 164v465c0 7 3 10 10 10h48c7 0 10 -3 10 -10v-465c0 -58 37 -107 85 -107h24c46 0 86 49 86 107v465c0 7 3 10 10 10h48c7 0 10 -3 10 -10v-465z" />
    <glyph glyph-name="V" unicode="V" horiz-adv-x="378" 
d="M372 621c0 -4 -5 -22 -8 -31l-153 -583c-1 -5 -4 -7 -8 -7h-31c-4 0 -8 2 -9 7l-150 589c-2 11 -6 21 -6 25c0 5 4 8 11 8h50c5 0 9 -2 10 -7l120 -469c2 -7 6 -32 8 -40h4c2 8 6 33 8 40l98 469c1 5 4 7 8 7h39c5 0 9 -3 9 -8z" />
    <glyph glyph-name="W" unicode="W" horiz-adv-x="588" 
d="M575 621c0 -4 -4 -23 -6 -36l-109 -577c-1 -5 -5 -8 -10 -8h-36c-5 0 -9 2 -10 7l-102 403c-2 6 -6 36 -8 44h-4c-2 -8 -7 -37 -9 -44l-105 -403c-1 -5 -5 -7 -9 -7h-31c-4 0 -8 3 -9 8l-110 590c-2 7 -3 17 -3 23s3 8 10 8h51c5 0 9 -3 10 -8l80 -428c1 -7 7 -37 9 -45
h4c2 8 7 37 9 44l100 432c1 5 4 7 8 7h11c4 0 7 -2 8 -7l110 -433c2 -7 9 -37 11 -45h-12c2 8 6 37 8 46l81 429c1 5 5 8 9 8h45c6 0 9 -2 9 -8z" />
    <glyph glyph-name="X" unicode="X" horiz-adv-x="384" 
d="M360 8c0 -5 -3 -8 -9 -8h-48c-3 0 -5 2 -7 6l-93 238c-2 5 -5 8 -8 8s-6 -3 -8 -8l-99 -238c-2 -3 -4 -6 -7 -6h-48c-6 0 -9 3 -9 8s5 18 10 29l108 266c2 4 4 9 4 12s-2 9 -4 13l-109 270c-3 7 -8 19 -8 23c0 5 3 8 9 8h47c3 0 5 -3 7 -6l99 -239c2 -5 5 -8 8 -8
s6 3 8 8l93 239c2 4 4 6 7 6h47c6 0 9 -3 9 -8c0 -4 -5 -16 -9 -26l-108 -266c-2 -5 -4 -10 -4 -13s2 -10 4 -13l109 -271c4 -10 9 -20 9 -24z" />
    <glyph glyph-name="Y" unicode="Y" horiz-adv-x="371" 
d="M359 621c0 -4 -6 -17 -16 -41l-123 -289v-281c0 -7 -3 -10 -10 -10h-49c-7 0 -10 3 -10 10v281l-124 293c-7 16 -14 33 -14 37c0 5 3 8 9 8h47c3 0 6 -3 8 -6l102 -252c2 -5 6 -8 8 -8s5 3 7 8l101 252c2 3 4 6 7 6h48c6 0 9 -3 9 -8z" />
    <glyph glyph-name="Z" unicode="Z" horiz-adv-x="349" 
d="M315 10c0 -7 -2 -10 -8 -10h-270c-6 0 -8 3 -8 8s5 19 10 33l177 497c3 10 8 22 8 26c0 5 -2 8 -8 8h-172c-6 0 -8 3 -8 10v37c0 7 2 10 8 10h252c6 0 8 -3 8 -8c0 -4 -3 -12 -8 -26l-177 -493c-6 -17 -12 -33 -12 -37c0 -5 2 -8 8 -8h192c6 0 8 -3 8 -10v-37z" />
    <glyph glyph-name="bracketleft" unicode="[" horiz-adv-x="341" 
d="M265 -178c0 -7 -3 -10 -10 -10h-141c-7 0 -10 3 -10 10v901c0 7 3 10 10 10h141c7 0 10 -3 10 -10v-38c0 -7 -3 -10 -10 -10h-73c-7 0 -10 -3 -10 -10v-785c0 -7 3 -10 10 -10h73c7 0 10 -3 10 -10v-38z" />
    <glyph glyph-name="backslash" unicode="\" horiz-adv-x="307" 
d="M312 8c0 -5 -4 -8 -11 -8h-34c-4 0 -7 2 -9 6l-242 565c-13 31 -20 46 -20 51s3 8 10 8h34c4 0 7 -2 9 -6l244 -571c9 -21 19 -40 19 -45z" />
    <glyph glyph-name="bracketright" unicode="]" horiz-adv-x="341" 
d="M239 -178c0 -7 -3 -10 -10 -10h-141c-7 0 -10 3 -10 10v38c0 7 3 10 10 10h74c7 0 10 3 10 10v785c0 7 -3 10 -10 10h-74c-7 0 -10 3 -10 10v38c0 7 3 10 10 10h141c7 0 10 -3 10 -10v-901z" />
    <glyph glyph-name="underscore" unicode="_" horiz-adv-x="205" 
d="M218 -215c0 -7 -3 -10 -10 -10h-210c-7 0 -10 3 -10 10v25c0 7 3 10 10 10h210c7 0 10 -3 10 -10v-25z" />
    <glyph glyph-name="grave" unicode="`" horiz-adv-x="431" 
d="M265 504c0 -5 -4 -8 -11 -8h-20c-5 0 -7 1 -11 5l-114 103c-3 3 -4 5 -4 8c0 5 4 9 11 9h66c4 0 9 -3 11 -6l69 -103c2 -3 3 -6 3 -8z" />
    <glyph glyph-name="a" unicode="a" horiz-adv-x="396" 
d="M341 10c0 -7 -3 -10 -10 -10h-37c-7 0 -10 3 -10 10v43c0 8 -4 12 -8 12c-3 0 -5 -2 -8 -5c-26 -35 -59 -60 -81 -60h-34c-60 0 -108 46 -108 117v6c0 71 47 116 107 116h112c6 0 9 2 9 9v41c0 59 -41 104 -91 104c-28 0 -60 -19 -80 -55c-2 -3 -3 -5 -6 -5s-7 2 -10 4
l-30 19c-3 2 -5 5 -5 8c0 4 9 20 16 30c24 33 59 56 120 56c93 0 154 -64 154 -161v-279zM273 143v38c0 7 -2 10 -8 10h-106c-26 0 -47 -26 -47 -59v-15c0 -32 21 -60 47 -60h32c37 0 69 44 82 86z" />
    <glyph glyph-name="b" unicode="b" horiz-adv-x="405" 
d="M363 164c0 -96 -59 -164 -149 -164c-21 0 -55 13 -85 57c-3 4 -5 5 -8 5c-4 0 -7 -4 -7 -11v-41c0 -7 -3 -10 -10 -10h-37c-7 0 -10 3 -10 10v609c0 7 3 10 10 10h48c7 0 10 -3 10 -10v-226c0 -7 4 -11 7 -11s4 2 7 5c30 43 63 55 84 55c78 0 140 -67 140 -163v-115z
M295 164v115c0 58 -40 106 -86 106c-47 0 -84 -47 -84 -106v-115c0 -58 38 -107 84 -107s86 49 86 107z" />
    <glyph glyph-name="c" unicode="c" horiz-adv-x="353" 
d="M322 77c0 -4 -8 -17 -19 -33c-23 -32 -57 -54 -113 -54c-89 0 -145 67 -145 164v135c0 97 56 163 145 163c56 0 90 -21 113 -52c10 -14 19 -28 19 -33c0 -4 -3 -7 -6 -9l-29 -18c-3 -2 -6 -4 -8 -4s-4 1 -6 4c-19 34 -49 55 -76 55c-47 0 -85 -47 -85 -106v-135
c0 -58 39 -107 85 -107c27 0 57 22 76 57c2 3 4 4 6 4c3 0 7 -3 10 -5l27 -17c3 -2 6 -5 6 -9z" />
    <glyph glyph-name="d" unicode="d" horiz-adv-x="405" 
d="M350 10c0 -7 -3 -10 -10 -10h-37c-7 0 -10 3 -10 10v43c0 7 -4 11 -8 11c-3 0 -5 -1 -8 -5c-31 -46 -64 -59 -85 -59c-90 0 -147 68 -147 164v115c0 96 60 163 138 163c21 0 54 -12 84 -57c3 -4 4 -5 7 -5c4 0 8 4 8 11v228c0 7 3 10 10 10h48c7 0 10 -3 10 -10v-609z
M282 164v115c0 58 -40 106 -86 106c-47 0 -84 -47 -84 -106v-115c0 -58 38 -107 84 -107s86 49 86 107z" />
    <glyph glyph-name="e" unicode="e" horiz-adv-x="392" 
d="M350 227c0 -7 -3 -10 -9 -10h-221c-6 0 -8 -3 -8 -10v-54c0 -58 40 -106 88 -106c28 0 60 22 80 57c2 3 3 4 6 4s5 -2 9 -4l30 -18c3 -2 6 -5 6 -9s-9 -19 -19 -33c-23 -32 -59 -54 -117 -54c-92 0 -150 67 -150 164v135c0 77 58 163 151 163s154 -87 154 -164v-61z
M282 275v14c0 58 -40 106 -86 106c-47 0 -84 -47 -84 -106v-14c0 -7 2 -10 8 -10h154c6 0 8 3 8 10z" />
    <glyph glyph-name="f" unicode="f" horiz-adv-x="234" 
d="M254 628l-10 -40c-1 -4 -5 -7 -8 -7s-8 1 -14 1c-47 0 -85 -46 -85 -106v-71c0 -7 2 -10 8 -10h59c6 0 8 -3 8 -10v-38c0 -7 -2 -10 -8 -10h-59c-6 0 -8 -3 -8 -10v-317c0 -7 -3 -10 -10 -10h-47c-7 0 -10 3 -10 10v317c0 7 -2 10 -8 10h-22c-6 0 -8 3 -8 10v38
c0 7 2 10 8 10h22c6 0 8 3 8 10v61c0 97 66 174 149 174c9 0 19 -1 27 -2c6 -1 8 -5 8 -10z" />
    <glyph glyph-name="g" unicode="g" horiz-adv-x="410" 
d="M405 -109c0 -73 -53 -116 -117 -116h-128c-64 0 -115 44 -115 116v6c0 37 23 66 62 93c4 2 5 5 5 8c0 4 -4 11 -7 16c-9 16 -13 29 -13 45c0 18 5 34 15 51c3 5 10 14 10 18s-8 11 -14 16c-40 34 -58 76 -58 125v10c0 96 67 163 152 163c22 0 56 -13 88 -58
c3 -4 5 -5 8 -5c4 0 8 4 8 11v42c0 7 3 10 10 10h37c7 0 10 -3 10 -10v-164c0 -96 -68 -164 -152 -164c-8 0 -20 1 -28 2c-15 -8 -29 -27 -29 -48s12 -42 29 -47h113c63 0 114 -43 114 -114v-6zM290 269v10c0 58 -42 106 -90 106c-49 0 -88 -47 -88 -106v-10
c0 -58 40 -107 88 -107s90 49 90 107zM337 -109v5c0 32 -24 56 -52 56h-122c-29 0 -51 -23 -51 -56v-5c0 -34 21 -59 51 -59h122c30 0 52 25 52 59z" />
    <glyph glyph-name="h" unicode="h" horiz-adv-x="413" 
d="M363 10c0 -7 -3 -10 -10 -10h-48c-7 0 -10 3 -10 10v269c0 58 -40 106 -86 106c-47 0 -84 -47 -84 -106v-269c0 -7 -3 -10 -10 -10h-48c-7 0 -10 3 -10 10v609c0 7 3 10 10 10h48c7 0 10 -3 10 -10v-226c0 -7 4 -11 7 -11s4 2 7 5c30 43 63 55 84 55
c79 0 140 -67 140 -163v-269z" />
    <glyph glyph-name="i" unicode="i" horiz-adv-x="184" 
d="M137 596c0 -24 -21 -45 -45 -45c-25 0 -43 20 -43 45c0 23 20 44 43 44c25 0 45 -19 45 -44zM127 10c0 -7 -3 -10 -10 -10h-48c-7 0 -10 3 -10 10v422c0 7 3 10 10 10h48c7 0 10 -3 10 -10v-422z" />
    <glyph glyph-name="j" unicode="j" horiz-adv-x="184" 
d="M136 596c0 -24 -21 -45 -45 -45c-25 0 -43 20 -43 45c0 23 20 44 43 44c25 0 45 -19 45 -44zM126 -62c0 -72 -40 -132 -101 -160c-10 -6 -30 -13 -35 -13s-8 3 -8 10v38c0 5 3 9 7 10c43 12 69 54 69 104v505c0 7 3 10 10 10h48c7 0 10 -3 10 -10v-494z" />
    <glyph glyph-name="k" unicode="k" horiz-adv-x="371" 
d="M354 8c0 -5 -3 -8 -9 -8h-46c-2 0 -5 2 -7 5l-110 228c-2 4 -5 6 -7 6s-4 -1 -6 -4l-44 -56v-169c0 -7 -3 -10 -10 -10h-48c-7 0 -10 3 -10 10v609c0 7 3 10 10 10h48c7 0 10 -3 10 -10v-346c0 -7 3 -11 7 -11c2 0 4 1 6 4l125 171c2 3 5 5 8 5h40c6 0 8 -3 8 -8
c0 -3 -1 -6 -3 -9l-94 -118c-4 -6 -7 -9 -7 -13s3 -9 6 -15l125 -251c4 -8 8 -15 8 -20z" />
    <glyph glyph-name="l" unicode="l" horiz-adv-x="180" 
d="M125 10c0 -7 -3 -10 -10 -10h-48c-7 0 -10 3 -10 10v609c0 7 3 10 10 10h48c7 0 10 -3 10 -10v-609z" />
    <glyph glyph-name="m" unicode="m" horiz-adv-x="624" 
d="M569 10c0 -7 -3 -10 -10 -10h-48c-7 0 -10 3 -10 10v269c0 59 -42 106 -78 106c-34 0 -76 -47 -76 -106v-269c0 -7 -3 -10 -10 -10h-48c-7 0 -10 3 -10 10v269c0 59 -42 106 -78 106c-34 0 -76 -47 -76 -106v-269c0 -7 -3 -10 -10 -10h-48c-7 0 -10 3 -10 10v422
c0 7 3 10 10 10h37c7 0 10 -3 10 -10v-40c0 -8 3 -12 7 -12c3 0 4 2 7 5c32 44 69 57 86 57c31 0 69 -14 96 -59c2 -3 4 -5 7 -5s4 2 7 5c29 45 67 59 103 59c81 0 142 -67 142 -163v-269z" />
    <glyph glyph-name="n" unicode="n" horiz-adv-x="418" 
d="M363 10c0 -7 -3 -10 -10 -10h-48c-7 0 -10 3 -10 10v269c0 58 -40 106 -86 106c-47 0 -84 -47 -84 -106v-269c0 -7 -3 -10 -10 -10h-48c-7 0 -10 3 -10 10v422c0 7 3 10 10 10h37c7 0 10 -3 10 -10v-40c0 -7 3 -11 7 -11c3 0 5 1 8 5c30 44 64 56 85 56
c90 0 149 -67 149 -163v-269z" />
    <glyph glyph-name="o" unicode="o" horiz-adv-x="392" 
d="M350 154c0 -97 -61 -164 -154 -164s-151 67 -151 164v135c0 97 58 163 151 163s154 -66 154 -163v-135zM282 154v135c0 58 -40 106 -86 106c-47 0 -84 -47 -84 -106v-135c0 -58 38 -107 84 -107s86 49 86 107z" />
    <glyph glyph-name="p" unicode="p" horiz-adv-x="405" 
d="M363 164c0 -96 -62 -164 -140 -164c-21 0 -54 15 -84 57c-3 3 -4 5 -7 5c-4 0 -7 -4 -7 -12v-265c0 -7 -3 -10 -10 -10h-48c-7 0 -10 3 -10 10v647c0 7 3 10 10 10h37c7 0 10 -3 10 -10v-40c0 -7 3 -11 7 -11c3 0 5 1 8 5c30 44 64 56 85 56c90 0 149 -67 149 -163v-115z
M295 164v115c0 58 -40 106 -86 106c-47 0 -84 -47 -84 -106v-115c0 -58 38 -107 84 -107s86 49 86 107z" />
    <glyph glyph-name="q" unicode="q" horiz-adv-x="405" 
d="M350 -215c0 -7 -3 -10 -10 -10h-48c-7 0 -10 3 -10 10v267c0 7 -4 11 -8 11c-3 0 -4 -1 -7 -5c-30 -45 -63 -58 -84 -58c-78 0 -138 68 -138 164v115c0 96 57 163 147 163c21 0 54 -13 85 -58c3 -4 5 -5 8 -5c4 0 8 4 8 11v42c0 7 3 10 10 10h37c7 0 10 -3 10 -10v-647z
M282 164v115c0 58 -40 106 -86 106c-47 0 -84 -47 -84 -106v-115c0 -58 38 -107 84 -107s86 49 86 107z" />
    <glyph glyph-name="r" unicode="r" horiz-adv-x="251" 
d="M231 383c0 -8 -4 -10 -10 -10h-12c-48 0 -84 -45 -84 -104v-259c0 -7 -3 -10 -10 -10h-48c-7 0 -10 3 -10 10v422c0 7 3 10 10 10h37c7 0 10 -3 10 -10v-50c0 -7 4 -11 9 -11c3 0 4 1 7 5c28 44 59 66 79 66h14c6 0 8 -3 8 -10v-49z" />
    <glyph glyph-name="s" unicode="s" horiz-adv-x="377" 
d="M339 134c0 -78 -49 -144 -140 -144h-27c-60 0 -95 25 -118 55c-9 12 -17 27 -17 31c0 3 2 6 6 8l29 17c3 2 5 3 8 3s5 -2 7 -5c17 -33 47 -56 80 -56h27c53 0 78 38 78 77c0 49 -58 64 -122 78c-55 13 -113 30 -113 115c0 89 61 139 135 139h27c57 0 92 -23 115 -51
c11 -13 19 -28 19 -32s-3 -7 -6 -9l-26 -15c-4 -2 -7 -5 -10 -5s-4 2 -6 5c-19 32 -51 54 -82 54h-26c-55 0 -75 -29 -75 -69c0 -53 58 -66 120 -81c55 -13 117 -32 117 -115z" />
    <glyph glyph-name="t" unicode="t" horiz-adv-x="259" 
d="M215 1c0 -6 -2 -10 -7 -10c-4 0 -21 4 -33 9c-65 23 -102 79 -102 154v221c0 7 -2 10 -8 10h-46c-6 0 -8 3 -8 10v19l97 115c4 4 7 7 11 7h13c6 0 9 -3 9 -10v-74c0 -7 2 -10 8 -10h58c6 0 8 -3 8 -10v-37c0 -7 -2 -10 -8 -10h-58c-6 0 -8 -3 -8 -10v-221
c0 -50 26 -92 68 -104c4 -1 6 -5 6 -10v-39z" />
    <glyph glyph-name="u" unicode="u" horiz-adv-x="409" 
d="M354 10c0 -7 -3 -10 -10 -10h-37c-7 0 -10 3 -10 10v43c0 7 -4 11 -8 11c-3 0 -5 -1 -8 -5c-31 -46 -63 -59 -85 -59c-90 0 -147 68 -147 164v268c0 7 3 10 10 10h47c7 0 10 -3 10 -10v-268c0 -58 39 -107 85 -107c48 0 86 47 86 107v268c0 7 3 10 10 10h47
c7 0 10 -3 10 -10v-422z" />
    <glyph glyph-name="v" unicode="v" horiz-adv-x="342" 
d="M332 434c0 -4 -4 -15 -7 -26l-130 -402c-2 -4 -5 -6 -8 -6h-32c-3 0 -5 2 -7 6l-130 402c-4 13 -8 22 -8 26c0 5 2 8 8 8h40c3 0 5 -2 7 -6l96 -303c2 -5 8 -30 9 -39h3c1 9 7 34 9 39l95 303c2 4 4 6 7 6h40c6 0 8 -3 8 -8z" />
    <glyph glyph-name="w" unicode="w" horiz-adv-x="545" 
d="M531 434c0 -4 -4 -16 -7 -28l-108 -399c-1 -5 -5 -7 -10 -7h-36c-5 0 -10 2 -11 7l-78 298c-3 16 -5 25 -7 39h-3c-2 -14 -4 -23 -8 -39l-76 -298c-1 -5 -5 -7 -10 -7h-37c-5 0 -9 2 -10 7l-109 402c-2 8 -6 21 -6 25c0 5 4 8 11 8h51c5 0 9 -2 10 -7l77 -283
c3 -16 6 -25 8 -39h3c-3 14 -5 23 -8 39l72 283c1 5 5 7 10 7h52c5 0 9 -2 10 -7l74 -283c3 -14 6 -25 8 -39h3c0 14 -1 23 -1 39l77 283c1 5 4 7 8 7h42c6 0 9 -3 9 -8z" />
    <glyph glyph-name="x" unicode="x" horiz-adv-x="342" 
d="M326 8c0 -5 -2 -8 -8 -8h-47c-3 0 -6 2 -8 5l-85 162c-2 4 -4 5 -7 5s-5 -1 -7 -5l-86 -162c-2 -3 -4 -5 -7 -5h-47c-6 0 -9 3 -9 8s6 15 9 21l95 183c2 4 4 8 4 12s-2 8 -4 11l-94 180c-4 8 -8 15 -8 19c0 5 2 8 8 8h46c3 0 5 -2 7 -5l86 -161c2 -4 5 -5 8 -5s5 1 7 5
l85 161c2 3 4 5 7 5h46c6 0 8 -3 8 -8c0 -4 -4 -12 -12 -27l-90 -173c-2 -3 -4 -7 -4 -11s2 -8 4 -11l94 -183c4 -8 9 -16 9 -21z" />
    <glyph glyph-name="y" unicode="y" horiz-adv-x="409" 
d="M354 -60c0 -101 -51 -175 -152 -175c-56 0 -92 22 -115 53c-8 11 -20 30 -20 34s3 7 6 9l30 18c3 2 5 4 8 4s5 -2 7 -5c19 -35 50 -56 78 -56c50 0 91 47 91 107v119c0 7 -4 11 -8 11c-3 0 -4 -1 -7 -5c-25 -38 -57 -54 -77 -54c-90 0 -146 68 -146 164v268
c0 7 3 10 10 10h47c7 0 10 -3 10 -10v-268c0 -58 39 -107 85 -107c59 0 86 63 86 107v268c0 7 3 10 10 10h47c7 0 10 -3 10 -10v-492z" />
    <glyph glyph-name="z" unicode="z" horiz-adv-x="342" 
d="M310 10c0 -7 -2 -10 -8 -10h-258c-6 0 -9 3 -9 8c0 4 4 13 7 19l159 342c2 3 2 5 2 7c0 5 -3 8 -9 8h-154c-6 0 -8 3 -8 10v37c0 7 2 10 8 10h243c6 0 9 -3 9 -8c0 -3 -4 -10 -8 -19l-160 -342c-2 -3 -1 -5 -1 -7c0 -5 2 -8 8 -8h171c6 0 8 -3 8 -10v-37z" />
    <glyph glyph-name="braceleft" unicode="{" horiz-adv-x="380" 
d="M304 -177c0 -7 -3 -10 -7 -10c-10 0 -34 8 -52 20c-53 29 -83 84 -83 154v150c0 50 -31 91 -82 103c-5 1 -8 5 -8 10v45c0 5 3 9 8 10c51 12 82 54 82 104v151c0 74 34 131 92 158c13 7 33 14 43 14c4 0 7 -3 7 -10v-40c0 -5 -2 -9 -6 -10c-42 -11 -68 -53 -68 -103v-172
c0 -40 -33 -101 -79 -120v-5c45 -19 79 -90 79 -131v-164c0 -50 26 -92 68 -104c4 -1 6 -5 6 -10v-40z" />
    <glyph glyph-name="braceright" unicode="}" horiz-adv-x="380" 
d="M309 250c0 -5 -3 -9 -8 -10c-51 -12 -82 -53 -82 -103v-150c0 -70 -30 -125 -83 -154c-18 -12 -42 -20 -52 -20c-4 0 -7 3 -7 10v40c0 5 2 9 6 10c42 12 68 54 68 104v164c0 41 34 112 79 131v5c-46 19 -79 80 -79 120v172c0 50 -26 92 -68 103c-4 1 -6 5 -6 10v40
c0 7 3 10 7 10c10 0 30 -7 43 -14c58 -27 92 -84 92 -158v-151c0 -50 31 -92 82 -104c5 -1 8 -5 8 -10v-45z" />
    <glyph glyph-name="Euro" unicode="&#x20ac;" horiz-adv-x="422" 
d="M387 72c-8 -16 -17 -31 -30 -44c-23 -23 -53 -38 -99 -38h-26c-89 0 -145 66 -145 163v40c0 6 -3 10 -8 10h-50c-6 0 -8 3 -8 10v37c0 7 2 10 8 10h50c5 0 8 4 8 10v89c0 6 -3 10 -8 10h-50c-6 0 -8 3 -8 10v38c0 7 2 10 8 10h50c5 0 8 4 8 10v39c0 97 56 164 145 164h26
c44 0 74 -14 97 -35c13 -13 24 -29 32 -46c4 -6 2 -11 -4 -14l-33 -21c-4 -2 -8 -1 -10 3c-20 34 -50 55 -76 55h-24c-48 0 -85 -46 -85 -106v-39c0 -6 3 -10 8 -10h126c6 0 8 -3 8 -10v-38c0 -7 -2 -10 -8 -10h-126c-5 0 -8 -4 -8 -10v-89c0 -6 3 -10 8 -10h126
c6 0 8 -3 8 -10v-37c0 -7 -2 -10 -8 -10h-126c-5 0 -8 -4 -8 -10v-40c0 -58 37 -106 85 -106h24c27 0 57 22 76 57c2 5 6 5 10 3l33 -21c6 -3 8 -8 4 -14z" />
    <glyph glyph-name="quotesinglbase" unicode="&#x201a;" horiz-adv-x="147" 
d="M116 30c0 -64 -16 -105 -43 -132c-11 -11 -27 -22 -31 -22c-3 0 -6 2 -8 6l-6 13c-1 2 -2 5 -2 7c0 3 1 5 4 7c22 18 35 45 35 99c0 7 -3 10 -10 10h-12c-7 0 -10 3 -10 10v55c0 7 3 10 10 10h63c7 0 10 -3 10 -10v-53z" />
    <glyph glyph-name="florin" unicode="&#x192;" horiz-adv-x="422" 
d="M348 628l-11 -40c-1 -4 -4 -7 -7 -7s-8 1 -14 1c-47 0 -85 -46 -85 -106v-118c0 -7 2 -10 8 -10h58c6 0 8 -3 8 -10v-38c0 -7 -2 -10 -8 -10h-58c-6 0 -8 -3 -8 -10v-340c0 -97 -68 -175 -152 -175c-9 0 -16 1 -26 2c-5 1 -8 3 -8 8c0 4 1 7 2 11l10 32c2 4 4 6 7 6
c4 0 8 -2 13 -2c47 0 86 49 86 107v351c0 7 -2 10 -8 10h-22c-6 0 -8 3 -8 10v38c0 7 2 10 8 10h22c6 0 8 3 8 10v108c0 97 67 174 150 174c9 0 19 -1 27 -2c6 -1 8 -5 8 -10z" />
    <glyph glyph-name="quotedblbase" unicode="&#x201e;" horiz-adv-x="267" 
d="M236 30c0 -64 -16 -105 -43 -132c-11 -11 -27 -22 -31 -22c-3 0 -6 2 -8 6l-6 13c-1 2 -2 5 -2 7c0 3 1 5 4 7c22 18 35 45 35 99c0 7 -3 10 -10 10h-12c-7 0 -10 3 -10 10v55c0 7 3 10 10 10h63c7 0 10 -3 10 -10v-53zM116 30c0 -64 -16 -105 -43 -132
c-11 -11 -27 -22 -31 -22c-3 0 -6 2 -8 6l-6 13c-1 2 -2 5 -2 7c0 3 1 5 4 7c22 18 35 45 35 99c0 7 -3 10 -10 10h-12c-7 0 -10 3 -10 10v55c0 7 3 10 10 10h63c7 0 10 -3 10 -10v-53z" />
    <glyph glyph-name="E.alt" unicode="&#xe001;" horiz-adv-x="367" 
d="M350 553c0 -3 -2 -6 -5 -8l-27 -18c-4 -3 -8 -5 -10 -5s-5 2 -7 5c-19 36 -48 55 -75 55h-25c-46 0 -85 -46 -85 -106v-20c0 -60 37 -108 85 -108h56c6 0 8 -3 8 -10v-38c0 -7 -2 -10 -8 -10h-56c-46 0 -85 -48 -85 -106v-30c0 -58 39 -107 85 -107h25c28 0 56 20 75 56
c2 3 5 5 7 5s5 -2 9 -5l27 -17c3 -2 5 -5 5 -9s-6 -19 -17 -34c-23 -32 -57 -53 -112 -53h-26c-89 0 -146 66 -146 172v26c0 69 57 118 90 129v5c-41 12 -90 60 -90 123v21c0 106 57 174 146 174h26c56 0 90 -22 113 -54c9 -13 17 -28 17 -33z" />
    <glyph glyph-name="dagger" unicode="&#x2020;" horiz-adv-x="341" 
d="M334 407c0 -7 -3 -10 -8 -10l-130 13c-6 0 -9 -3 -9 -8l13 -82l-20 -535c0 -7 -3 -10 -10 -10h-6c-7 0 -10 3 -10 10l-20 535l13 82c0 5 -3 8 -9 8l-130 -13c-5 0 -8 3 -8 10v45c0 7 3 10 8 10l131 -13c6 0 9 3 9 9l-13 162c0 6 3 10 10 10h44c7 0 10 -4 10 -10l-13 -162
c0 -6 3 -9 9 -9l131 13c5 0 8 -3 8 -10v-45z" />
    <glyph glyph-name="daggerdbl" unicode="&#x2021;" horiz-adv-x="338" 
d="M331 189c0 -6 -3 -11 -8 -10l-123 13c-5 1 -8 -4 -8 -10l-13 -397c0 -7 -3 -10 -10 -10h-6c-7 0 -10 3 -10 10l-13 397c0 6 -3 11 -8 10l-124 -13c-5 -1 -8 4 -8 10v46c0 6 3 11 8 10l124 -13c5 -1 7 3 7 9l-5 80l12 81c0 5 -2 8 -8 8l-130 -13c-5 0 -8 3 -8 10v45
c0 7 3 10 8 10l130 -13c6 0 9 3 9 9l-13 162c0 6 3 10 10 10h44c7 0 10 -4 10 -10l-13 -162c0 -6 3 -9 9 -9l129 13c5 0 8 -3 8 -10v-45c0 -7 -3 -10 -8 -10l-129 13c-6 0 -8 -3 -8 -8l12 -80l-5 -81c0 -6 2 -10 7 -9l123 13c5 1 8 -4 8 -10v-46z" />
    <glyph glyph-name="circumflex" unicode="&#x2c6;" horiz-adv-x="442" 
d="M329 504c0 -5 -4 -8 -11 -8h-35c-3 0 -6 2 -8 4l-44 62c-2 3 -5 5 -8 5s-5 -2 -8 -5l-47 -62c-2 -2 -5 -4 -8 -4h-34c-7 0 -11 3 -11 8c0 2 1 5 3 8l80 106c2 2 5 4 8 4h31c3 0 6 -2 8 -4l81 -106c2 -3 3 -6 3 -8z" />
    <glyph glyph-name="perthousand" unicode="&#x2030;" horiz-adv-x="638" 
d="M604 85c0 -50 -32 -85 -82 -85s-82 35 -82 85v100c0 50 32 85 82 85s82 -35 82 -85v-100zM198 444c0 -50 -32 -85 -82 -85s-82 35 -82 85v101c0 50 32 85 82 85s82 -35 82 -85v-101zM349 622c0 0 -151 -411 -227 -616c-2 -4 -5 -6 -8 -6h-21c-6 0 -10 3 -10 8l228 616
c2 4 5 6 8 6h21c6 0 9 -3 9 -8zM398 85c0 -50 -32 -85 -82 -85s-82 35 -82 85v100c0 50 32 85 82 85s82 -35 82 -85v-100zM554 85v99c0 21 -15 40 -32 40s-32 -19 -32 -40v-99c0 -21 15 -40 32 -40s32 19 32 40zM148 445v100c0 21 -15 40 -32 40s-32 -19 -32 -40v-100
c0 -21 15 -40 32 -40s32 19 32 40zM348 85v99c0 21 -15 40 -32 40s-32 -19 -32 -40v-99c0 -21 15 -40 32 -40s32 19 32 40z" />
    <glyph glyph-name="Scaron" unicode="&#x160;" horiz-adv-x="396" 
d="M278 784c0 -1 -1 -2 -2 -4l-52 -90c-2 -4 -4 -5 -8 -5h-39c-4 0 -7 1 -9 5l-52 90c-1 2 -1 3 -1 4c0 3 2 5 5 5h35c4 0 6 -2 8 -6l29 -55c2 -3 2 -4 4 -4s3 2 5 4l29 55c2 4 5 6 9 6h33c3 0 6 -2 6 -5zM361 154c0 -97 -59 -164 -152 -164h-38c-58 0 -94 22 -118 54
c-8 11 -17 28 -17 33c0 3 2 6 5 8l32 20c3 1 5 3 8 3s4 -2 6 -5c20 -36 51 -56 80 -56h36c51 0 91 47 91 107c0 71 -54 102 -114 134c-65 35 -138 73 -138 188c0 97 59 164 151 164h14c58 0 93 -22 116 -53c10 -13 19 -29 19 -33s-3 -7 -6 -9l-28 -17c-3 -2 -8 -5 -11 -5
s-4 1 -6 4c-20 36 -51 55 -79 55h-14c-49 0 -88 -46 -88 -106c0 -63 57 -93 120 -127s131 -78 131 -195z" />
    <glyph glyph-name="guilsinglleft" unicode="&#x2039;" horiz-adv-x="270" 
d="M223 115c0 -7 -3 -11 -7 -11c-2 0 -4 1 -6 3l-161 135c-2 2 -4 5 -4 8v55c0 3 2 6 4 8l161 135c2 2 4 3 6 3c4 0 7 -4 7 -11v-42c0 -3 -1 -6 -3 -8l-116 -104c-2 -3 -4 -5 -4 -8s2 -5 4 -8l116 -105c2 -2 3 -5 3 -8v-42z" />
    <glyph glyph-name="OE" unicode="&#x152;" horiz-adv-x="646" 
d="M608 10c0 -7 -2 -10 -8 -10h-319c-15 -6 -34 -10 -54 -10h-26c-90 0 -148 67 -148 164v322c0 97 59 164 150 164h27c19 0 42 -5 58 -11h312c6 0 8 -3 8 -10v-37c0 -7 -2 -10 -8 -10h-228c-7 0 -10 -3 -10 -8s3 -11 5 -16c13 -29 17 -49 17 -72v-118c0 -7 2 -10 8 -10h171
c6 0 8 -3 8 -10v-38c0 -7 -2 -10 -8 -10h-171c-6 0 -8 -3 -8 -10v-126c0 -19 -3 -38 -12 -61c-3 -7 -10 -21 -10 -28c0 -5 3 -8 10 -8h228c6 0 8 -3 8 -10v-37zM316 154v322c0 60 -40 106 -86 106h-24c-48 0 -85 -46 -85 -106v-322c0 -58 37 -107 85 -107h24
c46 0 86 49 86 107z" />
    <glyph glyph-name="quoteleft" unicode="&#x2018;" horiz-adv-x="147" 
d="M122 649c0 -3 -1 -5 -4 -7c-22 -18 -35 -45 -35 -99c0 -7 3 -10 10 -10h12c7 0 10 -3 10 -10v-55c0 -7 -3 -10 -10 -10h-63c-7 0 -10 3 -10 10v53c0 64 16 105 43 132c11 11 27 22 31 22c3 0 6 -2 8 -6l6 -13c1 -2 2 -5 2 -7z" />
    <glyph glyph-name="quoteright" unicode="&#x2019;" horiz-adv-x="147" 
d="M116 571c0 -64 -16 -104 -43 -131c-11 -11 -27 -22 -31 -22c-3 0 -6 2 -8 6l-6 13c-1 2 -2 5 -2 7c0 3 1 5 4 7c22 18 35 45 35 99c0 7 -3 10 -10 10h-12c-7 0 -10 3 -10 10v54c0 7 3 10 10 10h63c7 0 10 -3 10 -10v-53z" />
    <glyph glyph-name="quotedblleft" unicode="&#x201c;" horiz-adv-x="267" 
d="M242 649c0 -3 -1 -5 -4 -7c-22 -18 -35 -45 -35 -99c0 -7 3 -10 10 -10h12c7 0 10 -3 10 -10v-55c0 -7 -3 -10 -10 -10h-63c-7 0 -10 3 -10 10v53c0 64 16 105 43 132c11 11 27 22 31 22c3 0 6 -2 8 -6l6 -13c1 -2 2 -5 2 -7zM122 649c0 -3 -1 -5 -4 -7
c-22 -18 -35 -45 -35 -99c0 -7 3 -10 10 -10h12c7 0 10 -3 10 -10v-55c0 -7 -3 -10 -10 -10h-63c-7 0 -10 3 -10 10v53c0 64 16 105 43 132c11 11 28 22 32 22c3 0 5 -2 7 -6l6 -13c1 -2 2 -5 2 -7z" />
    <glyph glyph-name="quotedblright" unicode="&#x201d;" horiz-adv-x="267" 
d="M236 571c0 -64 -16 -104 -43 -131c-11 -11 -27 -22 -31 -22c-3 0 -6 2 -8 6l-6 13c-1 2 -2 5 -2 7c0 3 1 5 4 7c22 18 35 45 35 99c0 7 -3 10 -10 10h-12c-7 0 -10 3 -10 10v54c0 7 3 10 10 10h63c7 0 10 -3 10 -10v-53zM116 571c0 -64 -16 -104 -43 -131
c-11 -11 -27 -22 -31 -22c-3 0 -6 2 -8 6l-6 13c-1 2 -2 5 -2 7c0 3 1 5 4 7c22 18 35 45 35 99c0 7 -3 10 -10 10h-12c-7 0 -10 3 -10 10v54c0 7 3 10 10 10h63c7 0 10 -3 10 -10v-53z" />
    <glyph glyph-name="bullet" unicode="&#x2022;" horiz-adv-x="458" 
d="M374 304c0 -79 -57 -133 -143 -133h-4c-87 0 -143 54 -143 133v22c0 79 56 132 143 132h4c86 0 143 -53 143 -132v-22z" />
    <glyph glyph-name="endash" unicode="&#x2013;" horiz-adv-x="458" 
d="M418 222c0 -7 -2 -10 -8 -10h-362c-6 0 -8 3 -8 10v27c0 7 2 10 8 10h362c6 0 8 -3 8 -10v-27z" />
    <glyph glyph-name="emdash" unicode="&#x2014;" horiz-adv-x="683" 
d="M643 222c0 -7 -2 -10 -8 -10h-587c-6 0 -8 3 -8 10v27c0 7 2 10 8 10h587c6 0 8 -3 8 -10v-27z" />
    <glyph glyph-name="tilde" unicode="&#x2dc;" horiz-adv-x="457" 
d="M371 570c0 -4 -10 -17 -18 -28c-20 -25 -40 -37 -63 -37c-19 0 -39 11 -62 26l-20 13c-14 9 -29 15 -42 15c-16 0 -32 -6 -52 -26c-2 -2 -5 -3 -7 -3s-4 0 -6 2l-10 8c-3 2 -5 5 -5 8c0 4 7 14 14 24c20 28 42 40 66 40c21 0 38 -7 59 -23l21 -16c11 -9 30 -15 44 -15
c16 0 34 7 54 27c2 2 5 4 7 4s4 -1 6 -3l9 -8c3 -2 5 -5 5 -8z" />
    <glyph glyph-name="trademark" unicode="&#x2122;" horiz-adv-x="330" 
d="M306 369c0 -7 -3 -10 -10 -10h-12c-7 0 -10 3 -10 10v72c0 8 -3 12 -7 12c-2 0 -6 -3 -8 -7l-20 -41c-2 -3 -5 -5 -7 -5h-4c-2 0 -4 2 -6 5l-22 41c-2 4 -6 7 -8 7c-3 0 -6 -4 -6 -12v-72c0 -7 -3 -10 -10 -10h-12c-7 0 -10 3 -10 10v169c0 7 3 10 9 10h10c3 0 6 -2 8 -5
l41 -82c3 -4 5 -7 8 -7s5 3 8 7l41 82c2 3 5 5 8 5h10c6 0 9 -3 9 -10v-169zM124 526c0 -7 -2 -10 -8 -10h-22c-6 0 -8 -3 -8 -10v-137c0 -7 -3 -10 -10 -10h-12c-7 0 -10 3 -10 10v137c0 7 -2 10 -8 10h-22c-6 0 -8 3 -8 10v12c0 7 2 10 8 10h92c6 0 8 -3 8 -10v-12z" />
    <glyph glyph-name="scaron" unicode="&#x161;" horiz-adv-x="377" 
d="M264 614c0 -2 -1 -5 -3 -8l-66 -105c-2 -2 -4 -4 -6 -4h-25c-2 0 -5 2 -7 4l-65 105c-2 3 -2 6 -2 8c0 5 3 8 9 8h28c2 0 5 -2 7 -4l37 -60c2 -3 5 -5 7 -5s4 2 6 5l35 60c2 2 5 4 7 4h29c6 0 9 -3 9 -8zM339 134c0 -78 -49 -144 -140 -144h-27c-60 0 -95 25 -118 55
c-9 12 -17 27 -17 31c0 3 2 6 6 8l29 17c3 2 5 3 8 3s5 -2 7 -5c17 -33 47 -56 80 -56h27c53 0 78 38 78 77c0 49 -58 64 -122 78c-55 13 -113 30 -113 115c0 89 61 139 135 139h27c57 0 92 -23 115 -51c11 -13 19 -28 19 -32s-3 -7 -6 -9l-26 -15c-4 -2 -7 -5 -10 -5
s-4 2 -6 5c-19 32 -51 54 -82 54h-26c-55 0 -75 -29 -75 -69c0 -53 58 -66 120 -81c55 -13 117 -32 117 -115z" />
    <glyph glyph-name="guilsinglright" unicode="&#x203a;" horiz-adv-x="271" 
d="M234 250c0 -3 -2 -6 -4 -8l-164 -135c-2 -2 -4 -3 -6 -3c-4 0 -6 4 -6 11v42c0 3 1 6 3 8l116 105c2 3 4 5 4 8s-2 5 -4 8l-116 104c-2 2 -3 5 -3 8v42c0 7 2 11 6 11c2 0 4 -1 6 -3l164 -135c2 -2 4 -5 4 -8v-55z" />
    <glyph glyph-name="oe" unicode="&#x153;" horiz-adv-x="630" 
d="M588 227c0 -7 -3 -10 -9 -10h-221c-6 0 -8 -3 -8 -10v-54c0 -4 0 -14 -1 -21c14 -39 45 -85 89 -85c28 0 60 22 80 57c2 3 3 4 6 4s5 -2 9 -4l30 -18c3 -2 6 -5 6 -9s-9 -19 -19 -33c-23 -32 -57 -54 -115 -54c-45 0 -81 16 -114 53c-3 2 -3 4 -6 4s-3 -2 -6 -4
c-33 -37 -71 -53 -116 -53c-91 0 -148 67 -148 164v135c0 97 57 163 149 163c47 0 84 -15 119 -53c3 -2 4 -4 7 -4s4 1 6 3c31 35 68 54 111 54c92 0 151 -87 151 -164v-61zM520 275v14c0 58 -40 106 -86 106c-47 0 -74 -48 -85 -85c1 -5 1 -17 1 -21v-14c0 -7 2 -10 8 -10
h154c6 0 8 3 8 10zM282 154v135c0 58 -40 106 -86 106c-47 0 -84 -47 -84 -106v-135c0 -58 38 -107 84 -107s86 49 86 107z" />
    <glyph glyph-name="Ydieresis" unicode="&#x178;" horiz-adv-x="405" 
d="M319 738c0 -22 -19 -43 -42 -43c-25 0 -39 20 -39 43c0 21 17 41 39 41c24 0 42 -18 42 -41zM168 738c0 -22 -19 -43 -42 -43c-25 0 -39 20 -39 43c0 21 15 41 39 41s42 -18 42 -41zM393 621c0 -2 -1 -4 -2 -7l-154 -323v-281c0 -7 -3 -10 -10 -10h-49c-7 0 -10 3 -10 10
v281l-153 323c-1 3 -2 5 -2 7c0 5 4 8 10 8h52c4 0 6 -3 8 -6l112 -252c2 -5 6 -8 9 -8s6 3 8 8l110 252c2 3 5 6 9 6h52c6 0 10 -3 10 -8z" />
    <glyph glyph-name="exclamdown" unicode="&#xa1;" horiz-adv-x="250" 
d="M176 409c0 -27 -23 -51 -50 -51c-28 0 -49 23 -49 51c0 26 23 48 49 48s50 -22 50 -48zM160 -178c0 -7 -3 -10 -10 -10h-49c-7 0 -10 3 -10 10v257l21 166c1 6 4 9 10 9h6c6 0 9 -3 10 -9l22 -165v-258z" />
    <glyph glyph-name="cent" unicode="&#xa2;" horiz-adv-x="429" 
d="M353 96c0 -5 -11 -24 -21 -38c-18 -23 -42 -41 -79 -48c-4 -1 -6 -4 -6 -10v-65c0 -7 -3 -10 -10 -10h-25c-7 0 -10 3 -10 10v66c0 5 -3 9 -7 10c-83 17 -127 78 -127 162v135c0 83 44 145 127 162c4 1 7 5 7 10v65c0 7 3 10 10 10h25c7 0 10 -3 10 -10v-65
c0 -6 2 -9 6 -10c42 -8 68 -30 86 -57c6 -10 14 -23 14 -28c0 -3 -2 -6 -5 -8l-28 -19c-3 -2 -6 -5 -8 -5s-5 2 -7 5c-9 16 -19 28 -29 37c-8 7 -19 12 -23 12s-6 -4 -6 -12v-313c0 -6 3 -9 6 -9c5 0 14 6 19 10c14 10 22 23 32 40c2 3 5 5 7 5s5 -2 9 -5l28 -19
c3 -2 5 -5 5 -8zM202 82v315c0 7 -3 10 -7 10s-17 -7 -26 -15c-22 -20 -33 -50 -33 -84v-135c0 -36 13 -67 39 -89c8 -7 17 -12 21 -12s6 3 6 10z" />
    <glyph glyph-name="sterling" unicode="&#xa3;" horiz-adv-x="421" 
d="M392 554c0 -4 -2 -7 -5 -9l-29 -18c-3 -2 -6 -4 -9 -4c-2 0 -4 1 -6 4c-19 36 -49 55 -75 55c-48 0 -85 -46 -85 -106v-118c0 -7 2 -10 8 -10h59c6 0 8 -3 8 -10v-38c0 -7 -2 -10 -8 -10h-59c-6 0 -8 -3 -8 -10v-126c0 -42 -35 -77 -35 -88c0 -5 4 -9 11 -9h204
c6 0 8 -3 8 -10v-37c0 -7 -2 -10 -8 -10h-352c-6 0 -8 3 -8 10v37c0 7 2 10 8 10h30c42 9 74 54 74 107v116c0 7 -2 10 -8 10h-21c-6 0 -8 3 -8 10v38c0 7 2 10 8 10h21c6 0 8 3 8 10v108c0 97 65 174 147 174c56 0 90 -22 113 -54c9 -13 17 -28 17 -32z" />
    <glyph glyph-name="currency" unicode="&#xa4;" horiz-adv-x="422" 
d="M387 72c-8 -16 -17 -31 -30 -44c-23 -23 -53 -38 -99 -38h-26c-89 0 -145 66 -145 163v40c0 6 -3 10 -8 10h-50c-6 0 -8 3 -8 10v37c0 7 2 10 8 10h50c5 0 8 4 8 10v89c0 6 -3 10 -8 10h-50c-6 0 -8 3 -8 10v38c0 7 2 10 8 10h50c5 0 8 4 8 10v39c0 97 56 164 145 164h26
c44 0 74 -14 97 -35c13 -13 24 -29 32 -46c4 -6 2 -11 -4 -14l-33 -21c-4 -2 -8 -1 -10 3c-20 34 -50 55 -76 55h-24c-48 0 -85 -46 -85 -106v-39c0 -6 3 -10 8 -10h126c6 0 8 -3 8 -10v-38c0 -7 -2 -10 -8 -10h-126c-5 0 -8 -4 -8 -10v-89c0 -6 3 -10 8 -10h126
c6 0 8 -3 8 -10v-37c0 -7 -2 -10 -8 -10h-126c-5 0 -8 -4 -8 -10v-40c0 -58 37 -106 85 -106h24c27 0 57 22 76 57c2 5 6 5 10 3l33 -21c6 -3 8 -8 4 -14z" />
    <glyph glyph-name="yen" unicode="&#xa5;" horiz-adv-x="430" 
d="M395 103c0 -7 -2 -10 -8 -10h-127c-7 0 -10 -3 -10 -10v-73c0 -7 -3 -10 -10 -10h-48c-7 0 -10 3 -10 10v73c0 7 -3 10 -10 10h-128c-6 0 -8 3 -8 10v37c0 7 2 10 8 10h128c7 0 10 3 10 10v89c0 7 -3 10 -10 10h-128c-6 0 -8 3 -8 10v38c0 7 2 10 8 10h108c6 0 9 3 9 8
c0 4 -2 9 -4 13l-112 263c-3 8 -7 16 -7 20c0 5 3 8 9 8h49c3 0 5 -3 7 -6l105 -252c2 -5 5 -8 8 -8s6 3 8 8l103 252c2 3 5 6 8 6h48c6 0 10 -3 10 -8c0 -4 -5 -16 -11 -28l-109 -255c-2 -4 -4 -9 -4 -13c0 -5 3 -8 9 -8h109c6 0 8 -3 8 -10v-38c0 -7 -2 -10 -8 -10h-127
c-7 0 -10 -3 -10 -10v-89c0 -7 3 -10 10 -10h127c6 0 8 -3 8 -10v-37z" />
    <glyph glyph-name="brokenbar" unicode="&#xa6;" horiz-adv-x="201" 
d="M124 365h-46v368h46v-368zM124 -187h-46v368h46v-368z" />
    <glyph glyph-name="section" unicode="&#xa7;" 
d="M384 -70c0 -96 -60 -164 -152 -164h-38c-58 0 -94 23 -118 56c-10 13 -18 26 -18 31c0 4 3 7 6 9l29 17c3 2 7 5 10 5s5 -2 7 -5c20 -36 50 -56 79 -56h37c49 0 90 49 90 107c0 146 -251 102 -251 323c0 34 7 65 27 95c3 5 10 13 10 17c0 5 -9 14 -12 19
c-18 27 -25 56 -25 92c0 97 58 164 150 164h15c57 0 92 -22 116 -54c8 -11 19 -27 19 -32c0 -4 -2 -7 -5 -9l-31 -18c-3 -2 -6 -4 -9 -4s-4 1 -6 4c-21 34 -51 55 -79 55h-14c-49 0 -89 -46 -89 -106c0 -129 252 -89 252 -322c0 -32 -7 -59 -23 -85c-3 -5 -13 -16 -13 -22
c0 -5 9 -17 12 -22c16 -29 24 -59 24 -95zM316 154c0 81 -68 109 -140 153c-9 6 -17 13 -21 13c-2 0 -5 -2 -7 -5c-13 -24 -16 -41 -16 -62c0 -74 71 -99 145 -148c6 -4 15 -11 19 -11c3 0 6 2 8 6c10 22 12 38 12 54z" />
    <glyph glyph-name="dieresis" unicode="&#xa8;" horiz-adv-x="435" 
d="M335 558c0 -24 -21 -45 -45 -45c-25 0 -43 20 -43 45s18 43 43 43s45 -18 45 -43zM187 558c0 -25 -19 -45 -44 -45s-44 20 -44 45s19 43 44 43s44 -18 44 -43z" />
    <glyph glyph-name="copyright" unicode="&#xa9;" horiz-adv-x="589" 
d="M525 94c0 -100 -60 -170 -154 -170h-153c-94 0 -154 70 -154 170v291c0 100 60 170 154 170h153c94 0 154 -70 154 -170v-291zM480 95v289c0 74 -43 125 -111 125h-149c-68 0 -111 -51 -111 -125v-289c0 -74 43 -125 111 -125h149c68 0 111 51 111 125zM390 141
c0 -5 -4 -16 -12 -26c-17 -23 -43 -39 -84 -39c-65 0 -107 49 -107 120v100c0 71 42 118 107 118c39 0 63 -14 79 -34c8 -11 16 -25 16 -30c0 -3 -1 -5 -4 -7l-19 -12c-3 -2 -6 -4 -8 -4s-5 1 -7 4c-14 25 -33 37 -52 37c-33 0 -59 -32 -59 -73v-98c0 -40 27 -74 59 -74
c19 0 38 13 52 39c2 3 5 5 7 5s5 -3 8 -5l20 -13c3 -2 4 -5 4 -8z" />
    <glyph glyph-name="ordfeminine" unicode="&#xaa;" horiz-adv-x="277" 
d="M242 327c0 -9 -3 -12 -12 -12h-26c-9 0 -12 3 -12 12v26c0 4 0 7 -3 7s-4 -2 -6 -5c-16 -23 -39 -40 -55 -40h-24c-45 0 -81 34 -81 87v4c0 53 35 86 80 86h75c3 0 6 3 6 8v22c0 39 -26 68 -59 68c-22 0 -42 -13 -54 -35c-3 -4 -5 -7 -8 -7s-5 2 -8 4l-22 13
c-3 2 -6 6 -6 10c0 5 7 18 14 27c18 22 44 38 87 38c69 0 114 -47 114 -118v-195zM184 422v20c0 4 -2 7 -5 7h-70c-16 0 -30 -16 -30 -36v-11c0 -20 14 -37 30 -37h22c24 0 45 30 53 57z" />
    <glyph glyph-name="guillemotleft" unicode="&#xab;" horiz-adv-x="466" 
d="M414 114c0 -7 -3 -11 -7 -11c-2 0 -4 1 -6 3l-163 136c-2 2 -4 5 -4 8v55c0 3 2 6 4 8l163 135c2 2 4 3 6 3c4 0 7 -4 7 -11v-42c0 -3 -1 -6 -3 -8l-116 -104c-2 -3 -4 -5 -4 -8s2 -5 4 -8l116 -105c2 -2 3 -5 3 -8v-43zM223 115c0 -7 -3 -11 -7 -11c-2 0 -4 1 -6 3
l-161 135c-2 2 -4 5 -4 8v55c0 3 2 6 4 8l161 135c2 2 4 3 6 3c4 0 7 -4 7 -11v-42c0 -3 -2 -6 -4 -8l-115 -104c-2 -3 -4 -5 -4 -8s2 -5 4 -8l115 -105c2 -2 4 -5 4 -8v-42z" />
    <glyph glyph-name="logicalnot" unicode="&#xac;" horiz-adv-x="418" 
d="M383 129c0 -7 -3 -10 -10 -10h-30c-7 0 -10 3 -10 10v167c0 7 -2 10 -8 10h-281c-6 0 -8 3 -8 10v27c0 7 2 10 8 10h329c7 0 10 -3 10 -10v-214z" />
    <glyph glyph-name="minus" unicode="&#x2212;" horiz-adv-x="408" 
d="M373 222c0 -7 -2 -10 -8 -10h-321c-6 0 -8 3 -8 10v27c0 7 2 10 8 10h321c6 0 8 -3 8 -10v-27z" />
    <glyph glyph-name="registered" unicode="&#xae;" horiz-adv-x="359" 
d="M337 440c0 -100 -60 -170 -155 -170h-4c-95 0 -156 70 -156 170v20c0 100 61 170 156 170h4c95 0 155 -70 155 -170v-20zM307 440v20c0 83 -49 140 -125 140h-4c-76 0 -126 -57 -126 -140v-20c0 -83 50 -140 126 -140h4c76 0 125 57 125 140zM245 481
c0 -16 -13 -35 -26 -45c-3 -2 -4 -4 -4 -7s2 -6 3 -9l21 -42c2 -3 4 -7 4 -10c0 -5 -4 -8 -11 -8h-16c-4 0 -7 2 -9 6l-17 53c-2 4 -4 6 -7 6h-20c-5 0 -8 -3 -8 -10v-45c0 -7 -3 -10 -10 -10h-11c-7 0 -10 3 -10 10v168c0 7 3 10 9 10h56c34 0 56 -25 56 -63v-4zM213 485v2
c0 18 -10 32 -24 32h-26c-6 0 -8 -3 -8 -10v-46c0 -7 2 -10 8 -10h26c14 0 24 14 24 32z" />
    <glyph glyph-name="macron" unicode="&#xaf;" horiz-adv-x="442" 
d="M328 544c0 -7 -3 -10 -10 -10h-194c-7 0 -10 3 -10 10v37c0 7 3 10 10 10h194c7 0 10 -3 10 -10v-37z" />
    <glyph glyph-name="degree" unicode="&#xb0;" horiz-adv-x="232" 
d="M198 455c0 -50 -32 -85 -82 -85s-82 35 -82 85v100c0 50 32 85 82 85s82 -35 82 -85v-100zM148 455v100c0 21 -15 40 -32 40s-32 -19 -32 -40v-100c0 -21 15 -40 32 -40s32 19 32 40z" />
    <glyph glyph-name="plusminus" unicode="&#xb1;" horiz-adv-x="417" 
d="M382 291c0 -7 -2 -10 -8 -10h-134c-6 0 -8 -3 -8 -10v-167c0 -7 -3 -10 -10 -10h-26c-7 0 -10 3 -10 10v167c0 7 -2 10 -8 10h-134c-6 0 -8 3 -8 10v27c0 7 2 10 8 10h134c6 0 8 3 8 10v167c0 7 3 10 10 10h26c7 0 10 -3 10 -10v-167c0 -7 2 -10 8 -10h134
c6 0 8 -3 8 -10v-27zM382 10c0 -7 -2 -10 -8 -10h-330c-6 0 -8 3 -8 10v27c0 7 2 10 8 10h330c6 0 8 -3 8 -10v-27z" />
    <glyph glyph-name="twosuperior" unicode="&#xb2;" horiz-adv-x="292" 
d="M253 467c0 -69 -52 -80 -94 -98c-35 -16 -63 -26 -63 -58v-7c0 -4 2 -5 6 -5h143c3 0 5 -1 5 -5v-39c0 -4 -1 -5 -5 -5h-200c-4 0 -6 1 -6 5v41c0 75 47 96 88 113c43 18 71 23 71 59c0 30 -17 54 -51 54h-22c-18 0 -35 -13 -48 -36c-2 -2 -4 -5 -7 -2l-36 17
c-5 3 -4 7 -3 9c21 40 49 62 96 62h23c66 0 103 -43 103 -105z" />
    <glyph glyph-name="threesuperior" unicode="&#xb3;" horiz-adv-x="281" 
d="M244 327c0 -71 -39 -115 -100 -115h-17c-49 0 -74 23 -91 59c-2 4 -1 8 3 10l30 18c2 2 5 0 7 -3c12 -24 29 -37 47 -37h15c27 0 50 29 50 63v22c0 34 -23 61 -50 61h-41c-3 0 -5 2 -5 7v35c0 4 2 6 5 6h41c29 0 50 28 50 62v10c0 35 -23 62 -50 62h-15
c-18 0 -35 -12 -47 -36c-2 -4 -6 -5 -8 -3l-29 18c-4 3 -5 6 -3 10c17 36 42 59 91 59h17c61 0 100 -46 100 -116v-11c0 -37 -29 -67 -55 -76c-1 -1 0 -3 0 -3c21 -9 55 -40 55 -83v-19z" />
    <glyph glyph-name="acute" unicode="&#xb4;" horiz-adv-x="431" 
d="M330 612c0 -3 -1 -5 -4 -8l-114 -103c-4 -4 -6 -5 -11 -5h-20c-7 0 -11 3 -11 8c0 3 1 5 3 8l69 103c2 3 7 6 11 6h66c7 0 11 -4 11 -9z" />
    <glyph glyph-name="mu" unicode="&#xb5;" horiz-adv-x="409" 
d="M354 10c0 -7 -3 -10 -10 -10h-37c-7 0 -10 3 -10 10v43c0 7 -3 11 -7 11c-2 0 -6 -1 -8 -5c-29 -46 -60 -59 -81 -59c-29 0 -55 8 -76 22c-6 4 -9 0 -9 -6v-166c0 -7 -3 -10 -10 -10h-47c-7 0 -10 3 -10 10v582c0 7 3 10 10 10h47c7 0 10 -3 10 -10v-268
c0 -58 39 -107 85 -107c48 0 86 47 86 107v268c0 7 3 10 10 10h47c7 0 10 -3 10 -10v-422z" />
    <glyph glyph-name="paragraph" unicode="&#xb6;" horiz-adv-x="566" 
d="M502 -215c0 -7 -3 -10 -10 -10h-47c-7 0 -10 3 -10 10v777c0 7 -2 10 -8 10h-80c-6 0 -8 -3 -8 -10v-777c0 -7 -3 -10 -10 -10h-48c-7 0 -10 3 -10 10v299c0 7 -3 10 -10 10h-34c-106 0 -174 70 -174 164v198c0 105 64 173 165 173h274c7 0 10 -3 10 -10v-834z" />
    <glyph glyph-name="periodcentered" unicode="&#xb7;" horiz-adv-x="427" 
d="M263 236c0 -27 -23 -50 -50 -50c-26 0 -48 24 -48 50s22 49 48 49c28 0 50 -21 50 -49z" />
    <glyph glyph-name="cedilla" unicode="&#xb8;" horiz-adv-x="419" 
d="M269 -150c0 -51 -42 -84 -92 -84h-31c-6 0 -8 3 -8 10v16c0 7 2 10 8 10h31c26 0 47 21 47 48v9c0 27 -21 40 -50 48c-5 1 -7 4 -7 8c0 3 3 10 6 16l40 85c2 4 5 6 9 6l22 -4c6 -1 8 -4 8 -8s-3 -9 -5 -14l-23 -48c-3 -5 -5 -10 -5 -13c0 -4 2 -6 6 -8
c27 -13 44 -31 44 -63v-14z" />
    <glyph glyph-name="onesuperior" unicode="&#xb9;" horiz-adv-x="280" 
d="M242 256c0 -4 -2 -6 -5 -6h-173c-3 0 -5 2 -5 6v37c0 4 2 6 5 6h53c5 0 6 2 6 7v159c0 6 -4 9 -8 4l-30 -36c-3 -3 -5 -3 -7 0l-20 25c-3 3 -3 6 0 9l88 103s4 2 5 2h21c4 0 6 -2 6 -7v-259c0 -5 2 -7 6 -7h53c3 0 5 -2 5 -6v-37z" />
    <glyph glyph-name="ordmasculine" unicode="&#xba;" horiz-adv-x="279" 
d="M253 427c0 -71 -45 -120 -114 -120s-112 49 -112 120v94c0 71 43 119 112 119s114 -48 114 -119v-94zM195 427v94c0 38 -26 69 -56 69s-55 -30 -55 -69v-94c0 -38 25 -70 55 -70s56 32 56 70z" />
    <glyph glyph-name="guillemotright" unicode="&#xbb;" horiz-adv-x="466" 
d="M423 250c0 -3 -2 -6 -4 -8l-161 -135c-2 -2 -5 -3 -7 -3c-4 0 -6 4 -6 11v42c0 3 1 6 3 8l116 105c2 3 4 5 4 8s-2 5 -4 8l-116 104c-2 2 -3 5 -3 8v42c0 7 2 11 6 11c2 0 5 -1 7 -3l161 -135c2 -2 4 -5 4 -8v-55zM234 250c0 -3 -2 -6 -4 -8l-164 -135c-2 -2 -4 -3 -6 -3
c-4 0 -6 4 -6 11v42c0 3 1 6 3 8l116 105c2 3 4 5 4 8s-2 5 -4 8l-116 104c-2 2 -3 5 -3 8v42c0 7 2 11 6 11c2 0 4 -1 6 -3l164 -135c2 -2 4 -5 4 -8v-55z" />
    <glyph glyph-name="onequarter" unicode="&#xbc;" horiz-adv-x="769" 
d="M506 616l-209 -610c-2 -4 -4 -6 -7 -6h-20c-7 0 -11 5 -7 14l209 610c2 4 4 6 7 6h19c7 0 12 -5 8 -14zM656 10c0 -4 -2 -6 -6 -6h-37c-4 0 -5 -2 -5 -7v-87c0 -4 -2 -6 -7 -6h-43c-4 0 -6 2 -6 6v87c0 4 -2 7 -6 7h-133c-4 0 -6 2 -6 6v44l150 256c1 2 2 3 5 3h40
c3 0 6 -1 6 -6v-249c0 -4 1 -7 5 -7h37c4 0 6 -2 6 -6v-35zM276 256c0 -4 -2 -6 -5 -6h-173c-4 0 -6 2 -6 6v37c0 4 2 6 6 6h53c4 0 6 2 6 7v159c0 6 -4 9 -8 4l-30 -36c-3 -3 -5 -3 -7 0l-20 25c-2 3 -3 6 0 9l88 103c1 0 4 2 5 2h21c4 0 6 -2 6 -7v-259c0 -5 2 -7 6 -7h53
c3 0 5 -2 5 -6v-37zM553 58v169c0 6 -6 8 -8 4l-91 -170c-4 -6 -2 -10 4 -10h89c4 0 6 2 6 7z" />
    <glyph glyph-name="onehalf" unicode="&#xbd;" horiz-adv-x="781" 
d="M662 215c0 -69 -52 -79 -94 -97c-35 -16 -63 -26 -63 -58v-7c0 -4 2 -5 7 -5h142c3 0 5 -1 5 -5v-38c0 -4 -1 -5 -5 -5h-200c-4 0 -6 1 -6 5v41c0 75 47 94 89 112c42 17 70 23 70 59c0 30 -17 54 -50 54h-23c-18 0 -35 -13 -48 -36c-1 -2 -4 -5 -7 -2l-37 17
c-4 3 -3 7 -2 9c21 40 49 61 95 61h25c65 0 102 -43 102 -105zM517 616l-219 -610c-2 -4 -4 -6 -7 -6h-20c-8 0 -12 5 -8 14l219 610c2 4 4 6 7 6h21c8 0 11 -5 7 -14zM276 256c0 -4 -2 -6 -5 -6h-173c-4 0 -6 2 -6 6v37c0 4 2 6 6 6h53c4 0 6 2 6 7v159c0 6 -4 9 -8 4
l-30 -36c-3 -3 -5 -3 -7 0l-20 24c-2 3 -3 7 0 10l88 103c1 0 4 2 5 2h21c4 0 6 -2 6 -7v-259c0 -5 2 -7 6 -7h53c3 0 5 -2 5 -6v-37z" />
    <glyph glyph-name="threequarters" unicode="&#xbe;" horiz-adv-x="769" 
d="M506 616l-216 -610c-2 -4 -5 -6 -8 -6h-20c-7 0 -11 5 -7 14l216 610c2 4 4 6 7 6h20c7 0 12 -5 8 -14zM656 10c0 -4 -2 -6 -6 -6h-37c-4 0 -5 -2 -5 -7v-87c0 -4 -2 -6 -7 -6h-43c-4 0 -6 2 -6 6v87c0 4 -2 7 -6 7h-133c-4 0 -6 2 -6 6v44l150 256c1 2 2 3 5 3h40
c3 0 6 -1 6 -6v-249c0 -4 1 -7 5 -7h37c4 0 6 -2 6 -6v-35zM298 326c0 -71 -40 -115 -101 -115h-16c-49 0 -73 24 -90 60c-2 4 -3 8 2 10l30 18c3 2 5 0 6 -3c13 -24 30 -37 48 -37h15c28 0 50 29 50 63v22c0 34 -22 61 -50 61h-40c-3 0 -5 2 -5 7v35c0 4 2 6 5 6h40
c29 0 50 28 50 62v10c0 35 -22 62 -50 62h-15c-18 0 -35 -12 -48 -36c-1 -4 -4 -5 -6 -3l-30 18c-5 3 -4 6 -2 10c17 36 41 59 90 59h16c61 0 101 -46 101 -116v-11c0 -37 -29 -67 -55 -76c-1 -1 -1 -3 0 -3c21 -9 55 -41 55 -84v-19zM553 58v169c0 6 -6 8 -8 4l-91 -170
c-4 -6 -2 -10 4 -10h89c4 0 6 2 6 7z" />
    <glyph glyph-name="questiondown" unicode="&#xbf;" horiz-adv-x="441" 
d="M302 408c0 -26 -23 -50 -49 -50c-28 0 -50 22 -50 50s22 49 50 49c26 0 49 -23 49 -49zM385 -111c0 -4 -10 -23 -20 -36c-24 -31 -59 -52 -118 -52h-36c-95 0 -155 68 -155 165c0 110 59 134 106 159c41 22 74 42 74 98c0 7 -1 16 -1 22s4 9 10 9h48c6 0 10 -3 10 -9
c1 -17 1 -28 1 -37c0 -87 -57 -108 -104 -134c-41 -23 -77 -48 -77 -108s43 -106 93 -106h35c29 0 60 19 81 55c2 3 4 5 7 5s4 -1 6 -2l35 -21c3 -2 5 -5 5 -8z" />
    <glyph glyph-name="Agrave" unicode="&#xc0;" horiz-adv-x="360" 
d="M217 692c0 -3 -2 -5 -5 -5h-22c-5 0 -8 2 -11 5l-92 84c-2 2 -4 4 -4 6c0 4 3 7 7 7h63c6 0 9 -2 11 -6l52 -86c1 -2 1 -4 1 -5zM353 8c0 -5 -3 -8 -8 -8h-39c-4 0 -7 2 -8 7l-31 137c-1 5 -3 6 -7 6h-143c-4 0 -7 -1 -8 -6l-31 -137c-1 -5 -5 -7 -10 -7h-50
c-7 0 -11 3 -11 8s4 16 6 25l133 589c1 5 6 7 12 7h45c6 0 10 -2 11 -7l132 -583c4 -15 7 -27 7 -31zM251 217l-59 261c-1 5 -7 31 -9 39h11c-2 -8 -7 -33 -9 -39l-59 -261c0 -5 3 -9 8 -9h109c5 0 8 4 8 9z" />
    <glyph glyph-name="Aacute" unicode="&#xc1;" horiz-adv-x="360" 
d="M291 782c0 -2 -2 -4 -4 -6l-92 -84c-3 -3 -6 -5 -11 -5h-22c-3 0 -6 2 -6 5c0 1 1 3 2 5l52 86c2 4 5 6 11 6h63c4 0 7 -3 7 -7zM353 8c0 -5 -3 -8 -8 -8h-39c-4 0 -7 2 -8 7l-31 137c-1 5 -3 6 -7 6h-143c-4 0 -7 -1 -8 -6l-31 -137c-1 -5 -5 -7 -10 -7h-50
c-7 0 -11 3 -11 8s4 16 6 25l133 589c1 5 6 7 12 7h45c6 0 10 -2 11 -7l132 -583c4 -15 7 -27 7 -31zM251 217l-59 261c-1 5 -7 31 -9 39h11c-2 -8 -7 -33 -9 -39l-59 -261c0 -5 3 -9 8 -9h109c5 0 8 4 8 9z" />
    <glyph glyph-name="Acircumflex" unicode="&#xc2;" horiz-adv-x="360" 
d="M269 690c0 -3 -3 -5 -6 -5h-34c-4 0 -6 2 -8 6l-29 55c-2 3 -3 4 -5 4s-3 -2 -5 -4l-29 -55c-2 -4 -5 -6 -9 -6h-33c-3 0 -6 2 -6 5c0 1 1 2 2 4l52 90c2 4 5 5 9 5h38c4 0 7 -1 9 -5l52 -90c1 -2 2 -3 2 -4zM353 8c0 -5 -3 -8 -8 -8h-39c-4 0 -7 2 -8 7l-31 137
c-1 5 -3 6 -7 6h-143c-4 0 -7 -1 -8 -6l-31 -137c-1 -5 -5 -7 -10 -7h-50c-7 0 -11 3 -11 8s4 16 6 25l133 589c1 5 6 7 12 7h45c6 0 10 -2 11 -7l132 -583c4 -15 7 -27 7 -31zM251 217l-59 261c-1 5 -7 31 -9 39h11c-2 -8 -7 -33 -9 -39l-59 -261c0 -5 3 -9 8 -9h109
c5 0 8 4 8 9z" />
    <glyph glyph-name="Atilde" unicode="&#xc3;" horiz-adv-x="360" 
d="M287 755c0 -3 -7 -13 -11 -20c-18 -30 -33 -42 -52 -42c-34 0 -52 37 -79 37c-10 0 -20 -5 -35 -24c-2 -3 -4 -4 -6 -4s-5 2 -7 4l-9 9c-3 3 -5 5 -5 8s6 12 12 21c17 27 31 37 49 37c34 0 51 -35 78 -35c14 0 24 7 39 28c2 2 3 4 5 4s5 -2 7 -5l10 -10c2 -3 4 -5 4 -8z
M353 8c0 -5 -3 -8 -8 -8h-39c-4 0 -7 2 -8 7l-31 137c-1 5 -3 6 -7 6h-143c-4 0 -7 -1 -8 -6l-31 -137c-1 -5 -5 -7 -10 -7h-50c-7 0 -11 3 -11 8s4 16 6 25l133 589c1 5 6 7 12 7h45c6 0 10 -2 11 -7l132 -583c4 -15 7 -27 7 -31zM251 217l-59 261c-1 5 -7 31 -9 39h11
c-2 -8 -7 -33 -9 -39l-59 -261c0 -5 3 -9 8 -9h109c5 0 8 4 8 9z" />
    <glyph glyph-name="Adieresis" unicode="&#xc4;" horiz-adv-x="386" 
d="M313 738c0 -22 -19 -43 -42 -43c-25 0 -39 20 -39 43c0 21 17 41 39 41c24 0 42 -18 42 -41zM176 738c0 -22 -19 -43 -42 -43c-25 0 -39 20 -39 43c0 21 15 41 39 41s42 -18 42 -41zM380 8c0 -5 -4 -8 -9 -8h-38c-4 0 -7 2 -8 7l-33 137c-1 5 -5 6 -9 6h-163
c-4 0 -7 -1 -8 -6l-34 -137c-1 -5 -5 -7 -10 -7h-50c-7 0 -11 3 -11 8s4 16 6 25l144 589c1 5 6 7 12 7h48c6 0 12 -2 13 -7l143 -583c4 -15 7 -27 7 -31zM274 217l-64 261c-1 5 -8 31 -10 39h3c-2 -8 -8 -33 -10 -39l-64 -261c0 -5 4 -9 10 -9h125c6 0 10 4 10 9z" />
    <glyph glyph-name="Aring" unicode="&#xc5;" horiz-adv-x="383" 
d="M377 8c0 -5 -4 -8 -9 -8h-39c-4 0 -7 2 -8 7l-32 138c-1 5 -5 6 -9 6h-161c-4 0 -7 -1 -8 -6l-33 -138c-1 -5 -5 -7 -10 -7h-50c-7 0 -11 3 -11 8s4 16 6 25l128 543c8 6 21 14 21 17s-2 5 -6 8c-21 13 -33 36 -33 65v31c0 45 30 75 77 75s79 -30 79 -75v-31
c0 -29 -14 -52 -35 -65c-5 -3 -6 -6 -6 -9c0 -4 3 -10 5 -16l126 -537c4 -15 8 -27 8 -31zM249 666v31c0 28 -20 45 -49 45s-47 -17 -47 -45v-31c0 -28 18 -46 47 -46s49 18 49 46zM272 217l-62 261c-1 5 -7 31 -9 39h-2c-2 -8 -8 -33 -10 -39l-61 -261c0 -5 3 -9 9 -9h125
c6 0 10 4 10 9z" />
    <glyph glyph-name="AE" unicode="&#xc6;" horiz-adv-x="578" 
d="M540 10c0 -7 -2 -10 -8 -10h-275c-7 0 -10 3 -10 10v130c0 7 -2 10 -8 10h-154c-5 0 -8 -3 -10 -9l-61 -136c-2 -3 -6 -5 -8 -5h-36c-6 0 -9 3 -9 8c0 3 -1 4 1 7l300 609c2 3 6 5 8 5h262c6 0 8 -3 8 -10v-37c0 -7 -2 -10 -8 -10h-209c-6 0 -8 -3 -8 -10v-204
c0 -7 2 -10 8 -10h171c6 0 8 -3 8 -10v-38c0 -7 -2 -10 -8 -10h-171c-6 0 -8 -3 -8 -10v-213c0 -7 2 -10 8 -10h209c6 0 8 -3 8 -10v-37zM250 516l-4 1c-2 -8 -12 -31 -14 -35l-119 -259c-1 -3 -2 -4 -2 -7c0 -5 3 -8 9 -8h119c6 0 8 3 8 10v66c0 79 1 208 3 232z" />
    <glyph glyph-name="Ccedilla" unicode="&#xc7;" horiz-adv-x="404" 
d="M375 77c0 -4 -10 -21 -20 -34c-23 -31 -57 -53 -113 -53c-8 0 -11 -4 -14 -10l-13 -32c-2 -5 -4 -10 -4 -13c0 -4 2 -6 6 -8c27 -13 44 -31 44 -63v-14c0 -51 -42 -84 -92 -84h-31c-6 0 -8 3 -8 10v16c0 7 2 10 8 10h31c26 0 47 21 47 48v9c0 27 -21 40 -50 48
c-5 1 -7 4 -7 8c0 3 3 10 6 16l17 36c3 6 5 11 5 17c0 5 -3 8 -8 9c-78 14 -126 76 -126 161v322c0 97 60 164 155 164h28c59 0 94 -22 119 -53c9 -11 20 -29 20 -33s-3 -7 -6 -9l-33 -19c-3 -2 -5 -3 -8 -3s-4 1 -6 4c-22 34 -53 55 -82 55h-27c-52 0 -92 -46 -92 -106
v-322c0 -58 40 -107 92 -107h27c29 0 61 22 82 57c2 3 3 4 6 4s5 -1 8 -3l33 -19c3 -2 6 -5 6 -9z" />
    <glyph glyph-name="Egrave" unicode="&#xc8;" horiz-adv-x="396" 
d="M250 692c0 -3 -2 -5 -5 -5h-23c-5 0 -8 2 -11 5l-95 84c-2 2 -3 4 -3 6c0 4 2 7 6 7h65c6 0 9 -2 11 -6l54 -86c1 -2 1 -4 1 -5zM358 10c0 -7 -2 -10 -8 -10h-274c-7 0 -10 3 -10 10v609c0 7 3 10 10 10h274c6 0 8 -3 8 -10v-37c0 -7 -2 -10 -8 -10h-209
c-6 0 -8 -3 -8 -10v-204c0 -7 2 -10 8 -10h171c6 0 8 -3 8 -10v-38c0 -7 -2 -10 -8 -10h-171c-6 0 -8 -3 -8 -10v-213c0 -7 2 -10 8 -10h209c6 0 8 -3 8 -10v-37z" />
    <glyph glyph-name="Eacute" unicode="&#xc9;" horiz-adv-x="396" 
d="M323 782c0 -2 -1 -4 -3 -6l-92 -84c-3 -3 -6 -5 -11 -5h-22c-3 0 -6 2 -6 5c0 1 1 3 2 5l52 86c2 4 5 6 11 6h63c4 0 6 -3 6 -7zM358 10c0 -7 -2 -10 -8 -10h-274c-7 0 -10 3 -10 10v609c0 7 3 10 10 10h274c6 0 8 -3 8 -10v-37c0 -7 -2 -10 -8 -10h-209
c-6 0 -8 -3 -8 -10v-204c0 -7 2 -10 8 -10h171c6 0 8 -3 8 -10v-38c0 -7 -2 -10 -8 -10h-171c-6 0 -8 -3 -8 -10v-213c0 -7 2 -10 8 -10h209c6 0 8 -3 8 -10v-37z" />
    <glyph glyph-name="Ecircumflex" unicode="&#xca;" horiz-adv-x="396" 
d="M302 690c0 -3 -3 -5 -6 -5h-34c-4 0 -6 2 -8 6l-29 55c-2 3 -3 4 -5 4s-3 -2 -5 -4l-29 -55c-2 -4 -5 -6 -9 -6h-33c-3 0 -6 2 -6 5c0 1 1 2 2 4l52 90c2 4 5 5 9 5h38c4 0 7 -1 9 -5l52 -90c1 -2 2 -3 2 -4zM358 10c0 -7 -2 -10 -8 -10h-274c-7 0 -10 3 -10 10v609
c0 7 3 10 10 10h274c6 0 8 -3 8 -10v-37c0 -7 -2 -10 -8 -10h-209c-6 0 -8 -3 -8 -10v-204c0 -7 2 -10 8 -10h171c6 0 8 -3 8 -10v-38c0 -7 -2 -10 -8 -10h-171c-6 0 -8 -3 -8 -10v-213c0 -7 2 -10 8 -10h209c6 0 8 -3 8 -10v-37z" />
    <glyph glyph-name="Edieresis" unicode="&#xcb;" horiz-adv-x="427" 
d="M344 738c0 -22 -19 -43 -42 -43c-25 0 -39 20 -39 43c0 21 17 41 39 41c24 0 42 -18 42 -41zM207 738c0 -22 -19 -43 -42 -43c-25 0 -39 20 -39 43c0 21 15 41 39 41s42 -18 42 -41zM389 10c0 -7 -2 -10 -8 -10h-305c-7 0 -10 3 -10 10v609c0 7 3 10 10 10h305
c6 0 8 -3 8 -10v-37c0 -7 -2 -10 -8 -10h-238c-7 0 -10 -3 -10 -10v-204c0 -7 3 -10 10 -10h200c6 0 8 -3 8 -10v-38c0 -7 -2 -10 -8 -10h-200c-7 0 -10 -3 -10 -10v-213c0 -7 3 -10 10 -10h238c6 0 8 -3 8 -10v-37z" />
    <glyph glyph-name="Igrave" unicode="&#xcc;" horiz-adv-x="197" 
d="M137 692c0 -3 -3 -5 -7 -5h-23c-5 0 -9 2 -13 5l-101 84c-3 2 -3 4 -3 6c0 4 3 7 7 7h69c6 0 9 -2 12 -6l57 -86c1 -2 2 -4 2 -5zM133 10c0 -7 -3 -10 -10 -10h-47c-7 0 -10 3 -10 10v609c0 7 3 10 10 10h47c7 0 10 -3 10 -10v-609z" />
    <glyph glyph-name="Iacute" unicode="&#xcd;" horiz-adv-x="197" 
d="M209 782c0 -2 0 -4 -3 -6l-101 -84c-4 -3 -8 -5 -13 -5h-23c-4 0 -7 2 -7 5c0 1 1 3 2 5l57 86c3 4 6 6 12 6h69c4 0 7 -3 7 -7zM132 10c0 -7 -3 -10 -10 -10h-47c-7 0 -10 3 -10 10v609c0 7 3 10 10 10h47c7 0 10 -3 10 -10v-609z" />
    <glyph glyph-name="Icircumflex" unicode="&#xce;" horiz-adv-x="196" 
d="M187 690c0 -3 -3 -5 -6 -5h-37c-4 0 -6 2 -9 6l-31 55c-2 3 -3 4 -5 4s-3 -2 -5 -4l-31 -55c-3 -4 -6 -6 -10 -6h-36c-3 0 -6 2 -6 5c0 1 1 2 2 4l56 90c3 4 5 5 9 5h42c4 0 6 -1 9 -5l56 -90c1 -2 2 -3 2 -4zM132 10c0 -7 -3 -10 -10 -10h-47c-7 0 -10 3 -10 10v609
c0 7 3 10 10 10h47c7 0 10 -3 10 -10v-609z" />
    <glyph glyph-name="Idieresis" unicode="&#xcf;" horiz-adv-x="230" 
d="M232 738c0 -22 -19 -43 -42 -43c-25 0 -39 20 -39 43c0 21 17 41 39 41c24 0 42 -18 42 -41zM81 738c0 -22 -19 -43 -42 -43c-25 0 -39 20 -39 43c0 21 15 41 39 41s42 -18 42 -41zM149 10c0 -7 -3 -10 -10 -10h-47c-7 0 -10 3 -10 10v609c0 7 3 10 10 10h47
c7 0 10 -3 10 -10v-609z" />
    <glyph glyph-name="Eth" unicode="&#xd0;" horiz-adv-x="447" 
d="M396 175c0 -107 -61 -175 -153 -175h-168c-6 0 -9 3 -9 10v265c0 6 -3 9 -7 9h-34c-6 0 -8 3 -8 10v39c0 7 2 10 8 10h34c5 0 7 4 7 9v267c0 7 3 10 9 10h168c92 0 153 -67 153 -173v-281zM329 164v302c0 58 -39 106 -87 106h-101c-6 0 -8 -3 -8 -10v-210c0 -6 2 -9 7 -9
h62c6 0 8 -3 8 -10v-39c0 -7 -2 -10 -8 -10h-63c-5 0 -6 -3 -6 -8v-209c0 -7 2 -10 8 -10h101c48 0 87 47 87 107z" />
    <glyph glyph-name="Ntilde" unicode="&#xd1;" horiz-adv-x="472" 
d="M337 755c0 -3 -6 -13 -10 -20c-18 -30 -33 -42 -52 -42c-34 0 -51 37 -78 37c-10 0 -21 -5 -36 -24c-2 -3 -4 -4 -6 -4s-4 2 -6 4l-9 9c-3 3 -5 5 -5 8s5 12 11 21c17 27 31 37 49 37c34 0 51 -35 78 -35c14 0 24 7 39 28c2 2 3 4 5 4s5 -2 7 -5l9 -10c2 -3 4 -5 4 -8z
M409 10c0 -7 -3 -10 -9 -10h-39c-3 0 -6 2 -8 5l-204 440c-3 7 -13 28 -16 36l-3 -1c2 -24 3 -153 3 -232v-238c0 -7 -3 -10 -10 -10h-47c-7 0 -10 3 -10 10v609c0 7 2 10 8 10h39c3 0 5 -2 7 -5l205 -445c3 -5 12 -28 15 -36l4 1c-2 24 -3 153 -3 232v243c0 7 3 10 10 10
h48c7 0 10 -3 10 -10v-609z" />
    <glyph glyph-name="Ograve" unicode="&#xd2;" 
d="M248 692c0 -3 -3 -5 -6 -5h-22c-5 0 -8 2 -11 5l-93 84c-2 2 -3 4 -3 6c0 4 2 7 6 7h64c6 0 9 -2 11 -6l52 -86c1 -2 2 -4 2 -5zM384 154c0 -97 -61 -164 -153 -164h-27c-92 0 -151 67 -151 164v322c0 97 59 164 151 164h27c92 0 153 -67 153 -164v-322zM316 154v322
c0 60 -40 106 -86 106h-24c-48 0 -85 -46 -85 -106v-322c0 -58 37 -107 85 -107h24c46 0 86 49 86 107z" />
    <glyph glyph-name="Oacute" unicode="&#xd3;" 
d="M322 782c0 -2 -1 -4 -3 -6l-93 -84c-3 -3 -6 -5 -11 -5h-22c-3 0 -6 2 -6 5c0 1 1 3 2 5l52 86c2 4 5 6 11 6h63c4 0 7 -3 7 -7zM384 154c0 -97 -61 -164 -153 -164h-27c-92 0 -151 67 -151 164v322c0 97 59 164 151 164h27c92 0 153 -67 153 -164v-322zM316 154v322
c0 60 -40 106 -86 106h-24c-48 0 -85 -46 -85 -106v-322c0 -58 37 -107 85 -107h24c46 0 86 49 86 107z" />
    <glyph glyph-name="Ocircumflex" unicode="&#xd4;" 
d="M299 690c0 -3 -3 -5 -6 -5h-34c-4 0 -6 2 -8 6l-29 55c-2 3 -2 4 -4 4s-3 -2 -5 -4l-29 -55c-2 -4 -5 -6 -9 -6h-33c-3 0 -6 2 -6 5c0 1 1 2 2 4l52 90c2 4 4 5 8 5h39c4 0 6 -1 8 -5l52 -90c1 -2 2 -3 2 -4zM384 154c0 -97 -61 -164 -153 -164h-27
c-92 0 -151 67 -151 164v322c0 97 59 164 151 164h27c92 0 153 -67 153 -164v-322zM316 154v322c0 60 -40 106 -86 106h-24c-48 0 -85 -46 -85 -106v-322c0 -58 37 -107 85 -107h24c46 0 86 49 86 107z" />
    <glyph glyph-name="Otilde" unicode="&#xd5;" 
d="M317 755c0 -3 -7 -13 -11 -20c-18 -30 -33 -42 -52 -42c-34 0 -52 37 -79 37c-10 0 -21 -5 -36 -24c-2 -3 -4 -4 -6 -4s-4 2 -6 4l-9 9c-3 3 -5 5 -5 8s5 12 11 21c17 27 30 37 49 37c34 0 52 -35 79 -35c14 0 24 7 39 28c2 2 4 4 6 4s4 -2 6 -5l10 -10c2 -3 4 -5 4 -8z
M384 154c0 -97 -61 -164 -153 -164h-27c-92 0 -151 67 -151 164v322c0 97 59 164 151 164h27c92 0 153 -67 153 -164v-322zM316 154v322c0 60 -40 106 -86 106h-24c-48 0 -85 -46 -85 -106v-322c0 -58 37 -107 85 -107h24c46 0 86 49 86 107z" />
    <glyph glyph-name="Odieresis" unicode="&#xd6;" horiz-adv-x="467" 
d="M343 738c0 -22 -19 -43 -42 -43c-25 0 -39 20 -39 43c0 21 17 41 39 41c24 0 42 -18 42 -41zM206 738c0 -22 -19 -43 -42 -43c-25 0 -39 20 -39 43c0 21 15 41 39 41s42 -18 42 -41zM417 154c0 -97 -66 -164 -168 -164h-30c-102 0 -166 67 -166 164v322
c0 97 64 164 166 164h30c102 0 168 -67 168 -164v-322zM349 154v322c0 60 -46 106 -100 106h-29c-56 0 -99 -46 -99 -106v-322c0 -58 43 -107 99 -107h29c54 0 100 49 100 107z" />
    <glyph glyph-name="multiply" unicode="&#xd7;" horiz-adv-x="409" 
d="M343 83l-15 -19c-4 -5 -7 -5 -11 0l-106 132c-4 5 -8 5 -12 0l-105 -132c-4 -5 -8 -5 -12 0l-15 19c-5 5 -5 9 0 14l106 132c5 5 5 10 0 15l-106 132c-5 5 -5 9 0 14l15 19c4 5 8 5 12 0l105 -132c4 -5 8 -5 12 0l106 132c4 5 7 5 11 0l15 -19c5 -5 5 -9 0 -14l-105 -132
c-5 -5 -5 -10 0 -15l105 -132c5 -5 5 -9 0 -14z" />
    <glyph glyph-name="Oslash" unicode="&#xd8;" 
d="M384 154c0 -97 -61 -164 -153 -164h-27c-92 0 -151 67 -151 164v322c0 97 59 164 151 164h27c92 0 153 -67 153 -164v-322zM281 557c0 3 -2 6 -4 8c-13 11 -29 17 -47 17h-24c-48 0 -85 -46 -85 -106v-322c0 -6 0 -12 1 -16c2 -6 5 -10 8 -10s5 3 7 8l144 417
c1 1 0 3 0 4zM316 154v322c0 7 -1 15 -2 22c-1 6 -4 10 -7 10s-6 -3 -8 -8l-145 -421c-1 -2 0 -3 0 -5s0 -5 2 -7c12 -11 29 -20 50 -20h24c46 0 86 49 86 107z" />
    <glyph glyph-name="Ugrave" unicode="&#xd9;" 
d="M237 692c0 -3 -2 -5 -5 -5h-23c-5 0 -8 2 -11 5l-95 84c-2 2 -3 4 -3 6c0 4 2 7 6 7h66c6 0 8 -2 10 -6l54 -86c1 -2 1 -4 1 -5zM384 154c0 -97 -61 -164 -153 -164h-27c-92 0 -151 67 -151 164v465c0 7 3 10 10 10h48c7 0 10 -3 10 -10v-465c0 -58 37 -107 85 -107h24
c46 0 86 49 86 107v465c0 7 3 10 10 10h48c7 0 10 -3 10 -10v-465z" />
    <glyph glyph-name="Uacute" unicode="&#xda;" 
d="M310 782c0 -2 -1 -4 -3 -6l-92 -84c-3 -3 -6 -5 -11 -5h-22c-3 0 -5 2 -5 5c0 1 0 3 1 5l52 86c2 4 5 6 11 6h63c4 0 6 -3 6 -7zM384 154c0 -97 -61 -164 -153 -164h-27c-92 0 -151 67 -151 164v465c0 7 3 10 10 10h48c7 0 10 -3 10 -10v-465c0 -58 37 -107 85 -107h24
c46 0 86 49 86 107v465c0 7 3 10 10 10h48c7 0 10 -3 10 -10v-465z" />
    <glyph glyph-name="Ucircumflex" unicode="&#xdb;" 
d="M289 690c0 -3 -3 -5 -6 -5h-34c-4 0 -6 2 -8 6l-29 55c-2 3 -3 4 -5 4s-3 -2 -5 -4l-28 -55c-2 -4 -5 -6 -9 -6h-34c-3 0 -5 2 -5 5c0 1 0 2 1 4l52 90c2 4 5 5 9 5h38c4 0 7 -1 9 -5l52 -90c1 -2 2 -3 2 -4zM384 154c0 -97 -61 -164 -153 -164h-27
c-92 0 -151 67 -151 164v465c0 7 3 10 10 10h48c7 0 10 -3 10 -10v-465c0 -58 37 -107 85 -107h24c46 0 86 49 86 107v465c0 7 3 10 10 10h48c7 0 10 -3 10 -10v-465z" />
    <glyph glyph-name="Udieresis" unicode="&#xdc;" horiz-adv-x="465" 
d="M331 738c0 -22 -19 -43 -42 -43c-25 0 -39 20 -39 43c0 21 17 41 39 41c24 0 42 -18 42 -41zM194 738c0 -22 -19 -43 -42 -43c-25 0 -39 20 -39 43c0 21 15 41 39 41s42 -18 42 -41zM415 154c0 -97 -66 -164 -167 -164h-29c-101 0 -166 67 -166 164v465c0 7 3 10 10 10
h48c7 0 10 -3 10 -10v-465c0 -58 42 -107 98 -107h29c54 0 99 49 99 107v465c0 7 3 10 10 10h48c7 0 10 -3 10 -10v-465z" />
    <glyph glyph-name="Yacute" unicode="&#xdd;" horiz-adv-x="371" 
d="M296 782c0 -2 -1 -4 -4 -6l-102 -84c-4 -3 -7 -5 -12 -5h-24c-4 0 -6 2 -6 5c0 1 1 3 2 5l57 86c3 4 6 6 12 6h70c4 0 7 -3 7 -7zM359 621c0 -4 -6 -17 -16 -41l-123 -289v-281c0 -7 -3 -10 -10 -10h-49c-7 0 -10 3 -10 10v281l-124 293c-7 16 -14 33 -14 37c0 5 3 8 9 8
h47c3 0 6 -3 8 -6l102 -252c2 -5 6 -8 8 -8s5 3 7 8l101 252c2 3 4 6 7 6h48c6 0 9 -3 9 -8z" />
    <glyph glyph-name="Thorn" unicode="&#xde;" horiz-adv-x="413" 
d="M396 335c0 -93 -59 -165 -148 -165h-107c-6 0 -8 -3 -8 -10v-150c0 -7 -3 -10 -10 -10h-47c-7 0 -10 3 -10 10v609c0 7 3 10 10 10h47c7 0 10 -3 10 -10v-100c0 -7 3 -10 9 -10h106c89 0 148 -69 148 -174zM329 336v9c0 58 -39 106 -87 106h-101c-6 0 -8 -3 -8 -10v-203
c0 -7 2 -10 8 -10h101c48 0 87 48 87 108z" />
    <glyph glyph-name="germandbls" unicode="&#xdf;" horiz-adv-x="441" 
d="M401 162c0 -77 -37 -134 -102 -159c-16 -6 -40 -12 -48 -12c-6 0 -9 4 -9 10v39c0 5 3 9 8 10c51 12 83 54 83 104v30c0 50 -32 91 -83 103c-5 1 -8 5 -8 10v44c0 5 3 9 8 10c51 13 83 54 83 105v20c0 60 -42 106 -93 106c-56 0 -93 -46 -93 -106v-466
c0 -7 -3 -10 -10 -10h-48c-7 0 -10 3 -10 10v318c0 7 -3 10 -10 10h-27c-7 0 -10 3 -10 10v37c0 7 3 10 10 10h27c7 0 10 3 10 10v61c0 97 72 174 161 174c98 0 161 -68 161 -174v-21c0 -45 -32 -95 -73 -116c-5 -2 -8 -6 -8 -9s3 -6 8 -9c42 -22 73 -76 73 -123v-26z" />
    <glyph glyph-name="agrave" unicode="&#xe0;" horiz-adv-x="396" 
d="M220 505c0 -5 -3 -8 -9 -8h-17c-4 0 -6 1 -9 5l-95 102c-2 3 -3 5 -3 8c0 5 3 9 9 9h55c3 0 7 -3 9 -6l57 -102c2 -3 3 -6 3 -8zM341 10c0 -7 -3 -10 -10 -10h-37c-7 0 -10 3 -10 10v43c0 8 -4 12 -8 12c-3 0 -5 -2 -8 -5c-26 -35 -59 -60 -81 -60h-34
c-60 0 -108 46 -108 117v6c0 71 47 116 107 116h112c6 0 9 2 9 9v41c0 59 -41 104 -91 104c-28 0 -60 -19 -80 -55c-2 -3 -3 -5 -6 -5s-7 2 -10 4l-30 19c-3 2 -5 5 -5 8c0 4 9 20 16 30c24 33 59 56 120 56c93 0 154 -64 154 -161v-279zM273 143v38c0 7 -2 10 -8 10h-106
c-26 0 -47 -26 -47 -59v-15c0 -32 21 -60 47 -60h32c37 0 69 44 82 86z" />
    <glyph glyph-name="aacute" unicode="&#xe1;" horiz-adv-x="396" 
d="M308 612c0 -3 -1 -5 -4 -8l-96 -102c-3 -4 -5 -5 -9 -5h-17c-6 0 -9 3 -9 8c0 2 0 5 2 8l58 102c2 3 7 6 10 6h56c6 0 9 -4 9 -9zM341 10c0 -7 -3 -10 -10 -10h-37c-7 0 -10 3 -10 10v43c0 8 -4 12 -8 12c-3 0 -5 -2 -8 -5c-26 -35 -59 -60 -81 -60h-34
c-60 0 -108 46 -108 117v6c0 71 47 116 107 116h112c6 0 9 2 9 9v41c0 59 -41 104 -91 104c-28 0 -60 -19 -80 -55c-2 -3 -3 -5 -6 -5s-7 2 -10 4l-30 19c-3 2 -5 5 -5 8c0 4 9 20 16 30c24 33 59 56 120 56c93 0 154 -64 154 -161v-279zM273 143v38c0 7 -2 10 -8 10h-106
c-26 0 -47 -26 -47 -59v-15c0 -32 21 -60 47 -60h32c37 0 69 44 82 86z" />
    <glyph glyph-name="acircumflex" unicode="&#xe2;" horiz-adv-x="396" 
d="M284 505c0 -5 -3 -8 -9 -8h-29c-2 0 -4 2 -6 4l-36 62c-2 3 -4 5 -6 5s-5 -2 -7 -5l-38 -62c-2 -2 -5 -4 -7 -4h-27c-6 0 -9 3 -9 8c0 2 0 5 2 8l65 105c2 2 5 4 7 4h25c2 0 5 -2 7 -4l65 -105c2 -3 3 -6 3 -8zM341 10c0 -7 -3 -10 -10 -10h-37c-7 0 -10 3 -10 10v43
c0 8 -4 12 -8 12c-3 0 -5 -2 -8 -5c-26 -35 -59 -60 -81 -60h-34c-60 0 -108 46 -108 117v6c0 71 47 116 107 116h112c6 0 9 2 9 9v41c0 59 -41 104 -91 104c-28 0 -60 -19 -80 -55c-2 -3 -3 -5 -6 -5s-7 2 -10 4l-30 19c-3 2 -5 5 -5 8c0 4 9 20 16 30c24 33 59 56 120 56
c93 0 154 -64 154 -161v-279zM273 143v38c0 7 -2 10 -8 10h-106c-26 0 -47 -26 -47 -59v-15c0 -32 21 -60 47 -60h32c37 0 69 44 82 86z" />
    <glyph glyph-name="atilde" unicode="&#xe3;" horiz-adv-x="396" 
d="M318 571c0 -4 -9 -17 -16 -28c-17 -25 -34 -37 -54 -37c-16 0 -33 11 -53 26l-17 13c-12 9 -25 15 -36 15c-14 0 -28 -6 -45 -26c-2 -2 -4 -3 -6 -3s-3 0 -5 2l-9 7c-3 2 -4 5 -4 8c0 4 6 14 12 24c17 28 36 40 57 40c18 0 32 -7 50 -23l18 -16c9 -9 26 -15 38 -15
c14 0 30 7 47 27c2 2 4 4 6 4s3 -1 5 -3l8 -7c3 -2 4 -5 4 -8zM341 10c0 -7 -3 -10 -10 -10h-37c-7 0 -10 3 -10 10v43c0 8 -4 12 -8 12c-3 0 -5 -2 -8 -5c-26 -35 -59 -60 -81 -60h-34c-60 0 -108 46 -108 117v6c0 71 47 116 107 116h112c6 0 9 2 9 9v41
c0 59 -41 104 -91 104c-28 0 -60 -19 -80 -55c-2 -3 -3 -5 -6 -5s-7 2 -10 4l-30 19c-3 2 -5 5 -5 8c0 4 9 20 16 30c24 33 59 56 120 56c93 0 154 -64 154 -161v-279zM273 143v38c0 7 -2 10 -8 10h-106c-26 0 -47 -26 -47 -59v-15c0 -32 21 -60 47 -60h32c37 0 69 44 82 86
z" />
    <glyph glyph-name="adieresis" unicode="&#xe4;" horiz-adv-x="421" 
d="M328 559c0 -24 -21 -45 -45 -45c-25 0 -43 20 -43 45s18 43 43 43s45 -18 45 -43zM180 559c0 -25 -19 -45 -44 -45s-44 20 -44 45s19 43 44 43s44 -18 44 -43zM366 10c0 -7 -3 -10 -10 -10h-37c-7 0 -10 3 -10 10v43c0 8 -4 12 -9 12c-3 0 -5 -2 -8 -5
c-28 -35 -65 -60 -90 -60h-38c-66 0 -119 46 -119 117v6c0 71 53 116 119 116h124c7 0 10 2 10 9v41c0 59 -45 104 -101 104c-31 0 -66 -19 -89 -55c-2 -3 -4 -5 -7 -5s-7 2 -11 4l-34 19c-4 2 -5 5 -5 8c0 4 10 20 18 30c26 33 64 56 130 56c101 0 167 -64 167 -161v-279z
M298 143v38c0 7 -3 10 -9 10h-123c-31 0 -54 -26 -54 -59v-15c0 -32 24 -60 54 -60h37c43 0 80 44 95 86z" />
    <glyph glyph-name="aring" unicode="&#xe5;" horiz-adv-x="408" 
d="M273 573c0 -45 -29 -76 -71 -76c-43 0 -70 31 -70 76v31c0 45 27 75 70 75c42 0 71 -30 71 -75v-31zM353 10c0 -7 -3 -10 -10 -10h-37c-7 0 -10 3 -10 10v43c0 8 -4 12 -8 12c-3 0 -5 -2 -8 -5c-27 -35 -63 -60 -86 -60h-36c-63 0 -113 46 -113 117v6
c0 71 50 116 113 116h118c6 0 9 2 9 9v41c0 59 -43 104 -96 104c-29 0 -63 -19 -84 -55c-2 -3 -4 -5 -7 -5s-6 2 -10 4l-32 19c-4 2 -5 5 -5 8c0 4 10 20 17 30c25 33 62 56 125 56c97 0 160 -64 160 -161v-279zM243 573v31c0 28 -17 45 -41 45s-40 -17 -40 -45v-31
c0 -28 16 -46 40 -46s41 18 41 46zM285 143v38c0 7 -3 10 -9 10h-113c-28 0 -51 -26 -51 -59v-15c0 -32 23 -60 51 -60h34c40 0 74 44 88 86z" />
    <glyph glyph-name="ae" unicode="&#xe6;" horiz-adv-x="630" 
d="M588 227c0 -7 -3 -10 -9 -10h-221c-6 0 -8 -3 -8 -10v-54c0 -58 40 -106 88 -106c28 0 60 22 80 57c2 3 3 4 6 4s4 -2 7 -3l32 -19c3 -2 6 -5 6 -9c0 -3 -7 -17 -18 -32c-23 -32 -58 -55 -116 -55c-54 0 -94 23 -126 73c-3 4 -4 5 -7 5s-6 -2 -8 -6
c-26 -51 -71 -72 -96 -72h-45c-60 0 -108 46 -108 117v30c0 71 47 106 106 106h122c6 0 9 3 9 10v33c0 58 -42 107 -90 107c-28 0 -58 -19 -78 -55c-2 -3 -4 -5 -7 -5s-8 3 -11 5l-28 18c-3 2 -5 5 -5 8c0 4 6 17 14 28c23 34 59 58 119 58c46 0 85 -16 119 -54
c3 -2 4 -4 6 -4s4 1 6 4c31 37 66 56 110 56c91 0 151 -87 151 -164v-61zM520 275v14c0 58 -40 106 -86 106c-47 0 -84 -47 -84 -106v-14c0 -7 2 -10 8 -10h154c6 0 8 3 8 10zM282 134v52c0 7 -2 10 -8 10h-115c-26 0 -47 -26 -47 -59v-30c0 -32 21 -60 47 -60h41
c37 0 69 45 82 87z" />
    <glyph glyph-name="ccedilla" unicode="&#xe7;" horiz-adv-x="372" 
d="M341 77c0 -4 -8 -17 -19 -33c-27 -37 -68 -53 -98 -53c-7 0 -10 -4 -12 -9l-14 -34c-2 -5 -4 -10 -4 -13c0 -4 2 -6 6 -8c27 -13 44 -31 44 -63v-14c0 -51 -42 -84 -92 -84h-31c-6 0 -8 3 -8 10v16c0 7 2 10 8 10h31c26 0 47 21 47 48v9c0 27 -21 40 -50 48
c-5 1 -7 4 -7 8c0 3 3 10 6 16l19 40c2 4 5 11 5 15c0 5 -4 8 -9 9c-73 17 -118 77 -118 159v135c0 97 60 163 155 163c59 0 97 -21 121 -52c11 -14 20 -28 20 -33c0 -4 -3 -7 -6 -9l-32 -18c-3 -2 -6 -4 -9 -4s-5 1 -7 4c-21 34 -53 55 -83 55c-52 0 -92 -47 -92 -106v-135
c0 -58 41 -107 92 -107c30 0 62 22 83 57c2 3 4 4 7 4s8 -3 11 -5l30 -17c3 -2 6 -5 6 -9z" />
    <glyph glyph-name="egrave" unicode="&#xe8;" horiz-adv-x="392" 
d="M220 505c0 -5 -4 -8 -10 -8h-16c-4 0 -6 1 -9 5l-95 102c-2 3 -3 5 -3 8c0 5 3 9 9 9h55c3 0 7 -3 9 -6l57 -102c2 -3 3 -6 3 -8zM350 227c0 -7 -3 -10 -9 -10h-221c-6 0 -8 -3 -8 -10v-54c0 -58 40 -106 88 -106c28 0 60 22 80 57c2 3 3 4 6 4s5 -2 9 -4l30 -18
c3 -2 6 -5 6 -9s-9 -19 -19 -33c-23 -32 -59 -54 -117 -54c-92 0 -150 67 -150 164v135c0 77 58 163 151 163s154 -87 154 -164v-61zM282 275v14c0 58 -40 106 -86 106c-47 0 -84 -47 -84 -106v-14c0 -7 2 -10 8 -10h154c6 0 8 3 8 10z" />
    <glyph glyph-name="eacute" unicode="&#xe9;" horiz-adv-x="392" 
d="M305 612c0 -3 -2 -5 -4 -8l-94 -102c-3 -4 -5 -5 -9 -5h-16c-6 0 -10 3 -10 8c0 2 1 5 3 8l57 102c2 3 6 6 9 6h55c6 0 9 -4 9 -9zM350 227c0 -7 -3 -10 -9 -10h-221c-6 0 -8 -3 -8 -10v-54c0 -58 40 -106 88 -106c28 0 60 22 80 57c2 3 3 4 6 4s5 -2 9 -4l30 -18
c3 -2 6 -5 6 -9s-9 -19 -19 -33c-23 -32 -59 -54 -117 -54c-92 0 -150 67 -150 164v135c0 77 58 163 151 163s154 -87 154 -164v-61zM282 275v14c0 58 -40 106 -86 106c-47 0 -84 -47 -84 -106v-14c0 -7 2 -10 8 -10h154c6 0 8 3 8 10z" />
    <glyph glyph-name="ecircumflex" unicode="&#xea;" horiz-adv-x="392" 
d="M281 505c0 -5 -3 -8 -9 -8h-28c-2 0 -4 2 -6 4l-35 62c-2 3 -5 5 -7 5s-4 -2 -6 -5l-38 -62c-2 -2 -4 -4 -6 -4h-27c-6 0 -9 3 -9 8c0 2 0 5 2 8l64 105c2 2 5 4 7 4h24c2 0 5 -2 7 -4l65 -105c2 -3 2 -6 2 -8zM350 227c0 -7 -3 -10 -9 -10h-221c-6 0 -8 -3 -8 -10v-54
c0 -58 40 -106 88 -106c28 0 60 22 80 57c2 3 3 4 6 4s5 -2 9 -4l30 -18c3 -2 6 -5 6 -9s-9 -19 -19 -33c-23 -32 -59 -54 -117 -54c-92 0 -150 67 -150 164v135c0 77 58 163 151 163s154 -87 154 -164v-61zM282 275v14c0 58 -40 106 -86 106c-47 0 -84 -47 -84 -106v-14
c0 -7 2 -10 8 -10h154c6 0 8 3 8 10z" />
    <glyph glyph-name="edieresis" unicode="&#xeb;" horiz-adv-x="420" 
d="M328 559c0 -24 -21 -45 -45 -45c-25 0 -43 20 -43 45s18 43 43 43s45 -18 45 -43zM180 559c0 -25 -19 -45 -44 -45s-44 20 -44 45s19 43 44 43s44 -18 44 -43zM378 227c0 -7 -3 -10 -10 -10h-247c-7 0 -9 -3 -9 -10v-54c0 -58 45 -106 100 -106c32 0 66 22 89 57
c2 3 4 4 7 4s5 -2 10 -4l34 -18c4 -2 7 -5 7 -9s-10 -19 -21 -33c-26 -32 -64 -54 -128 -54c-101 0 -165 67 -165 164v135c0 77 64 163 165 163s168 -87 168 -164v-61zM310 275v14c0 58 -46 106 -100 106c-55 0 -98 -47 -98 -106v-14c0 -7 2 -10 9 -10h180c7 0 9 3 9 10z
" />
    <glyph glyph-name="igrave" unicode="&#xec;" horiz-adv-x="181" 
d="M120 505c0 -5 -3 -8 -9 -8h-18c-4 0 -6 1 -10 5l-100 102c-3 3 -4 5 -4 8c0 5 4 9 10 9h58c4 0 8 -3 10 -6l61 -102c2 -3 2 -6 2 -8zM125 10c0 -7 -3 -10 -10 -10h-48c-7 0 -10 3 -10 10v422c0 7 3 10 10 10h48c7 0 10 -3 10 -10v-422z" />
    <glyph glyph-name="iacute" unicode="&#xed;" horiz-adv-x="180" 
d="M202 612c0 -3 -1 -5 -4 -8l-100 -102c-4 -4 -6 -5 -10 -5h-18c-6 0 -9 3 -9 8c0 2 0 5 2 8l61 102c2 3 6 6 10 6h58c6 0 10 -4 10 -9zM125 10c0 -7 -3 -10 -10 -10h-48c-7 0 -10 3 -10 10v422c0 7 3 10 10 10h48c7 0 10 -3 10 -10v-422z" />
    <glyph glyph-name="icircumflex" unicode="&#xee;" horiz-adv-x="180" 
d="M183 505c0 -5 -4 -8 -10 -8h-30c-3 0 -5 2 -7 4l-38 62c-2 3 -4 5 -7 5s-4 -2 -7 -5l-41 -62c-2 -2 -3 -4 -6 -4h-30c-6 0 -9 3 -9 8c0 2 0 5 2 8l69 105c2 2 4 4 7 4h27c3 0 5 -2 7 -4l70 -105c2 -3 3 -6 3 -8zM125 10c0 -7 -3 -10 -10 -10h-48c-7 0 -10 3 -10 10v422
c0 7 3 10 10 10h48c7 0 10 -3 10 -10v-422z" />
    <glyph glyph-name="idieresis" unicode="&#xef;" horiz-adv-x="215" 
d="M232 559c0 -24 -21 -45 -45 -45c-25 0 -43 20 -43 45s18 43 43 43s45 -18 45 -43zM71 559c0 -25 -19 -45 -44 -45s-44 20 -44 45s19 43 44 43s44 -18 44 -43zM142 10c0 -7 -3 -10 -10 -10h-48c-7 0 -10 3 -10 10v422c0 7 3 10 10 10h48c7 0 10 -3 10 -10v-422z" />
    <glyph glyph-name="eth" unicode="&#xf0;" horiz-adv-x="392" 
d="M350 154c0 -97 -61 -164 -154 -164s-151 67 -151 164v135c0 97 58 163 151 163h1l-45 57l-82 -41c-7 -3 -14 0 -14 5v19c0 7 1 14 6 16l66 31l-73 77c-7 7 1 13 9 13h46c4 0 5 -3 9 -7l52 -59l80 45c4 2 12 0 12 -6v-22c0 -5 -3 -11 -7 -13l-61 -34l124 -145
c20 -26 31 -60 31 -99v-135zM282 154v135c0 58 -40 106 -86 106c-47 0 -84 -47 -84 -106v-135c0 -58 38 -107 84 -107s86 49 86 107z" />
    <glyph glyph-name="ntilde" unicode="&#xf1;" horiz-adv-x="418" 
d="M327 571c0 -4 -8 -17 -15 -28c-17 -25 -34 -37 -54 -37c-16 0 -33 11 -53 26l-17 13c-12 9 -24 15 -35 15c-14 0 -27 -6 -44 -26c-2 -2 -4 -3 -6 -3s-3 0 -5 2l-9 7c-3 2 -4 5 -4 8c0 4 6 14 12 24c17 28 36 40 56 40c18 0 32 -7 50 -23l18 -16c9 -9 25 -15 37 -15
c14 0 29 7 46 27c2 2 4 4 6 4s3 -1 5 -3l8 -7c3 -2 4 -5 4 -8zM363 10c0 -7 -3 -10 -10 -10h-48c-7 0 -10 3 -10 10v269c0 58 -40 106 -86 106c-47 0 -84 -47 -84 -106v-269c0 -7 -3 -10 -10 -10h-48c-7 0 -10 3 -10 10v422c0 7 3 10 10 10h37c7 0 10 -3 10 -10v-40
c0 -7 3 -11 7 -11c3 0 5 1 8 5c30 44 64 56 85 56c90 0 149 -67 149 -163v-269z" />
    <glyph glyph-name="ograve" unicode="&#xf2;" horiz-adv-x="392" 
d="M220 505c0 -5 -4 -8 -10 -8h-16c-4 0 -6 1 -9 5l-95 102c-2 3 -3 5 -3 8c0 5 3 9 9 9h55c3 0 7 -3 9 -6l57 -102c2 -3 3 -6 3 -8zM350 154c0 -97 -61 -164 -154 -164s-151 67 -151 164v135c0 97 58 163 151 163s154 -66 154 -163v-135zM282 154v135c0 58 -40 106 -86 106
c-47 0 -84 -47 -84 -106v-135c0 -58 38 -107 84 -107s86 49 86 107z" />
    <glyph glyph-name="oacute" unicode="&#xf3;" horiz-adv-x="392" 
d="M305 612c0 -3 -2 -5 -4 -8l-94 -102c-3 -4 -5 -5 -9 -5h-16c-6 0 -10 3 -10 8c0 2 1 5 3 8l57 102c2 3 6 6 9 6h55c6 0 9 -4 9 -9zM350 154c0 -97 -61 -164 -154 -164s-151 67 -151 164v135c0 97 58 163 151 163s154 -66 154 -163v-135zM282 154v135
c0 58 -40 106 -86 106c-47 0 -84 -47 -84 -106v-135c0 -58 38 -107 84 -107s86 49 86 107z" />
    <glyph glyph-name="ocircumflex" unicode="&#xf4;" horiz-adv-x="392" 
d="M281 505c0 -5 -3 -8 -9 -8h-28c-2 0 -4 2 -6 4l-35 62c-2 3 -5 5 -7 5s-4 -2 -6 -5l-38 -62c-2 -2 -4 -4 -6 -4h-27c-6 0 -9 3 -9 8c0 2 0 5 2 8l64 105c2 2 5 4 7 4h24c2 0 5 -2 7 -4l65 -105c2 -3 2 -6 2 -8zM350 154c0 -97 -61 -164 -154 -164s-151 67 -151 164v135
c0 97 58 163 151 163s154 -66 154 -163v-135zM282 154v135c0 58 -40 106 -86 106c-47 0 -84 -47 -84 -106v-135c0 -58 38 -107 84 -107s86 49 86 107z" />
    <glyph glyph-name="otilde" unicode="&#xf5;" horiz-adv-x="392" 
d="M315 571c0 -4 -8 -17 -15 -28c-17 -25 -34 -37 -54 -37c-16 0 -33 11 -53 26l-17 13c-12 9 -24 15 -35 15c-14 0 -27 -6 -44 -26c-2 -2 -4 -3 -6 -3s-3 0 -5 2l-9 7c-3 2 -4 5 -4 8c0 4 6 14 12 24c17 28 36 40 56 40c18 0 32 -7 50 -23l18 -16c9 -9 25 -15 37 -15
c14 0 29 7 46 27c2 2 4 4 6 4s3 -1 5 -3l8 -7c3 -2 4 -5 4 -8zM350 154c0 -97 -61 -164 -154 -164s-151 67 -151 164v135c0 97 58 163 151 163s154 -66 154 -163v-135zM282 154v135c0 58 -40 106 -86 106c-47 0 -84 -47 -84 -106v-135c0 -58 38 -107 84 -107s86 49 86 107z
" />
    <glyph glyph-name="odieresis" unicode="&#xf6;" horiz-adv-x="420" 
d="M328 559c0 -24 -21 -45 -45 -45c-25 0 -43 20 -43 45s18 43 43 43s45 -18 45 -43zM180 559c0 -25 -19 -45 -44 -45s-44 20 -44 45s19 43 44 43s44 -18 44 -43zM378 154c0 -97 -67 -164 -168 -164s-165 67 -165 164v135c0 97 64 163 165 163s168 -66 168 -163v-135z
M310 154v135c0 58 -46 106 -100 106c-55 0 -98 -47 -98 -106v-135c0 -58 44 -107 98 -107s100 49 100 107z" />
    <glyph glyph-name="divide" unicode="&#xf7;" horiz-adv-x="428" 
d="M264 398c0 -27 -23 -50 -50 -50c-26 0 -48 24 -48 50s22 49 48 49c28 0 50 -21 50 -49zM393 223c0 -7 -2 -10 -8 -10h-341c-6 0 -8 3 -8 10v27c0 7 2 10 8 10h341c6 0 8 -3 8 -10v-27zM264 76c0 -27 -23 -50 -50 -50c-26 0 -48 24 -48 50s22 49 48 49c28 0 50 -21 50 -49
z" />
    <glyph glyph-name="oslash" unicode="&#xf8;" horiz-adv-x="392" 
d="M350 154c0 -97 -61 -164 -154 -164s-151 67 -151 164v135c0 97 58 163 151 163s154 -66 154 -163v-135zM282 154v135c0 19 -4 36 -14 57c-2 4 -5 7 -7 7s-5 -3 -7 -8l-89 -262c-2 -6 -5 -15 -5 -18c0 -4 2 -7 5 -9c12 -7 21 -9 31 -9c46 0 86 49 86 107zM227 382
c0 4 -3 8 -7 9c-10 3 -16 4 -24 4c-47 0 -84 -47 -84 -106v-135c0 -13 2 -26 8 -44c2 -5 5 -7 7 -7s5 2 7 7l87 253c2 8 6 15 6 19z" />
    <glyph glyph-name="ugrave" unicode="&#xf9;" horiz-adv-x="409" 
d="M225 505c0 -5 -3 -8 -9 -8h-16c-4 0 -7 1 -10 5l-94 102c-2 3 -3 5 -3 8c0 5 3 9 9 9h55c3 0 7 -3 9 -6l57 -102c2 -3 2 -6 2 -8zM354 10c0 -7 -3 -10 -10 -10h-37c-7 0 -10 3 -10 10v43c0 7 -4 11 -8 11c-3 0 -5 -1 -8 -5c-31 -46 -63 -59 -85 -59
c-90 0 -147 68 -147 164v268c0 7 3 10 10 10h47c7 0 10 -3 10 -10v-268c0 -58 39 -107 85 -107c48 0 86 47 86 107v268c0 7 3 10 10 10h47c7 0 10 -3 10 -10v-422z" />
    <glyph glyph-name="uacute" unicode="&#xfa;" horiz-adv-x="409" 
d="M311 612c0 -3 -2 -5 -4 -8l-94 -102c-3 -4 -5 -5 -9 -5h-17c-6 0 -9 3 -9 8c0 2 1 5 3 8l57 102c2 3 6 6 9 6h55c6 0 9 -4 9 -9zM354 10c0 -7 -3 -10 -10 -10h-37c-7 0 -10 3 -10 10v43c0 7 -4 11 -8 11c-3 0 -5 -1 -8 -5c-31 -46 -63 -59 -85 -59
c-90 0 -147 68 -147 164v268c0 7 3 10 10 10h47c7 0 10 -3 10 -10v-268c0 -58 39 -107 85 -107c48 0 86 47 86 107v268c0 7 3 10 10 10h47c7 0 10 -3 10 -10v-422z" />
    <glyph glyph-name="ucircumflex" unicode="&#xfb;" horiz-adv-x="409" 
d="M289 505c0 -5 -4 -8 -10 -8h-30c-3 0 -5 2 -7 4l-37 62c-2 3 -4 5 -7 5s-4 -2 -7 -5l-40 -62c-2 -2 -4 -4 -7 -4h-29c-6 0 -9 3 -9 8c0 2 0 5 2 8l69 105c2 2 3 4 6 4h27c3 0 5 -2 7 -4l69 -105c2 -3 3 -6 3 -8zM354 10c0 -7 -3 -10 -10 -10h-37c-7 0 -10 3 -10 10v43
c0 7 -4 11 -8 11c-3 0 -5 -1 -8 -5c-31 -46 -63 -59 -85 -59c-90 0 -147 68 -147 164v268c0 7 3 10 10 10h47c7 0 10 -3 10 -10v-268c0 -58 39 -107 85 -107c48 0 86 47 86 107v268c0 7 3 10 10 10h47c7 0 10 -3 10 -10v-422z" />
    <glyph glyph-name="udieresis" unicode="&#xfc;" horiz-adv-x="437" 
d="M334 559c0 -24 -21 -45 -45 -45c-25 0 -43 20 -43 45s18 43 43 43s45 -18 45 -43zM186 559c0 -25 -19 -45 -44 -45s-44 20 -44 45s19 43 44 43s44 -18 44 -43zM382 10c0 -7 -3 -10 -10 -10h-37c-7 0 -10 3 -10 10v43c0 7 -4 11 -9 11c-3 0 -5 -1 -8 -5
c-34 -46 -70 -59 -95 -59c-101 0 -164 68 -164 164v268c0 7 3 10 10 10h47c7 0 10 -3 10 -10v-268c0 -58 44 -107 98 -107c56 0 101 47 101 107v268c0 7 3 10 10 10h47c7 0 10 -3 10 -10v-422z" />
    <glyph glyph-name="yacute" unicode="&#xfd;" horiz-adv-x="409" 
d="M311 612c0 -3 -2 -5 -4 -8l-94 -102c-3 -4 -5 -5 -9 -5h-17c-6 0 -9 3 -9 8c0 2 1 5 3 8l57 102c2 3 6 6 9 6h55c6 0 9 -4 9 -9zM354 -60c0 -101 -51 -175 -152 -175c-56 0 -92 22 -115 53c-8 11 -20 30 -20 34s3 7 6 9l30 18c3 2 5 4 8 4s5 -2 7 -5
c19 -35 50 -56 78 -56c50 0 91 47 91 107v119c0 7 -4 11 -8 11c-3 0 -4 -1 -7 -5c-25 -38 -57 -54 -77 -54c-90 0 -146 68 -146 164v268c0 7 3 10 10 10h47c7 0 10 -3 10 -10v-268c0 -58 39 -107 85 -107c59 0 86 63 86 107v268c0 7 3 10 10 10h47c7 0 10 -3 10 -10v-492z
" />
    <glyph glyph-name="thorn" unicode="&#xfe;" horiz-adv-x="405" 
d="M363 164c0 -96 -62 -164 -140 -164c-21 0 -54 15 -84 57c-3 3 -4 5 -7 5c-4 0 -7 -4 -7 -12v-265c0 -7 -3 -10 -10 -10h-48c-7 0 -10 3 -10 10v834c0 7 3 10 10 10h37c7 0 10 -3 10 -10v-227c0 -7 3 -11 7 -11c3 0 5 1 8 5c30 44 64 56 85 56c90 0 149 -67 149 -163v-115
zM295 164v115c0 58 -40 106 -86 106c-47 0 -84 -47 -84 -106v-115c0 -58 38 -107 84 -107s86 49 86 107z" />
    <glyph glyph-name="ydieresis" unicode="&#xff;" horiz-adv-x="437" 
d="M334 559c0 -24 -21 -45 -45 -45c-25 0 -43 20 -43 45s18 43 43 43s45 -18 45 -43zM186 559c0 -25 -19 -45 -44 -45s-44 20 -44 45s19 43 44 43s44 -18 44 -43zM382 -60c0 -101 -56 -175 -167 -175c-61 0 -100 22 -126 53c-9 11 -22 30 -22 34s2 7 6 9l34 18c4 2 7 4 10 4
s5 -2 7 -5c22 -35 57 -56 89 -56c57 0 102 47 102 107v119c0 7 -4 11 -9 11c-3 0 -5 -1 -8 -5c-27 -38 -62 -54 -85 -54c-100 0 -164 68 -164 164v268c0 7 3 10 10 10h47c7 0 10 -3 10 -10v-268c0 -58 44 -107 98 -107c69 0 101 63 101 107v268c0 7 3 10 10 10h47
c7 0 10 -3 10 -10v-492z" />
    <glyph glyph-name="Delta" unicode="&#x2206;" horiz-adv-x="489" 
d="M487 0h-482l256 688zM388 49l-156 468l-174 -468h330z" />
    <glyph glyph-name="Omega" unicode="&#x2126;" horiz-adv-x="666" 
d="M641 0h-262l13 152c52 28 69 45 94 114c14 39 19 94 19 136c0 140 -49 254 -171 254s-171 -114 -171 -254c0 -42 5 -97 19 -136c25 -69 43 -86 95 -114l12 -152h-262v162h15c9 -43 18 -61 60 -61h143l-2 28c-64 21 -112 46 -151 109c-29 48 -46 103 -46 160
c0 187 138 290 288 290s288 -103 288 -290c0 -57 -16 -112 -45 -160c-39 -63 -88 -88 -152 -109l-1 -28h143c42 0 50 18 59 61h15v-162z" />
    <glyph glyph-name="apple" unicode="&#xf8ff;" horiz-adv-x="744" 
d="M555 778c0 -36 -10 -74 -36 -100c-19 -20 -44 -39 -68 -53c-12 -7 -42 -8 -56 -9c-1 6 -1 12 -1 18c0 11 2 22 6 33c9 23 19 49 35 69c30 38 72 64 120 72v-30zM699 213c-28 -62 -55 -127 -105 -174c-27 -25 -32 -34 -72 -40c-6 -1 -10 -1 -16 -1c-44 0 -77 32 -120 32
s-75 -33 -118 -33c-91 0 -151 119 -184 192c-23 52 -39 133 -39 190c0 14 1 28 3 41c21 120 86 200 211 200c14 0 28 -1 42 -5c31 -8 52 -27 87 -27s55 19 86 27c14 4 28 5 43 5c44 0 93 -12 128 -40c14 -11 25 -25 37 -38c-24 -22 -38 -36 -53 -68c-14 -29 -21 -62 -21 -95
s10 -77 26 -103c24 -39 33 -42 65 -63z" />
    <glyph glyph-name="approxequal" unicode="&#x2248;" horiz-adv-x="436" 
d="M419 370c-23 -49 -66 -80 -110 -80c-9 0 -20 2 -29 5l-121 43c-11 4 -23 7 -35 7c-39 0 -55 -24 -78 -60l-35 27c28 47 67 80 115 80c14 0 28 -3 41 -7l118 -42c6 -2 14 -3 20 -3c31 0 66 21 84 54zM419 219c-23 -49 -66 -80 -110 -80c-9 0 -20 2 -29 5l-121 43
c-11 4 -23 7 -35 7c-39 0 -55 -24 -78 -60l-35 27c28 47 67 80 115 80c14 0 28 -3 41 -7l118 -42c6 -2 14 -3 20 -3c31 0 66 21 84 54z" />
    <glyph glyph-name="greaterequal" unicode="&#x2265;" horiz-adv-x="439" 
d="M421 347l-398 -230v62l347 199l-347 199v62l398 -230v-62zM421 0h-398v55h398v-55z" />
    <glyph glyph-name="infinity" unicode="&#x221e;" horiz-adv-x="591" 
d="M572 266c0 -73 -50 -143 -112 -143c-52 0 -99 33 -136 74c-10 11 -18 24 -28 34c-10 -10 -18 -23 -28 -34c-37 -41 -84 -74 -136 -74c-62 0 -112 70 -112 143c0 76 56 138 118 138s115 -61 158 -108c43 47 96 108 158 108s118 -62 118 -138zM521 259c0 49 -32 92 -72 92
c-47 0 -93 -53 -127 -88c34 -42 72 -91 124 -91c38 0 75 37 75 87zM270 263c-34 35 -81 88 -127 88c-40 0 -72 -43 -72 -92c0 -50 37 -87 75 -87c52 0 90 49 124 91z" />
    <glyph glyph-name="integral" unicode="&#x222b;" horiz-adv-x="232" 
d="M247 859c0 -27 -23 -44 -43 -44c-24 0 -26 25 -42 25c-12 0 -15 -16 -15 -28c0 -40 6 -82 9 -122c5 -65 10 -131 10 -196v-6c0 -72 -1 -145 -1 -217c0 -75 -9 -292 -55 -354c-10 -14 -40 -25 -56 -25c-26 0 -52 31 -52 61c0 22 17 44 35 44c21 0 33 -34 44 -34
c19 0 21 82 21 98v12c0 99 -6 199 -6 298v176c0 97 -5 202 23 295c9 34 34 74 68 74c29 0 60 -21 60 -57z" />
    <glyph glyph-name="lessequal" unicode="&#x2264;" horiz-adv-x="439" 
d="M421 117l-398 230v62l398 230v-62l-347 -199l347 -199v-62zM421 0h-398v55h398v-55z" />
    <glyph glyph-name="lozenge" unicode="&#x25ca;" horiz-adv-x="394" 
d="M372 377l-155 -377h-48l-155 377l155 368h48zM324 377l-131 314l-131 -314l131 -323z" />
    <glyph glyph-name="nbspace" unicode="&#xa0;" horiz-adv-x="510" 
 />
    <glyph glyph-name="notequal" unicode="&#x2260;" horiz-adv-x="439" 
d="M432 135h-242l-72 -161l-40 28l60 133h-126v56h150l62 138h-212v56h237l73 164l39 -28l-61 -136h132v-56h-156l-62 -138h218v-56z" />
    <glyph glyph-name="partialdiff" unicode="&#x2202;" horiz-adv-x="427" 
d="M402 393c0 -77 -18 -193 -46 -263c-23 -56 -42 -97 -91 -128c-24 -15 -51 -24 -79 -24c-95 0 -165 89 -165 196c0 105 66 228 163 228c59 0 86 -26 132 -69c6 39 9 80 9 120c0 43 -12 115 -26 155c-15 45 -50 84 -90 89c-8 1 -17 1 -25 1c-35 0 -54 -15 -85 -32l-39 50
c34 17 75 30 113 30c84 0 147 -58 187 -140c29 -60 42 -144 42 -213zM310 298c-26 35 -42 64 -84 64c-34 0 -60 -21 -79 -54c-29 -48 -40 -101 -40 -160c0 -45 5 -98 37 -125c10 -9 22 -14 35 -14c11 0 21 4 31 9c73 40 91 192 100 280z" />
    <glyph glyph-name="pi" unicode="&#x3c0;" horiz-adv-x="469" 
d="M454 151c-2 -69 -32 -168 -106 -168c-40 0 -64 47 -75 85c-8 27 -10 69 -10 98c0 77 11 158 17 234h-91c-8 -112 -17 -240 -37 -350c-7 -33 -23 -70 -58 -70c-27 0 -48 25 -48 54c0 46 54 75 60 138l24 228h-38c-38 0 -51 -28 -69 -63h-15c20 66 47 150 119 150h319v-87
h-103c-6 -78 -10 -155 -10 -234c0 -39 14 -90 52 -90c10 0 19 5 27 13c18 18 17 37 21 62h21z" />
    <glyph glyph-name="product" unicode="&#x220f;" horiz-adv-x="704" 
d="M688 -102h-268v24c49 0 77 13 77 81v692h-286v-692c0 -68 28 -81 77 -81v-24h-268v24c49 0 78 12 78 81v626c0 63 -25 99 -76 99v23h664v-23c-51 0 -76 -36 -76 -99v-626c0 -68 29 -81 78 -81v-24z" />
    <glyph glyph-name="radical" unicode="&#x221a;" horiz-adv-x="450" 
d="M423 915l-123 -954l-201 502l-78 -47l-13 33l119 72l157 -403l103 799z" />
    <glyph glyph-name="summation" unicode="&#x2211;" horiz-adv-x="574" 
d="M560 116c-15 -78 -26 -145 -34 -225c-20 4 -42 11 -63 11h-405c-15 0 -32 -3 -47 -3l279 399l-277 454c28 -2 55 -7 83 -7h400l6 -160h-20c-5 20 -9 42 -17 61c-21 48 -66 53 -105 53h-210l218 -357l-235 -339h300c70 0 85 37 109 113h18z" />
    <glyph glyph-name="zero.oldstyle" unicode="&#xf730;" horiz-adv-x="435" 
d="M383 154c0 -97 -60 -164 -152 -164h-27c-92 0 -152 67 -152 164v163c0 97 60 164 152 164h27c92 0 152 -67 152 -164v-163zM315 154v163c0 60 -40 106 -86 106h-24c-48 0 -85 -46 -85 -106v-163c0 -58 37 -107 85 -107h24c46 0 86 49 86 107z" />
    <glyph glyph-name="one.oldstyle" unicode="&#xf731;" horiz-adv-x="421" 
d="M360 10c0 -7 -2 -10 -8 -10h-251c-6 0 -8 3 -8 10v37c0 7 2 10 8 10h84c6 0 8 3 8 10v275c0 11 -7 15 -13 7l-53 -66c-4 -5 -7 -5 -11 0l-20 28c-4 5 -5 9 0 14l128 153c1 1 5 3 7 3h19c7 0 10 -3 10 -10v-404c0 -7 2 -10 8 -10h84c6 0 8 -3 8 -10v-37z" />
    <glyph glyph-name="two.oldstyle" unicode="&#xf732;" horiz-adv-x="435" 
d="M377 329c0 -103 -74 -121 -137 -151c-60 -29 -105 -46 -105 -103v-11c0 -5 3 -7 9 -7h219c7 0 10 -2 10 -8v-41c0 -6 -3 -8 -10 -8h-286c-7 0 -10 2 -10 8v57c0 99 67 134 130 163c69 33 113 41 113 102c0 50 -28 93 -88 93h-34c-30 0 -62 -22 -81 -55
c-2 -3 -6 -6 -10 -4l-35 21c-8 5 -8 10 -5 14c30 57 70 82 135 82h36c95 0 149 -61 149 -152z" />
    <glyph glyph-name="three.oldstyle" unicode="&#xf733;" horiz-adv-x="422" 
d="M358 2c0 -106 -57 -172 -146 -172h-26c-71 0 -107 36 -129 83c-3 6 -2 11 4 14l34 21c4 3 8 1 10 -4c19 -36 47 -56 75 -56h25c46 0 85 49 85 107v35c0 58 -39 106 -85 106h-56c-6 0 -8 3 -8 10v38c0 7 2 10 8 10h56c48 0 85 48 85 108v14c0 60 -39 106 -85 106h-25
c-27 0 -56 -19 -75 -55c-2 -5 -7 -7 -11 -4l-33 22c-6 3 -7 8 -4 14c22 46 58 82 129 82h26c89 0 146 -68 146 -174v-16c0 -63 -49 -111 -90 -123v-5c33 -11 90 -61 90 -130v-31z" />
    <glyph glyph-name="four.oldstyle" unicode="&#xf734;" horiz-adv-x="421" 
d="M398 10c0 -7 -2 -10 -8 -10h-59c-6 0 -8 -3 -8 -10v-139c0 -7 -3 -10 -10 -10h-47c-7 0 -10 3 -10 10v139c0 7 -2 10 -8 10h-209c-6 0 -8 3 -8 10l2 57l225 399c2 2 3 4 6 4h51c6 0 8 -3 8 -10v-393c0 -7 2 -10 8 -10h59c6 0 8 -3 8 -10v-37zM256 67v287
c0 12 -8 16 -14 6l-157 -287c-6 -9 -4 -16 6 -16h157c6 0 8 3 8 10z" />
    <glyph glyph-name="five.oldstyle" unicode="&#xf735;" horiz-adv-x="436" 
d="M382 2c0 -106 -60 -172 -153 -172h-27c-75 0 -111 36 -134 82c-3 6 -3 11 3 14l36 22c4 3 8 1 11 -4c20 -36 50 -56 79 -56h27c49 0 90 49 90 107v35c0 58 -42 106 -91 106h-130c-6 0 -9 3 -9 10v314c0 7 3 10 10 10h267c7 0 10 -3 10 -10v-38c0 -7 -3 -10 -10 -10h-201
c-6 0 -9 -3 -9 -10v-198c0 -7 3 -10 9 -10h73c90 0 149 -65 149 -171v-21z" />
    <glyph glyph-name="six.oldstyle" unicode="&#xf736;" horiz-adv-x="435" 
d="M388 154c0 -97 -59 -164 -152 -164h-27c-93 0 -151 67 -151 164v322c0 97 58 164 150 164h26c74 0 110 -36 133 -81c4 -6 2 -11 -4 -14l-35 -21c-4 -2 -7 -1 -10 4c-19 34 -46 54 -79 54h-25c-49 0 -89 -46 -89 -106v-168c0 -12 10 -15 16 -6c30 45 61 57 83 57h26
c77 0 138 -67 138 -163v-42zM320 154v41c0 58 -38 106 -85 106h-25c-47 0 -85 -47 -85 -106v-41c0 -58 38 -107 85 -107h25c47 0 85 49 85 107z" />
    <glyph glyph-name="seven.oldstyle" unicode="&#xf737;" horiz-adv-x="435" 
d="M379 362c0 -127 -71 -180 -130 -226c-51 -40 -92 -78 -92 -142v-144c0 -7 -3 -10 -10 -10h-48c-7 0 -10 3 -10 10v144c0 107 54 155 108 197c57 45 114 86 114 171v40c0 7 -2 10 -8 10h-223c-6 0 -8 3 -8 10v38c0 7 2 10 8 10h289c7 0 10 -3 10 -10v-98z" />
    <glyph glyph-name="eight.oldstyle" unicode="&#xf738;" horiz-adv-x="435" 
d="M383 162c0 -106 -60 -172 -152 -172h-27c-92 0 -152 66 -152 172v26c0 64 43 109 92 127v6c-34 10 -92 53 -92 124v21c0 106 60 174 152 174h27c92 0 152 -68 152 -174v-21c0 -63 -50 -111 -90 -123v-5c33 -11 90 -60 90 -129v-26zM315 456v20c0 60 -40 106 -86 106h-24
c-48 0 -85 -46 -85 -106v-20c0 -60 37 -108 85 -108h24c48 0 86 48 86 108zM315 154v30c0 58 -40 106 -86 106h-24c-48 0 -85 -47 -85 -106v-30c0 -58 37 -107 85 -107h24c46 0 86 49 86 107z" />
    <glyph glyph-name="nine.oldstyle" unicode="&#xf739;" horiz-adv-x="435" 
d="M377 -6c0 -97 -59 -164 -151 -164h-26c-74 0 -110 35 -133 82c-3 6 -2 12 4 15l35 21c5 3 8 1 11 -4c18 -36 45 -56 78 -56h25c48 0 89 49 89 107v132c0 12 -9 15 -15 6c-30 -46 -63 -59 -84 -59h-25c-78 0 -138 68 -138 164v79c0 97 58 164 151 164h26
c93 0 153 -67 153 -164v-323zM309 239v77c0 60 -39 106 -86 106h-24c-47 0 -85 -46 -85 -106v-77c0 -58 38 -107 85 -107h24c47 0 86 49 86 107z" />
    <glyph glyph-name="Lslash.sc" unicode="&#xf6f9;" horiz-adv-x="334" 
d="M316 7c0 -5 -1 -7 -5 -7h-228c-5 0 -8 2 -8 7v149c0 11 -3 13 -9 6l-23 -30c-4 -4 -9 -4 -12 0l-20 26c-5 4 -5 9 0 14l57 70c6 7 7 13 7 24v197c0 5 3 7 8 7h50c5 0 7 -2 7 -7v-131c0 -8 5 -11 10 -5l25 31c3 4 8 4 10 0l21 -25c4 -4 4 -10 0 -14l-57 -70
c-6 -7 -9 -15 -9 -25v-162c0 -6 1 -8 7 -8h164c4 0 5 -3 5 -8v-39z" />
    <glyph glyph-name="Zcaron.sc" unicode="&#xf6ff;" horiz-adv-x="315" 
d="M241 643c0 -2 0 -5 -2 -8l-65 -105c-2 -2 -5 -4 -7 -4h-25c-2 0 -4 2 -6 4l-64 105c-2 3 -3 6 -3 8c0 5 3 8 9 8h28c2 0 5 -2 7 -4l37 -60c2 -3 4 -5 6 -5s4 2 6 5l35 60c2 2 5 4 7 4h28c6 0 9 -3 9 -8zM274 7c0 -5 -3 -7 -6 -7h-226c-6 0 -9 4 -6 10l155 395
c3 6 0 12 -6 12h-135c-4 0 -6 2 -6 7v39c0 5 2 7 6 7h213c6 0 9 -4 6 -10l-156 -395c-3 -7 0 -11 5 -11h150c4 0 6 -3 6 -8v-39z" />
    <glyph glyph-name="A.sc" unicode="&#xf761;" horiz-adv-x="345" 
d="M324 9c2 -5 0 -9 -6 -9h-46c-3 0 -6 1 -6 5l-27 94c-1 3 -4 4 -7 4h-119c-4 0 -6 -1 -7 -4l-26 -94c-1 -4 -4 -5 -7 -5h-45c-5 0 -8 4 -6 9l115 456c1 4 3 5 7 5h44c4 0 8 -1 8 -5zM224 162l-35 167c-2 12 -7 37 -8 42h-1c-1 -5 -5 -29 -8 -42l-42 -167c-2 -5 0 -9 5 -9
h83c5 0 8 4 6 9z" />
    <glyph glyph-name="B.sc" unicode="&#xf762;" horiz-adv-x="410" 
d="M351 130c0 -79 -46 -130 -120 -130h-150c-4 0 -7 2 -7 7v456c0 5 3 7 7 7h150c74 0 120 -49 120 -130v-11c0 -29 -22 -69 -52 -84c-7 -3 -8 -9 -1 -13c27 -13 53 -47 53 -88v-14zM287 336v8c0 39 -25 73 -58 73h-83c-5 0 -6 -3 -6 -9v-136c0 -6 1 -8 6 -8h83
c33 0 58 32 58 72zM287 126v17c0 37 -26 70 -58 70h-83c-5 0 -6 -2 -6 -7v-144c0 -6 1 -8 6 -8h83c32 0 58 33 58 72z" />
    <glyph glyph-name="C.sc" unicode="&#xf763;" horiz-adv-x="367" 
d="M319 59c-20 -42 -48 -69 -104 -69h-35c-71 0 -115 51 -115 125v239c0 76 44 127 115 127h35c55 0 84 -27 104 -69c2 -4 0 -8 -3 -11l-35 -21c-3 -2 -6 0 -8 3c-14 26 -35 44 -54 44h-32c-33 0 -56 -33 -56 -73v-239c0 -38 23 -72 56 -72h32c19 0 40 18 54 45c2 5 5 5 8 3
l35 -21c3 -2 5 -7 3 -11z" />
    <glyph glyph-name="D.sc" unicode="&#xf764;" horiz-adv-x="416" 
d="M351 134c0 -82 -47 -134 -120 -134h-150c-4 0 -7 2 -7 7v456c0 5 3 7 7 7h150c73 0 120 -51 120 -133v-203zM287 126v218c0 38 -26 73 -58 73h-83c-5 0 -6 -3 -6 -9v-346c0 -6 1 -8 6 -8h83c32 0 58 33 58 72z" />
    <glyph glyph-name="E.sc" unicode="&#xf765;" horiz-adv-x="362" 
d="M316 7c0 -5 -3 -7 -7 -7h-227c-5 0 -8 2 -8 7v456c0 5 3 7 8 7h227c4 0 7 -2 7 -7v-39c0 -5 -3 -7 -7 -7h-163c-5 0 -6 -3 -6 -9v-135c0 -5 1 -7 6 -7h136c4 0 6 -2 6 -7v-39c0 -6 -2 -8 -6 -8h-136c-5 0 -6 -3 -6 -8v-142c0 -6 1 -8 6 -8h163c4 0 7 -3 7 -8v-39z" />
    <glyph glyph-name="F.sc" unicode="&#xf766;" horiz-adv-x="349" 
d="M316 424c0 -5 -3 -7 -7 -7h-163c-5 0 -6 -3 -6 -9v-135c0 -5 1 -7 6 -7h136c4 0 6 -2 6 -7v-39c0 -6 -2 -8 -6 -8h-136c-5 0 -6 -3 -6 -8v-197c0 -5 -3 -7 -8 -7h-50c-5 0 -8 2 -8 7v456c0 5 3 7 8 7h227c4 0 7 -2 7 -7v-39z" />
    <glyph glyph-name="G.sc" unicode="&#xf767;" horiz-adv-x="423" 
d="M364 115c0 -75 -50 -125 -130 -125h-39c-80 0 -130 51 -130 125v239c0 76 50 127 130 127h51c62 0 94 -27 117 -69c3 -4 1 -8 -4 -11l-41 -21c-3 -2 -7 -1 -9 3c-17 27 -40 44 -62 44h-50c-38 0 -66 -33 -66 -73v-239c0 -38 28 -72 65 -72h37c36 0 65 34 65 72v57
c0 5 -2 7 -8 7h-86c-5 0 -7 2 -7 8v36c0 6 2 7 7 7h153c5 0 7 -1 7 -7v-108z" />
    <glyph glyph-name="H.sc" unicode="&#xf768;" 
d="M361 7c0 -5 -2 -7 -8 -7h-50c-5 0 -7 2 -7 7v197c0 5 -2 8 -7 8h-143c-5 0 -6 -3 -6 -8v-197c0 -5 -3 -7 -8 -7h-50c-5 0 -8 2 -8 7v456c0 5 3 7 8 7h50c5 0 8 -2 8 -7v-190c0 -5 1 -7 6 -7h143c5 0 7 2 7 7v190c0 5 2 7 7 7h50c6 0 8 -2 8 -7v-456z" />
    <glyph glyph-name="I.sc" unicode="&#xf769;" horiz-adv-x="213" 
d="M140 7c0 -5 -3 -7 -8 -7h-50c-5 0 -8 2 -8 7v456c0 5 3 7 8 7h50c5 0 8 -2 8 -7v-456z" />
    <glyph glyph-name="J.sc" unicode="&#xf76a;" horiz-adv-x="303" 
d="M239 124c0 -76 -49 -134 -117 -134c-42 0 -82 30 -105 71c-3 4 -2 8 3 11l36 21c4 2 6 1 8 -4c12 -26 32 -43 53 -43c30 0 56 32 56 70v347c0 5 3 7 7 7h51c6 0 8 -2 8 -7v-339z" />
    <glyph glyph-name="K.sc" unicode="&#xf76b;" horiz-adv-x="383" 
d="M355 11c4 -6 3 -11 -5 -11h-52c-2 0 -4 1 -6 5l-104 209c-3 6 -6 6 -10 1l-38 -60v-148c0 -5 -3 -7 -8 -7h-50c-5 0 -8 2 -8 7v456c0 5 3 7 8 7h50c5 0 8 -2 8 -7v-200c0 -11 5 -18 7 -14l134 217c2 3 4 4 6 4h47c8 0 10 -6 5 -12l-117 -176c-2 -2 -1 -5 0 -8z" />
    <glyph glyph-name="L.sc" unicode="&#xf76c;" horiz-adv-x="333" 
d="M316 7c0 -5 -3 -7 -7 -7h-227c-5 0 -8 2 -8 7v456c0 5 3 7 8 7h50c5 0 8 -2 8 -7v-401c0 -6 1 -8 6 -8h163c4 0 7 -3 7 -8v-39z" />
    <glyph glyph-name="M.sc" unicode="&#xf76d;" horiz-adv-x="485" 
d="M412 7c0 -5 -3 -7 -8 -7h-48c-5 0 -8 2 -8 7v162c0 61 6 151 7 165l-3 1c-2 -5 -13 -44 -17 -56l-75 -207c-1 -3 -4 -4 -7 -4h-21c-3 0 -5 1 -6 4l-76 208c-3 12 -13 50 -15 55l-3 -1c1 -14 6 -103 6 -165v-162c0 -5 -2 -7 -7 -7h-49c-5 0 -8 2 -8 7v456c0 5 3 7 8 7h50
c3 0 5 -1 7 -4l96 -273c2 -8 6 -25 8 -30h1c1 5 7 22 9 30l94 273c2 3 5 4 8 4h49c5 0 8 -2 8 -7v-456z" />
    <glyph glyph-name="N.sc" unicode="&#xf76e;" horiz-adv-x="426" 
d="M353 7c0 -5 -2 -7 -8 -7h-46c-3 0 -6 1 -7 5l-151 303c-3 8 -10 23 -12 28l7 -1c2 -13 3 -102 3 -162v-166c0 -5 -2 -7 -7 -7h-50c-5 0 -8 2 -8 7v456c0 5 3 7 7 7h41c4 0 5 -1 7 -4l156 -308c3 -7 10 -24 12 -29l-6 1c-1 14 -3 103 -3 163v170c0 5 2 7 7 7h50
c6 0 8 -2 8 -7v-456z" />
    <glyph glyph-name="O.sc" unicode="&#xf76f;" horiz-adv-x="407" 
d="M343 115c0 -74 -48 -125 -121 -125h-36c-73 0 -121 51 -121 125v239c0 76 48 127 121 127h36c73 0 121 -51 121 -127v-239zM277 113v244c0 39 -26 70 -57 70h-32c-32 0 -57 -31 -57 -70v-244c0 -38 24 -70 57 -70h32c31 0 57 32 57 70z" />
    <glyph glyph-name="P.sc" unicode="&#xf770;" horiz-adv-x="375" 
d="M347 333c0 -70 -47 -121 -118 -121h-83c-5 0 -6 -3 -6 -8v-197c0 -5 -3 -7 -8 -7h-50c-5 0 -8 2 -8 7v456c0 5 3 7 7 7h144c72 0 122 -50 122 -126v-11zM283 334v11c0 38 -25 72 -58 72h-79c-5 0 -6 -3 -6 -9v-137c0 -5 1 -7 6 -7h79c33 0 58 31 58 70z" />
    <glyph glyph-name="Q.sc" unicode="&#xf771;" horiz-adv-x="419" 
d="M355 113c0 -71 -45 -113 -111 -124c-5 -1 -5 -3 -5 -8v-68c0 -6 -3 -8 -8 -8h-43c-5 0 -7 2 -7 8v68c0 5 -3 7 -7 8c-67 11 -109 56 -109 124v238c0 76 49 127 126 127h38c76 0 126 -51 126 -127v-238zM289 109v244c0 40 -27 70 -61 70h-36c-35 0 -61 -31 -61 -70v-244
c0 -29 19 -55 44 -64c4 -2 7 -1 8 6v59c1 6 4 8 8 8h37c5 0 9 -2 9 -8v-58c1 -7 3 -7 8 -5c25 4 44 35 44 62z" />
    <glyph glyph-name="R.sc" unicode="&#xf772;" horiz-adv-x="408" 
d="M361 9c2 -5 0 -9 -8 -9h-53c-3 0 -5 2 -5 5l-67 202c0 4 -2 5 -5 5h-77c-5 0 -6 -3 -6 -8v-197c0 -5 -3 -7 -8 -7h-50c-5 0 -8 2 -8 7v456c0 5 3 7 7 7h150c73 0 120 -51 120 -133v-8c0 -39 -32 -82 -66 -98c-4 -2 -5 -5 -4 -10zM287 336v8c0 39 -26 73 -58 73h-83
c-5 0 -6 -3 -6 -9v-136c0 -6 1 -8 6 -8h83c32 0 58 32 58 72z" />
    <glyph glyph-name="S.sc" unicode="&#xf773;" horiz-adv-x="369" 
d="M319 119c0 -76 -47 -129 -123 -129h-36c-58 0 -89 27 -108 65c-3 4 -3 9 1 11l36 24c3 2 7 1 9 -3c15 -26 36 -44 58 -44h35c35 0 62 36 62 76c0 49 -47 72 -92 94c-54 27 -106 53 -106 138c0 76 46 130 121 130h20c57 0 89 -27 108 -65c4 -4 3 -9 -2 -12l-35 -22
c-3 -3 -6 -3 -9 2c-14 26 -36 43 -57 43h-20c-34 0 -60 -35 -60 -76c0 -43 51 -67 96 -89c53 -26 102 -56 102 -143z" />
    <glyph glyph-name="T.sc" unicode="&#xf774;" horiz-adv-x="285" 
d="M269 424c0 -5 -2 -7 -6 -7h-82c-5 0 -6 -3 -6 -9v-401c0 -5 -2 -7 -7 -7h-50c-6 0 -8 2 -8 7v401c0 6 -1 9 -6 9h-82c-5 0 -6 2 -6 7v39c0 5 1 7 6 7h241c4 0 6 -2 6 -7v-39z" />
    <glyph glyph-name="U.sc" unicode="&#xf775;" horiz-adv-x="409" 
d="M343 115c0 -74 -47 -125 -120 -125h-37c-73 0 -120 51 -120 125v348c0 5 2 7 7 7h51c5 0 7 -2 7 -7v-350c0 -38 24 -70 57 -70h33c32 0 56 32 56 70v350c0 5 3 7 8 7h51c5 0 7 -2 7 -7v-348z" />
    <glyph glyph-name="V.sc" unicode="&#xf776;" horiz-adv-x="345" 
d="M324 461l-136 -456c-1 -4 -3 -5 -7 -5h-33c-4 0 -7 1 -8 5l-118 456c-2 6 1 9 7 9h53c4 0 7 -1 8 -5l83 -320c2 -9 6 -28 7 -37h3c1 9 5 28 7 37l78 320c1 4 2 5 6 5h44c6 0 8 -4 6 -9z" />
    <glyph glyph-name="W.sc" unicode="&#xf777;" horiz-adv-x="497" 
d="M473 461l-93 -455c-1 -4 -3 -6 -7 -6h-36c-4 0 -6 1 -7 5l-75 286c-2 8 -5 30 -7 34h-2c-1 -4 -5 -27 -7 -34l-67 -286c-1 -4 -3 -5 -7 -5h-39c-4 0 -7 2 -8 6l-93 455c-2 6 1 9 7 9h54c4 0 6 -2 7 -6l61 -301c2 -7 6 -31 7 -35h-11c2 4 6 27 8 35l73 303c0 3 3 5 7 5h25
c4 0 7 -2 7 -5l65 -304c2 -8 4 -31 5 -35h3c1 4 7 27 8 36l61 301c1 4 3 6 7 6h47c6 0 8 -3 7 -9z" />
    <glyph glyph-name="X.sc" unicode="&#xf778;" horiz-adv-x="345" 
d="M306 10c3 -6 0 -10 -6 -10h-47c-3 0 -5 2 -6 5l-68 164c-2 7 -7 7 -10 0l-70 -164c-2 -3 -4 -5 -7 -5h-47c-7 0 -9 4 -5 11l98 220c1 3 1 5 0 9l-98 219c-4 7 -2 11 5 11h47c2 0 4 -2 6 -5l71 -166c2 -6 8 -6 10 0l68 166c2 4 3 5 6 5h47c6 0 9 -4 6 -10l-98 -220
c-2 -3 -2 -6 0 -9z" />
    <glyph glyph-name="Y.sc" unicode="&#xf779;" horiz-adv-x="300" 
d="M293 459l-110 -243v-209c0 -5 -3 -7 -8 -7h-51c-5 0 -7 2 -7 7v209l-110 243c-3 7 -2 11 6 11h50c3 0 5 -2 7 -5l77 -172c3 -7 8 -7 11 0l76 172c2 3 4 5 7 5h47c8 0 9 -4 5 -11z" />
    <glyph glyph-name="Z.sc" unicode="&#xf77a;" horiz-adv-x="315" 
d="M274 7c0 -5 -3 -7 -6 -7h-226c-6 0 -9 4 -6 10l155 395c3 6 0 12 -6 12h-135c-4 0 -6 2 -6 7v39c0 5 2 7 6 7h213c6 0 9 -4 6 -10l-156 -395c-3 -7 0 -11 5 -11h150c4 0 6 -3 6 -8v-39z" />
    <glyph glyph-name="ellipsis" unicode="&#x2026;" horiz-adv-x="859" 
d="M741 33c0 -28 -22 -49 -50 -49c-26 0 -48 23 -48 49s22 49 48 49c28 0 50 -21 50 -49zM478 33c0 -28 -22 -49 -50 -49c-26 0 -48 23 -48 49s22 49 48 49c28 0 50 -21 50 -49zM215 33c0 -28 -22 -49 -50 -49c-26 0 -48 23 -48 49s22 49 48 49c28 0 50 -21 50 -49z" />
    <glyph glyph-name="Scaron.sc" unicode="&#xf6fd;" horiz-adv-x="369" 
d="M272 643c0 -2 0 -5 -2 -8l-69 -105c-2 -2 -4 -4 -7 -4h-26c-3 0 -5 2 -7 4l-67 105c-2 3 -3 6 -3 8c0 5 3 8 9 8h30c3 0 5 -2 7 -4l39 -60c3 -3 3 -5 6 -5s5 2 7 5l37 60c2 2 3 4 6 4h31c6 0 9 -3 9 -8zM319 119c0 -76 -47 -129 -123 -129h-36c-58 0 -89 27 -108 65
c-3 4 -3 9 1 11l36 24c3 2 7 1 9 -3c15 -26 36 -44 58 -44h35c35 0 62 36 62 76c0 49 -47 72 -92 94c-54 27 -106 53 -106 138c0 76 46 130 121 130h20c57 0 89 -27 108 -65c4 -4 3 -9 -2 -12l-35 -22c-3 -3 -6 -3 -9 2c-14 26 -36 43 -57 43h-20c-34 0 -60 -35 -60 -76
c0 -43 51 -67 96 -89c53 -26 102 -56 102 -143z" />
    <glyph glyph-name="OE.sc" unicode="&#xf6fa;" horiz-adv-x="555" 
d="M509 7c0 -5 -2 -7 -6 -7h-242c-12 -5 -29 -8 -44 -8h-36c-70 0 -116 52 -116 126v234c0 75 47 126 119 126h37c16 0 33 -3 46 -8h236c3 0 6 -2 6 -7v-39c0 -5 -2 -7 -6 -7h-166c-7 0 -9 -5 -7 -11c9 -20 13 -41 13 -57v-76c0 -5 1 -7 6 -7h126c4 0 7 -2 7 -7v-39
c0 -6 -3 -8 -7 -8h-126c-5 0 -6 -3 -6 -8v-85c0 -15 -4 -35 -13 -55c-2 -6 0 -10 7 -10h166c4 0 6 -3 6 -8v-39zM277 115v239c0 40 -26 70 -57 70h-33c-31 0 -56 -31 -56 -70v-239c0 -38 24 -69 56 -69h33c31 0 57 32 57 69z" />
    <glyph glyph-name="germandbls.sc" unicode="&#xf7df;" horiz-adv-x="731" 
d="M681 119c0 -76 -47 -129 -122 -129h-37c-58 0 -89 27 -108 65c-3 4 -2 9 2 11l35 24c3 2 7 1 9 -3c15 -26 36 -44 58 -44h35c35 0 62 36 62 76c0 49 -47 72 -92 94c-54 27 -106 53 -106 138c0 76 46 130 121 130h20c57 0 89 -27 108 -65c4 -4 3 -9 -2 -12l-35 -22
c-3 -3 -6 -3 -9 2c-14 26 -36 43 -57 43h-20c-34 0 -60 -35 -60 -76c0 -43 51 -67 96 -89c53 -26 102 -56 102 -143zM319 119c0 -76 -47 -129 -123 -129h-36c-58 0 -89 27 -108 65c-3 4 -3 9 1 11l36 24c3 2 7 1 9 -3c15 -26 36 -44 58 -44h35c35 0 62 36 62 76
c0 49 -47 72 -92 94c-54 27 -106 53 -106 138c0 76 46 130 121 130h20c57 0 89 -27 108 -65c4 -4 3 -9 -2 -12l-35 -22c-3 -3 -6 -3 -9 2c-14 26 -36 43 -57 43h-20c-34 0 -60 -35 -60 -76c0 -43 51 -67 96 -89c53 -26 102 -56 102 -143z" />
    <glyph glyph-name="Agrave.sc" unicode="&#xf7e0;" horiz-adv-x="331" 
d="M192 535c0 -5 -3 -8 -9 -8h-16c-4 0 -6 1 -9 5l-93 102c-2 3 -4 5 -4 8c0 5 3 9 9 9h54c3 0 7 -3 9 -6l56 -102c2 -3 3 -6 3 -8zM310 9c2 -5 0 -9 -6 -9h-44c-3 0 -5 1 -5 5l-26 94c-1 3 -3 4 -6 4h-114c-4 0 -5 -1 -6 -4l-26 -94c-1 -4 -3 -5 -6 -5h-44c-5 0 -7 4 -5 9
l109 456c1 4 3 5 7 5h42c4 0 8 -1 8 -5zM215 162l-31 167c-2 12 -6 37 -7 42h-2c-1 -5 -5 -29 -8 -42l-40 -167c-2 -5 1 -9 6 -9h77c5 0 7 4 5 9z" />
    <glyph glyph-name="Aacute.sc" unicode="&#xf7e1;" horiz-adv-x="331" 
d="M263 642c0 -3 -1 -5 -3 -8l-93 -102c-3 -4 -5 -5 -9 -5h-17c-6 0 -9 3 -9 8c0 3 1 5 3 8l56 102c2 3 6 6 9 6h54c6 0 9 -4 9 -9zM310 9c2 -5 0 -9 -6 -9h-44c-3 0 -5 1 -5 5l-26 94c-1 3 -3 4 -6 4h-114c-4 0 -5 -1 -6 -4l-26 -94c-1 -4 -3 -5 -6 -5h-44c-5 0 -7 4 -5 9
l109 456c1 4 3 5 7 5h42c4 0 8 -1 8 -5zM215 162l-31 167c-2 12 -6 37 -7 42h-2c-1 -5 -5 -29 -8 -42l-40 -167c-2 -5 1 -9 6 -9h77c5 0 7 4 5 9z" />
    <glyph glyph-name="Acircumflex.sc" unicode="&#xf7e2;" horiz-adv-x="331" 
d="M255 534c0 -5 -3 -8 -9 -8h-29c-2 0 -4 2 -6 4l-36 62c-2 3 -5 5 -7 5s-4 -2 -6 -5l-39 -62c-2 -2 -4 -4 -6 -4h-28c-6 0 -9 3 -9 8c0 2 1 5 3 8l65 105c2 2 4 4 6 4h26c2 0 4 -2 6 -4l66 -105c2 -3 3 -6 3 -8zM310 9c2 -5 0 -9 -6 -9h-44c-3 0 -5 1 -5 5l-26 94
c-1 3 -3 4 -6 4h-114c-4 0 -5 -1 -6 -4l-26 -94c-1 -4 -3 -5 -6 -5h-44c-5 0 -7 4 -5 9l109 456c1 4 3 5 7 5h42c4 0 8 -1 8 -5zM215 162l-31 167c-2 12 -6 37 -7 42h-2c-1 -5 -5 -29 -8 -42l-40 -167c-2 -5 1 -9 6 -9h77c5 0 7 4 5 9z" />
    <glyph glyph-name="Atilde.sc" unicode="&#xf7e3;" horiz-adv-x="331" 
d="M291 601c0 -4 -7 -17 -14 -28c-16 -25 -33 -37 -52 -37c-15 0 -31 11 -50 26l-17 13c-11 9 -23 15 -34 15c-13 0 -26 -6 -42 -26c-2 -2 -4 -3 -6 -3s-3 0 -5 2l-8 7c-2 2 -4 5 -4 8c0 4 5 14 11 24c16 28 34 40 54 40c17 0 31 -7 48 -23l17 -16c9 -9 25 -15 36 -15
c13 0 28 7 44 27c2 2 4 4 6 4s3 -1 5 -3l7 -7c2 -2 4 -5 4 -8zM310 9c2 -5 0 -9 -6 -9h-44c-3 0 -5 1 -5 5l-26 94c-1 3 -3 4 -6 4h-114c-4 0 -5 -1 -6 -4l-26 -94c-1 -4 -3 -5 -6 -5h-44c-5 0 -7 4 -5 9l109 456c1 4 3 5 7 5h42c4 0 8 -1 8 -5zM215 162l-31 167
c-2 12 -6 37 -7 42h-2c-1 -5 -5 -29 -8 -42l-40 -167c-2 -5 1 -9 6 -9h77c5 0 7 4 5 9z" />
    <glyph glyph-name="Adieresis.sc" unicode="&#xf7e4;" horiz-adv-x="363" 
d="M299 589c0 -24 -21 -45 -45 -45c-25 0 -43 20 -43 45s18 43 43 43s45 -18 45 -43zM151 589c0 -25 -19 -45 -44 -45s-44 20 -44 45s19 43 44 43s44 -18 44 -43zM341 9c2 -5 1 -9 -5 -9h-46c-3 0 -6 1 -6 5l-29 93c-1 3 -3 4 -7 4h-128c-5 0 -6 -1 -7 -4l-29 -93
c-1 -4 -3 -5 -7 -5h-49c-6 0 -8 4 -6 9l120 456c1 4 4 5 9 5h45c5 0 8 -1 8 -5zM235 162l-41 167c-3 12 -6 37 -8 42h-2c-1 -5 -5 -29 -8 -42l-44 -167c-2 -5 0 -9 6 -9h91c6 0 8 4 6 9z" />
    <glyph glyph-name="Aring.sc" unicode="&#xf7e5;" horiz-adv-x="343" 
d="M322 9c2 -5 0 -9 -6 -9h-43c-3 0 -6 1 -6 5l-26 93c-1 3 -4 4 -7 4h-120c-4 0 -6 -1 -7 -4l-27 -93c-1 -4 -4 -5 -7 -5h-45c-5 0 -8 4 -6 9l110 446c-17 10 -27 36 -27 71v31c0 45 27 75 70 75c42 0 71 -30 71 -75v-31c0 -35 -19 -62 -48 -72c0 1 124 -445 124 -445z
M216 526v31c0 28 -17 45 -41 45s-40 -17 -40 -45v-31c0 -28 16 -46 40 -46s41 18 41 46zM224 162l-37 167c-2 12 -5 37 -7 42h-2c-1 -5 -5 -29 -8 -42l-41 -167c-2 -5 -1 -9 5 -9h84c6 0 8 4 6 9z" />
    <glyph glyph-name="AE.sc" unicode="&#xf7e6;" horiz-adv-x="488" 
d="M441 7c0 -5 -2 -7 -6 -7h-218c-5 0 -7 2 -7 7v95c0 5 -1 7 -6 7h-103c-2 0 -5 -1 -7 -4l-46 -100c-1 -4 -4 -5 -6 -5h-41c-7 0 -9 4 -5 11l230 455c2 3 4 4 7 4h202c4 0 6 -2 6 -7v-39c0 -5 -2 -7 -6 -7h-152c-5 0 -8 -3 -8 -9v-135c0 -5 3 -7 8 -7h125c4 0 5 -2 5 -7
v-39c0 -6 -1 -8 -5 -8h-125c-5 0 -8 -3 -8 -8v-142c0 -6 3 -8 8 -8h152c4 0 6 -3 6 -8v-39zM212 367h9c-2 -4 -11 -24 -13 -30l-84 -166c-4 -7 -2 -11 5 -11h76c4 0 5 2 5 7v51c0 51 2 134 2 149z" />
    <glyph glyph-name="Ccedilla.sc" unicode="&#xf7e7;" horiz-adv-x="377" 
d="M329 59c-21 -42 -49 -67 -106 -69c-6 0 -11 -3 -14 -9l-16 -39c-3 -7 -2 -12 4 -15c28 -13 44 -31 44 -63v-14c0 -51 -38 -84 -84 -84h-29c-7 0 -10 3 -10 10v16c0 7 3 10 10 10h29c22 0 39 21 39 48v9c0 27 -17 40 -41 48c-7 2 -8 7 -5 13l23 61c3 6 3 11 -4 12
c-61 13 -104 49 -104 122v239c0 76 46 127 120 127h36c57 0 87 -27 108 -69c2 -4 0 -8 -3 -11l-37 -21c-3 -2 -6 0 -9 3c-15 26 -36 44 -56 44h-34c-34 0 -59 -33 -59 -73v-239c0 -38 25 -72 59 -72h34c20 0 42 18 56 45c3 5 6 5 9 3l37 -21c3 -2 5 -7 3 -11z" />
    <glyph glyph-name="Egrave.sc" unicode="&#xf7e8;" horiz-adv-x="362" 
d="M230 535c0 -5 -3 -8 -9 -8h-18c-4 0 -6 1 -9 5l-98 102c-3 3 -3 5 -3 8c0 5 3 9 9 9h57c3 0 7 -3 9 -6l59 -102c2 -3 3 -6 3 -8zM316 7c0 -5 -3 -7 -7 -7h-227c-5 0 -8 2 -8 7v456c0 5 3 7 8 7h227c4 0 7 -2 7 -7v-39c0 -5 -3 -7 -7 -7h-163c-5 0 -6 -3 -6 -9v-135
c0 -5 1 -7 6 -7h136c4 0 6 -2 6 -7v-39c0 -6 -2 -8 -6 -8h-136c-5 0 -6 -3 -6 -8v-142c0 -6 1 -8 6 -8h163c4 0 7 -3 7 -8v-39z" />
    <glyph glyph-name="Eacute.sc" unicode="&#xf7e9;" horiz-adv-x="362" 
d="M301 642c0 -3 -1 -5 -3 -8l-91 -102c-3 -4 -5 -5 -9 -5h-16c-6 0 -9 3 -9 8c0 3 1 5 3 8l55 102c2 3 6 6 9 6h52c6 0 9 -4 9 -9zM316 7c0 -5 -3 -7 -7 -7h-227c-5 0 -8 2 -8 7v456c0 5 3 7 8 7h227c4 0 7 -2 7 -7v-39c0 -5 -3 -7 -7 -7h-163c-5 0 -6 -3 -6 -9v-135
c0 -5 1 -7 6 -7h136c4 0 6 -2 6 -7v-39c0 -6 -2 -8 -6 -8h-136c-5 0 -6 -3 -6 -8v-142c0 -6 1 -8 6 -8h163c4 0 7 -3 7 -8v-39z" />
    <glyph glyph-name="Ecircumflex.sc" unicode="&#xf7ea;" horiz-adv-x="362" 
d="M289 534c0 -5 -3 -8 -9 -8h-29c-2 0 -4 2 -6 4l-37 62c-2 3 -4 5 -6 5s-5 -2 -7 -5l-39 -62c-2 -2 -4 -4 -6 -4h-28c-6 0 -9 3 -9 8c0 2 0 5 2 8l66 105c2 2 5 4 7 4h25c2 0 5 -2 7 -4l67 -105c2 -3 2 -6 2 -8zM316 7c0 -5 -3 -7 -7 -7h-227c-5 0 -8 2 -8 7v456
c0 5 3 7 8 7h227c4 0 7 -2 7 -7v-39c0 -5 -3 -7 -7 -7h-163c-5 0 -6 -3 -6 -9v-135c0 -5 1 -7 6 -7h136c4 0 6 -2 6 -7v-39c0 -6 -2 -8 -6 -8h-136c-5 0 -6 -3 -6 -8v-142c0 -6 1 -8 6 -8h163c4 0 7 -3 7 -8v-39z" />
    <glyph glyph-name="Edieresis.sc" unicode="&#xf7eb;" horiz-adv-x="387" 
d="M326 589c0 -24 -21 -45 -45 -45c-25 0 -43 20 -43 45s18 43 43 43s45 -18 45 -43zM178 589c0 -25 -19 -45 -44 -45s-44 20 -44 45s19 43 44 43s44 -18 44 -43zM341 7c0 -5 -3 -7 -7 -7h-252c-5 0 -8 2 -8 7v456c0 5 3 7 8 7h252c4 0 7 -2 7 -7v-40c0 -5 -3 -7 -7 -7h-186
c-6 0 -8 -3 -8 -9v-134c0 -5 2 -7 8 -7h155c5 0 7 -2 7 -7v-40c0 -6 -2 -8 -7 -8h-155c-6 0 -8 -3 -8 -8v-141c0 -6 2 -8 8 -8h186c4 0 7 -3 7 -8v-39z" />
    <glyph glyph-name="Igrave.sc" unicode="&#xf7ec;" horiz-adv-x="213" 
d="M143 535c0 -5 -3 -8 -9 -8h-18c-4 0 -6 1 -10 5l-100 102c-3 3 -4 5 -4 8c0 5 4 9 10 9h58c4 0 8 -3 10 -6l61 -102c2 -3 2 -6 2 -8zM139 7c0 -5 -3 -7 -8 -7h-50c-5 0 -8 2 -8 7v456c0 5 3 7 8 7h50c5 0 8 -2 8 -7v-456z" />
    <glyph glyph-name="Iacute.sc" unicode="&#xf7ed;" horiz-adv-x="214" 
d="M218 642c0 -3 -1 -5 -4 -8l-100 -102c-4 -4 -6 -5 -10 -5h-18c-6 0 -9 3 -9 8c0 3 0 5 2 8l61 102c2 3 6 6 10 6h58c6 0 10 -4 10 -9zM140 7c0 -5 -3 -7 -8 -7h-50c-5 0 -8 2 -8 7v456c0 5 3 7 8 7h50c5 0 8 -2 8 -7v-456z" />
    <glyph glyph-name="Icircumflex.sc" unicode="&#xf7ee;" horiz-adv-x="214" 
d="M201 534c0 -5 -4 -8 -10 -8h-30c-3 0 -5 2 -7 4l-38 62c-2 3 -4 5 -7 5s-4 -2 -7 -5l-40 -62c-2 -2 -4 -4 -7 -4h-29c-6 0 -10 3 -10 8c0 2 1 5 3 8l69 105c2 2 4 4 7 4h26c3 0 5 -2 7 -4l70 -105c2 -3 3 -6 3 -8zM140 7c0 -5 -3 -7 -8 -7h-50c-5 0 -8 2 -8 7v456
c0 5 3 7 8 7h50c5 0 8 -2 8 -7v-456z" />
    <glyph glyph-name="Idieresis.sc" unicode="&#xf7ef;" horiz-adv-x="249" 
d="M249 589c0 -24 -21 -45 -45 -45c-25 0 -43 20 -43 45s18 43 43 43s45 -18 45 -43zM88 589c0 -25 -19 -45 -44 -45s-44 20 -44 45s19 43 44 43s44 -18 44 -43zM157 7c0 -5 -3 -7 -8 -7h-50c-5 0 -8 2 -8 7v456c0 5 3 7 8 7h50c5 0 8 -2 8 -7v-456z" />
    <glyph glyph-name="Eth.sc" unicode="&#xf7f0;" horiz-adv-x="416" 
d="M351 134c0 -82 -47 -134 -120 -134h-150c-4 0 -7 2 -7 7v194c0 7 -1 10 -6 10h-33c-5 0 -7 3 -7 10v35c0 7 2 10 7 10h33c4 0 6 4 6 10v187c0 5 3 7 7 7h150c73 0 120 -51 120 -133v-203zM287 126v218c0 38 -26 73 -58 73h-83c-5 0 -6 -3 -6 -9v-133c0 -7 3 -9 7 -9h64
c5 0 7 -3 7 -10v-35c0 -7 -2 -10 -7 -10h-65c-5 0 -6 -4 -6 -9v-140c0 -6 1 -8 6 -8h83c32 0 58 33 58 72z" />
    <glyph glyph-name="Ntilde.sc" unicode="&#xf7f1;" horiz-adv-x="426" 
d="M338 601c0 -4 -9 -17 -16 -28c-17 -25 -35 -37 -55 -37c-17 0 -34 11 -54 26l-17 13c-12 9 -26 15 -37 15c-14 0 -28 -6 -45 -26c-2 -2 -4 -3 -6 -3s-3 0 -5 2l-9 7c-3 2 -4 5 -4 8c0 4 6 14 12 24c17 28 36 40 57 40c18 0 34 -7 52 -23l18 -16c10 -9 26 -15 38 -15
c14 0 30 7 47 27c2 2 4 4 6 4s3 -1 5 -3l8 -7c3 -2 5 -5 5 -8zM353 7c0 -5 -2 -7 -8 -7h-46c-3 0 -6 1 -7 5l-151 303c-3 8 -10 23 -12 28l7 -1c2 -13 3 -102 3 -162v-166c0 -5 -2 -7 -7 -7h-50c-5 0 -8 2 -8 7v456c0 5 3 7 7 7h41c4 0 5 -1 7 -4l156 -308
c3 -7 10 -24 12 -29l-6 1c-1 14 -3 103 -3 163v170c0 5 2 7 7 7h50c6 0 8 -2 8 -7v-456z" />
    <glyph glyph-name="Ograve.sc" unicode="&#xf7f2;" horiz-adv-x="407" 
d="M242 535c0 -5 -4 -8 -10 -8h-16c-4 0 -6 1 -9 5l-95 102c-2 3 -3 5 -3 8c0 5 3 9 9 9h55c3 0 7 -3 9 -6l57 -102c2 -3 3 -6 3 -8zM343 115c0 -74 -48 -125 -121 -125h-36c-73 0 -121 51 -121 125v239c0 76 48 127 121 127h36c73 0 121 -51 121 -127v-239zM277 113v244
c0 39 -26 70 -57 70h-32c-32 0 -57 -31 -57 -70v-244c0 -38 24 -70 57 -70h32c31 0 57 32 57 70z" />
    <glyph glyph-name="Oacute.sc" unicode="&#xf7f3;" horiz-adv-x="407" 
d="M300 642c0 -3 -2 -5 -4 -8l-94 -102c-3 -4 -5 -5 -9 -5h-17c-6 0 -9 3 -9 8c0 3 0 5 2 8l58 102c2 3 6 6 9 6h55c6 0 9 -4 9 -9zM343 115c0 -74 -48 -125 -121 -125h-36c-73 0 -121 51 -121 125v239c0 76 48 127 121 127h36c73 0 121 -51 121 -127v-239zM277 113v244
c0 39 -26 70 -57 70h-32c-32 0 -57 -31 -57 -70v-244c0 -38 24 -70 57 -70h32c31 0 57 32 57 70z" />
    <glyph glyph-name="Ocircumflex.sc" unicode="&#xf7f4;" horiz-adv-x="407" 
d="M294 534c0 -5 -3 -8 -9 -8h-29c-2 0 -5 2 -7 4l-37 62c-2 3 -4 5 -6 5s-5 -2 -7 -5l-39 -62c-2 -2 -5 -4 -7 -4h-28c-6 0 -9 3 -9 8c0 2 0 5 2 8l67 105c2 2 4 4 6 4h26c2 0 5 -2 7 -4l67 -105c2 -3 3 -6 3 -8zM343 115c0 -74 -48 -125 -121 -125h-36
c-73 0 -121 51 -121 125v239c0 76 48 127 121 127h36c73 0 121 -51 121 -127v-239zM277 113v244c0 39 -26 70 -57 70h-32c-32 0 -57 -31 -57 -70v-244c0 -38 24 -70 57 -70h32c31 0 57 32 57 70z" />
    <glyph glyph-name="Otilde.sc" unicode="&#xf7f5;" horiz-adv-x="407" 
d="M333 601c0 -4 -9 -17 -16 -28c-17 -25 -35 -37 -55 -37c-17 0 -34 11 -54 26l-18 13c-12 9 -25 15 -36 15c-14 0 -29 -6 -46 -26c-2 -2 -4 -3 -6 -3s-3 0 -5 2l-9 7c-3 2 -4 5 -4 8c0 4 6 14 12 24c17 28 37 40 58 40c18 0 33 -7 51 -23l19 -16c10 -9 26 -15 38 -15
c14 0 30 7 47 27c2 2 4 4 6 4s4 -1 6 -3l7 -7c3 -2 5 -5 5 -8zM343 115c0 -74 -48 -125 -121 -125h-36c-73 0 -121 51 -121 125v239c0 76 48 127 121 127h36c73 0 121 -51 121 -127v-239zM277 113v244c0 39 -26 70 -57 70h-32c-32 0 -57 -31 -57 -70v-244
c0 -38 24 -70 57 -70h32c31 0 57 32 57 70z" />
    <glyph glyph-name="Odieresis.sc" unicode="&#xf7f6;" horiz-adv-x="428" 
d="M332 589c0 -24 -21 -45 -45 -45c-25 0 -43 20 -43 45s18 43 43 43s45 -18 45 -43zM184 589c0 -25 -19 -45 -44 -45s-44 20 -44 45s19 43 44 43s44 -18 44 -43zM364 115c0 -74 -53 -125 -131 -125h-38c-79 0 -130 51 -130 125v239c0 76 51 127 130 127h38
c78 0 131 -51 131 -127v-239zM298 113v243c0 39 -29 70 -65 70h-37c-37 0 -65 -31 -65 -70v-243c0 -38 27 -70 65 -70h37c36 0 65 32 65 70z" />
    <glyph glyph-name="Oslash.sc" unicode="&#xf7f8;" horiz-adv-x="407" 
d="M343 118c0 -74 -48 -126 -121 -126h-36c-73 0 -121 52 -121 126v234c0 75 48 126 121 126h36c73 0 121 -51 121 -126v-234zM249 406c2 3 -1 6 -4 8c-7 6 -20 10 -30 10h-27c-32 0 -57 -31 -57 -70v-223v-12c2 -8 8 -9 10 -2zM277 115v223c0 4 -1 12 -1 17
c-1 8 -7 9 -10 1l-107 -289c-2 -4 -3 -8 1 -9c7 -7 20 -12 33 -12h27c31 0 57 32 57 69z" />
    <glyph glyph-name="Ugrave.sc" unicode="&#xf7f9;" horiz-adv-x="409" 
d="M238 535c0 -5 -4 -8 -10 -8h-16c-4 0 -6 1 -9 5l-95 102c-2 3 -4 5 -4 8c0 5 4 9 10 9h54c3 0 8 -3 10 -6l57 -102c2 -3 3 -6 3 -8zM343 115c0 -74 -47 -125 -120 -125h-37c-73 0 -120 51 -120 125v348c0 5 2 7 7 7h51c5 0 7 -2 7 -7v-350c0 -38 24 -70 57 -70h33
c32 0 56 32 56 70v350c0 5 3 7 8 7h51c5 0 7 -2 7 -7v-348z" />
    <glyph glyph-name="Uacute.sc" unicode="&#xf7fa;" horiz-adv-x="409" 
d="M308 642c0 -3 0 -5 -3 -8l-95 -102c-3 -4 -6 -5 -10 -5h-16c-6 0 -10 3 -10 8c0 3 1 5 3 8l58 102c2 3 6 6 9 6h55c6 0 9 -4 9 -9zM343 115c0 -74 -47 -125 -120 -125h-37c-73 0 -120 51 -120 125v348c0 5 2 7 7 7h51c5 0 7 -2 7 -7v-350c0 -38 24 -70 57 -70h33
c32 0 56 32 56 70v350c0 5 3 7 8 7h51c5 0 7 -2 7 -7v-348z" />
    <glyph glyph-name="Ucircumflex.sc" unicode="&#xf7fb;" horiz-adv-x="409" 
d="M292 534c0 -5 -3 -8 -9 -8h-29c-2 0 -4 2 -6 4l-37 62c-2 3 -4 5 -6 5s-5 -2 -7 -5l-39 -62c-2 -2 -4 -4 -6 -4h-29c-6 0 -9 3 -9 8c0 2 1 5 3 8l66 105c2 2 5 4 7 4h25c2 0 5 -2 7 -4l67 -105c2 -3 2 -6 2 -8zM343 115c0 -74 -47 -125 -120 -125h-37
c-73 0 -120 51 -120 125v348c0 5 2 7 7 7h51c5 0 7 -2 7 -7v-350c0 -38 24 -70 57 -70h33c32 0 56 32 56 70v350c0 5 3 7 8 7h51c5 0 7 -2 7 -7v-348z" />
    <glyph glyph-name="Udieresis.sc" unicode="&#xf7fc;" horiz-adv-x="431" 
d="M334 589c0 -24 -21 -45 -45 -45c-25 0 -43 20 -43 45s18 43 43 43s45 -18 45 -43zM186 589c0 -25 -19 -45 -44 -45s-44 20 -44 45s19 43 44 43s44 -18 44 -43zM365 115c0 -74 -51 -125 -130 -125h-39c-79 0 -130 51 -130 125v348c0 5 2 7 7 7h51c5 0 7 -2 7 -7v-350
c0 -38 28 -70 66 -70h37c37 0 65 32 65 70v350c0 5 3 7 8 7h51c5 0 7 -2 7 -7v-348z" />
    <glyph glyph-name="Yacute.sc" unicode="&#xf7fd;" horiz-adv-x="300" 
d="M257 642c0 -3 -1 -5 -4 -8l-101 -102c-4 -4 -6 -5 -10 -5h-17c-6 0 -10 3 -10 8c0 3 1 5 3 8l61 102c2 3 5 6 9 6h59c6 0 10 -4 10 -9zM293 459l-110 -243v-209c0 -5 -3 -7 -8 -7h-51c-5 0 -7 2 -7 7v209l-110 243c-3 7 -2 11 6 11h50c3 0 5 -2 7 -5l77 -172
c3 -7 8 -7 11 0l76 172c2 3 4 5 7 5h47c8 0 9 -4 5 -11z" />
    <glyph glyph-name="Thorn.sc" unicode="&#xf7fe;" horiz-adv-x="375" 
d="M347 273c0 -71 -46 -122 -117 -122h-84c-5 0 -6 -2 -6 -7v-137c0 -5 -3 -7 -8 -7h-50c-5 0 -8 2 -8 7v456c0 5 4 7 8 7h51c4 0 7 -2 7 -7v-47c0 -5 1 -7 6 -7h84c70 0 117 -49 117 -125v-11zM283 274v10c0 39 -25 72 -58 72h-79c-5 0 -6 -3 -6 -8v-137c0 -5 1 -7 6 -7h79
c33 0 58 31 58 70z" />
    <glyph glyph-name="Ydieresis.sc" unicode="&#xf7ff;" horiz-adv-x="336" 
d="M295 589c0 -24 -21 -45 -45 -45c-25 0 -43 20 -43 45s18 43 43 43s45 -18 45 -43zM133 589c0 -25 -19 -45 -44 -45s-44 20 -44 45s19 43 44 43s44 -18 44 -43zM329 459l-128 -243v-209c0 -5 -3 -7 -8 -7h-51c-5 0 -7 2 -7 7v209l-128 243c-3 7 -2 11 6 11h57
c3 0 6 -2 8 -5l87 -173c4 -7 8 -7 12 0l87 173c3 3 4 5 8 5h51c8 0 10 -4 6 -11z" />
    </font>
</defs>
</svg>
